<?xml version="1.0" encoding="UTF-8" standalone="no"?>
<!-- Created with Inkscape (http://www.inkscape.org/) -->

<svg
   xmlns:dc="http://purl.org/dc/elements/1.1/"
   xmlns:cc="http://creativecommons.org/ns#"
   xmlns:rdf="http://www.w3.org/1999/02/22-rdf-syntax-ns#"
   xmlns:svg="http://www.w3.org/2000/svg"
   xmlns="http://www.w3.org/2000/svg"
   xmlns:sodipodi="http://sodipodi.sourceforge.net/DTD/sodipodi-0.dtd"
   xmlns:inkscape="http://www.inkscape.org/namespaces/inkscape"
   width="180"
   height="120"
   id="svg3791"
   version="1.1"
   inkscape:version="0.48.3.1 r9886"
   sodipodi:docname="teenword-promo.svg">
  <defs
     id="defs3793" />
  <sodipodi:namedview
     id="base"
     pagecolor="#ffffff"
     bordercolor="#666666"
     borderopacity="1.0"
     inkscape:pageopacity="1"
     inkscape:pageshadow="2"
     inkscape:zoom="3.4938596"
     inkscape:cx="88.165548"
     inkscape:cy="58.198421"
     inkscape:document-units="px"
     inkscape:current-layer="layer1"
     showgrid="false"
     inkscape:window-width="1366"
     inkscape:window-height="739"
     inkscape:window-x="0"
     inkscape:window-y="0"
     inkscape:window-maximized="1" />
  <metadata
     id="metadata3796">
    <rdf:RDF>
      <cc:Work
         rdf:about="">
        <dc:format>image/svg+xml</dc:format>
        <dc:type
           rdf:resource="http://purl.org/dc/dcmitype/StillImage" />
        <dc:title></dc:title>
      </cc:Work>
    </rdf:RDF>
  </metadata>
  <g
     inkscape:label="Layer 1"
     inkscape:groupmode="layer"
     id="layer1"
     transform="translate(0,-932.36218)">
    <rect
       style="fill:#ffffff;fill-opacity:1;stroke:none"
       id="rect3844"
       width="180"
       height="120"
       x="0.40477115"
       y="932.95471" />
    <g
       id="g3835"
       transform="matrix(0.08211501,0,0,0.08211501,152.25692,876.44974)">
      <path
         style="fill:#ffb9f9;fill-opacity:0.80821922"
         d="m 64.687551,1160.1746 c -6.73742,-8.5932 -10.90359,-13.7696 -11.04442,-13.7227 -0.0858,0.029 -0.52394,0.6728 -0.97355,1.4314 -0.84794,1.4309 -1.12605,1.6206 -2.03954,1.3913 -0.49313,-0.1237 -1.00028,-1.0251 -0.86639,-1.5399 0.0529,-0.2033 0.52621,-1.1446 1.05187,-2.0918 l 0.95573,-1.7223 -0.37874,-0.5123 c -0.20831,-0.2816 -3.9137,-4.9022 -8.23421,-10.2677 -17.81141,-22.1195 -29.52121,-36.9054 -36.9948498,-46.7129 -1.32648,-1.7408 -9.80287,-10.004 -12.45014,-12.1371 -9.1325902,-7.3589 -18.8861302,-16.2009 -29.0024212,-26.292 -13.36612,-13.3328 -18.03555,-19.219 -28.0998,-35.4221 -1.46623,-2.3605 -2.94018,-4.4189 -5.06502,-7.0732 -9.568096,-11.95242 -15.144836,-19.25362 -21.768842,-28.50032 -3.443047,-4.8062 -10.361798,-15.1687 -13.107788,-19.632 -1.87849,-3.0533 -4.47912,-7.0644 -7.23723,-11.1625 -3.12966,-4.6502 -6.85247,-12.5031 -12.51319,-26.3954 -5.23392,-12.8448 -8.27275,-24.5571 -9.22078,-35.5388 -0.22855,-2.6474 -0.23421,-10.8128 -0.009,-13.28394 0.78039,-8.57127 3.17665,-16.89291 6.77857,-23.54043 4.63752,-8.55871 12.17549,-16.55612 21.42766,-22.73362 5.138907,-3.43117 12.232844,-7.29689 17.338114,-9.4481 2.84587,-1.19919 7.70562,-2.83184 10.26486,-3.44854 1.04373,-0.25149 2.94575,-0.71833 4.2267,-1.0374 6.736456,-1.678 12.034326,-2.27412 18.718256,-2.10619 6.43669,0.16174 12.30685,1.15456 20.124,3.4035 21.853361,6.28716 44.336111,19.97627 63.177951,38.46732 7.0423,6.91121 12.36357,13.20238 16.79989,19.86202 0.81349,1.2212 1.53861,2.22037 1.61136,2.22037 0.0728,0 0.22741,-0.29112 0.34368,-0.64695 0.51464,-1.57505 2.56017,-6.2664 4.04315,-9.27287 7.09114,-14.37594 17.53629,-27.53725 29.32708,-36.95319 11.24964,-8.9838 22.990979,-14.52614 35.366299,-16.69413 4.03129,-0.70622 5.66012,-0.83883 10.78242,-0.87784 4.15914,-0.0316 5.2225,-0.0937 6.90075,-0.40305 4.80793,-0.88606 12.32264,-1.1658 16.90787,-0.62943 7.38215,0.86357 14.57519,3.11957 22.85766,7.16897 16.11779,7.8802 28.33822,18.4604 36.50343,31.60394 5.27165,8.48575 8.6588,17.88058 10.32273,28.63196 0.18103,1.1697 0.63734,3.2136 1.01401,4.542 1.94175,6.848 3.14762,13.7749 3.67108,21.0878 0.30707,4.29 0.11154,15.6041 -0.34518,19.9717 -1.16812,11.1709 -2.88587,19.095 -6.59344,30.4157 -3.30214,10.0828 -6.90213,18.7458 -12.12993,29.1894 -12.46908,24.90952 -29.62645,50.44352 -56.18581,83.61722 -5.76062,7.1952 -14.80086,18.2912 -20.14386,24.7245 -7.41419,8.9272 -8.17497,9.8487 -11.25161,13.629 -9.14426,11.2355 -16.88814,21.1834 -22.725619,29.1935 -1.90157,2.6094 -2.22231,2.8949 -3.25136,2.8949 -1.30852,0 -2.34567,-0.8023 -2.56781,-1.9864 -0.14209,-0.7574 -0.026,-1.0701 0.89903,-2.421 0.42973,-0.6276 0.75524,-1.1651 0.7234,-1.1945 -0.0319,-0.029 -0.81773,-0.2876 -1.74642,-0.5738 l -1.68853,-0.5203 -8.66259,8.6837 c -4.76442,4.776 -8.93432,8.8442 -9.26642,9.0405 -0.78043,0.4612 -1.48518,0.4515 -2.26438,-0.031 -0.34403,-0.213 -2.54467,-2.1727 -4.89032,-4.3551 -2.34566,-2.1823 -4.32844,-3.9917 -4.40618,-4.0206 -0.21611,-0.081 -4.48335,6.7323 -4.48335,7.1578 0,0.1062 1.22587,1.7331 2.72414,3.6167 2.41667,3.0381 8.20876,10.4018 10.43704,13.2689 0.903,1.162 1.00302,1.685 0.45527,2.3814 -0.27487,0.3493 -0.51007,0.4545 -1.01705,0.4545 -0.65007,0 -0.69486,-0.045 -3.12804,-3.1485 z m -9.64389,-21.631 c 2.1606,-3.5352 2.51706,-4.1622 2.41475,-4.2469 -0.0473,-0.039 -2.57509,-2.3549 -5.61763,-5.1463 -3.04254,-2.7914 -6.80776,-6.2318 -8.36716,-7.6454 -2.99942,-2.719 -6.86993,-6.3432 -16.51823,-15.467 -3.25581,-3.0789 -6.24297,-5.8696 -6.63816,-6.2017 l -0.71853,-0.6038 0.59833,0.7763 c 1.01654,1.319 9.7064,12.2345 13.88563,17.442 15.53486,19.3571 19.11509,23.789 19.2121,23.7823 0.0604,0 0.8475,-1.2145 1.7489,-2.6895 z"
         id="path3014"
         inkscape:connector-curvature="0" />
      <path
         style="fill:#cfa6b3"
         d="m 67.060361,1162.9349 c -0.23314,-0.2134 -2.43362,-2.95 -4.88994,-6.0812 -7.17123,-9.1416 -8.37337,-10.6257 -8.55721,-10.5644 -0.0955,0.032 -0.47604,0.5975 -0.84555,1.2569 -1.04145,1.8588 -1.65497,2.2005 -2.4761,1.3794 -0.62573,-0.6257 -0.5298,-1.1892 0.52726,-3.0974 0.52084,-0.9402 0.947,-1.8073 0.947,-1.9267 0,-0.1196 -2.61575,-3.4649 -5.81278,-7.4341 -9.65323,-11.9847 -24.27418,-30.2565 -27.58638,-34.4746 -4.91812,-6.2633 -9.7090298,-12.4336 -11.1850798,-14.4053 -1.93517,-2.5852 -9.46472,-10.1364 -12.86445,-12.9015 -10.5124302,-8.5501 -20.8382502,-17.9495 -31.2474812,-28.4438 -11.68384,-11.7794 -16.61173,-18.0343 -25.59945,-32.4927 -2.39067,-3.8458 -3.28071,-5.0828 -7.07563,-9.8336 -17.399556,-21.78202 -28.014225,-36.86262 -39.58569,-56.24102 -2.81461,-4.7135 -8.31184,-15.2987 -10.61695,-20.4435 -7.19653,-16.0618 -10.93905,-28.7823 -12.33397,-41.922 -0.30533,-2.8762 -0.40841,-10.0855 -0.18623,-13.02515 0.90267,-11.94331 4.39715,-22.07536 10.60946,-30.76149 3.45851,-4.83574 8.64067,-10.06263 13.99999,-14.12079 7.36005,-5.57315 18.076199,-11.30606 26.208884,-14.02118 2.30235,-0.76865 3.63849,-1.1363 8.45856,-2.32745 14.749546,-3.64501 25.597826,-3.17396 41.922007,1.82035 19.88342,6.08324 40.7758202,18.76371 58.4838,35.49626 7.63028,7.20997 14.00051,14.53103 18.70685,21.49903 1.05746,1.56562 1.98105,2.86705 2.05244,2.89208 0.0714,0.0251 0.62213,-1.17827 1.22384,-2.67402 7.96826,-19.80754 22.34261,-37.85294 39.03114,-48.99927 13.310999,-8.89046 27.927019,-13.40411 41.668299,-12.86779 2.14719,0.0838 2.84217,0.0437 4.36521,-0.25182 4.04026,-0.78391 6.09967,-0.96403 11.12745,-0.9733 5.01377,-0.009 6.06221,0.0782 10.35112,0.86341 12.29827,2.25148 28.27887,10.32712 39.55524,19.9888 14.38956,12.32912 23.14514,28.00411 25.92941,46.42114 0.18647,1.23349 0.56858,3.02329 0.84914,3.97739 5.92516,20.149 5.48279,43.332 -1.27048,66.5827 -6.56111,22.5891 -18.50531,46.5235 -36.76195,73.66552 -13.4164,19.946 -28.36833,39.3272 -56.16487,72.8028 -13.3595,16.089 -24.48952,30.1907 -31.545999,39.9687 -1.38197,1.915 -1.82694,2.3514 -2.53275,2.4838 -1.35045,0.2533 -2.83847,-0.893 -2.83847,-2.1867 0,-0.7905 0.13478,-1.0881 1.06304,-2.3475 0.36417,-0.4941 0.66216,-0.9344 0.66216,-0.9785 0,-0.088 -3.31244,-1.1422 -3.58792,-1.1422 -0.0934,0 -3.88532,3.7363 -8.42644,8.3028 -4.54112,4.5666 -8.63232,8.6035 -9.09154,8.971 -0.66964,0.5358 -0.97705,0.6679 -1.55267,0.667 -0.40349,0 -0.92666,-0.1389 -1.19498,-0.3158 -0.26251,-0.1731 -2.39743,-2.0977 -4.74426,-4.277 -2.34684,-2.1792 -4.36022,-4.019 -4.47417,-4.0883 -0.23107,-0.1406 -0.60962,0.4119 -3.10399,4.531 -0.88703,1.4649 -1.59176,2.7228 -1.56606,2.7955 0.0256,0.073 1.28884,1.7021 2.807,3.6207 8.07626,10.2066 10.83348,13.7396 11.06337,14.1761 0.29288,0.5561 0.19139,1.0238 -0.32696,1.5067 -0.47967,0.4469 -1.04406,0.4292 -1.56627,-0.049 z m -13.33054,-22.1685 c 0.94564,-1.4699 3.90162,-6.2694 3.90162,-6.335 0,-0.073 -8.02867,-7.4856 -13.54271,-12.5038 -3.80113,-3.4593 -11.6173,-10.765 -18.18991,-17.002 -5.9655,-5.6609 -6.81658,-6.4424 -6.72448,-6.175 0.11848,0.344 8.92241,11.4181 23.01338,28.9474 3.96623,4.9341 8.06015,10.0384 9.09763,11.3432 1.03749,1.3046 1.91828,2.3721 1.9573,2.3721 0.039,0 0.25823,-0.2912 0.48717,-0.6469 z m 23.2979,-8.3453 c 3.66777,-3.7121 6.64267,-6.8274 6.61087,-6.9228 -0.0319,-0.095 -1.91772,-0.8535 -4.1909,-1.6847 -2.2732,-0.8311 -5.13582,-1.9081 -6.36139,-2.3931 -1.22556,-0.4851 -2.32249,-0.882 -2.43764,-0.882 -0.30088,0 -8.18669,11.1397 -8.18669,11.5648 0,0.2379 7.4004,7.0673 7.65821,7.0673 0.13134,0 3.23975,-3.0373 6.90754,-6.7495 z m -14.84554,-4.984 c 0.93869,-1.3746 2.58803,-3.7386 3.66517,-5.2532 1.07715,-1.5145 1.9012,-2.8091 1.83118,-2.8767 -0.07,-0.068 -1.33057,-0.6427 -2.8013,-1.278 -12.69181,-5.4822 -26.16006,-12.611 -39.04997,-20.6695 -1.02971,-0.6437 -1.8215,-1.0884 -1.75955,-0.9881 0.17565,0.2842 14.10286,13.3458 26.32022,24.6845 2.50484,2.3247 5.68338,5.2906 7.06339,6.5911 1.38002,1.3004 2.625,2.3475 2.76663,2.3268 0.14162,-0.02 1.02554,-1.1622 1.96423,-2.5369 z m 34.90319,-5.0871 c 6.268999,-8.4283 14.101389,-18.1818 32.131739,-40.0127 28.6603,-34.7014 46.65211,-58.7469 59.06546,-78.9389 6.10424,-9.92942 10.00558,-16.89072 14.40615,-25.70532 6.31582,-12.6509 10.38881,-22.8004 13.59136,-33.8682 3.23269,-11.172 4.85739,-20.9674 5.2333,-31.5521 0.18716,-5.2701 0.19358,-6.52 0.0335,-6.52 -0.0606,0 -0.2936,1.2228 -0.5181,2.7172 -1.59617,10.6252 -5.34203,24.5777 -9.99282,37.2209 -11.09438,30.1603 -31.3392,66.25382 -57.72072,102.90742 -18.75756,26.0611 -37.99664,50.0126 -55.825689,69.4997 -1.85375,2.0261 -3.62886,3.986 -3.9447,4.3552 l -0.57426,0.6713 0.488,0.1764 c 1.13501,0.4101 1.76784,0.7476 1.86204,0.9931 0.0553,0.144 0.12847,0.2313 0.16268,0.194 0.0342,-0.037 0.75513,-0.9994 1.60204,-2.138 z m -7.73039,-2.7326 c 20.360709,-22.0446 37.658229,-43.2031 56.367389,-68.9489 22.70212,-31.2407 39.37744,-58.70322 51.63361,-85.03532 12.69848,-27.2824 19.11188,-50.1496 20.2054,-72.0429 0.19534,-3.9109 0.021,-10.809 -0.35743,-14.1465 -0.39379,-3.4727 -4.02731,-12.4148 -7.95648,-19.58089 -11.09895,-20.24257 -25.64953,-33.57368 -42.15298,-38.62019 -1.87557,-0.57351 -3.92007,-1.07818 -4.00873,-0.98953 -0.0305,0.0307 0.82004,0.79532 1.89029,1.69939 5.1366,4.33902 10.82533,10.95059 15.4,17.89817 11.19957,17.00891 17.83705,35.55155 19.85401,55.46475 0.37477,3.7 0.52312,13.6231 0.26352,17.6258 -0.72067,11.1112 -2.81049,21.2486 -6.91135,33.5259 -9.64344,28.871 -28.38308,58.94812 -62.45292,100.23722 -1.83817,2.2277 -4.00808,4.8582 -4.82201,5.8456 -2.1082,2.5575 -10.52846,12.5604 -19.77397,23.4906 -16.290489,19.2589 -22.097009,26.2914 -28.479089,34.4918 -3.96696,5.0972 -4.42337,5.7058 -4.34099,5.7883 0.27125,0.2712 13.2991,5.0515 13.76392,5.0503 0.14232,0 0.98733,-0.7895 1.87781,-1.7536 z m -17.57701,-5.507 c 3.71442,-5.1196 16.23963,-20.5726 25.62285,-31.6122 1.04845,-1.2336 3.388869,-3.9979 5.200979,-6.1431 1.81209,-2.1451 5.45951,-6.4538 8.10533,-9.5747 12.03808,-14.2 18.15187,-21.563 25.43245,-30.6291 38.93713,-48.48652 57.29743,-83.97002 61.13428,-118.14962 0.96849,-8.6274 0.76924,-19.5783 -0.51791,-28.4656 -2.84094,-19.61587 -10.74057,-38.34355 -22.74091,-53.91205 -4.04232,-5.24426 -9.17796,-10.3509 -14.16634,-14.08634 -3.12787,-2.34224 -3.26155,-2.41539 -4.71979,-2.58276 -2.15677,-0.24753 -8.82723,-0.18617 -11.75573,0.10817 -16.05271,1.6133 -32.51601,8.54529 -49.223619,20.72598 -7.82724,5.70645 -13.92155,10.93922 -21.26754,18.26102 -5.25091,5.23363 -7.05006,7.17196 -11.02386,11.87678 -2.01348,2.38388 -2.88633,3.58314 -3.93301,5.4039 -1.7105,2.9753 -4.08911,7.661 -4.08911,8.0551 0,0.1659 0.12205,0.5378 0.27125,0.8263 0.47911,0.9265 1.89352,4.9969 2.5394,7.3079 1.39483,4.9908 1.88588,8.6113 1.87185,13.8015 -0.0125,4.6277 -0.30507,7.1438 -0.90489,7.7823 -0.54494,0.58 -1.6117,0.526 -2.07722,-0.1052 -0.30229,-0.4099 -0.30527,-0.5336 -0.0603,-2.495 0.464,-3.7161 0.32412,-8.6766 -0.36262,-12.8592 -0.51883,-3.1599 -2.60339,-10.5236 -2.97909,-10.5236 -0.1369,0 -0.13024,-0.016 -1.56688,3.7027 -2.44909,6.3389 -4.24511,13.3787 -5.09191,19.9585 -0.22867,1.7768 -0.22929,2.2872 -0.005,4.3992 0.13934,1.314 0.20597,2.646 0.14803,2.9599 -0.14402,0.7804 -1.03882,1.6825 -1.89858,1.914 -1.81463,0.4886 -2.9911,-0.6294 -2.99412,-2.8455 0,-0.3882 -0.11657,-1.0869 -0.25788,-1.5527 -0.14129,-0.4657 -0.25775,-1.3636 -0.25878,-1.9953 -0.002,-1.2077 -0.76368,-5.5366 -1.4372,-8.1676 l -0.39749,-1.5526 -0.89691,-0.1108 c -1.05459,-0.1302 -1.64547,-0.4765 -2.10852,-1.2356 -0.63973,-1.0488 -0.61577,-1.5416 0.15284,-3.1434 l 0.70234,-1.4637 -0.78416,-1.8538 c -4.95379,-11.7108 -14.60514,-26.40727 -25.6890898,-39.11778 -3.01456,-3.45695 -10.97239,-11.46529 -14.08414,-14.17354 -12.5815702,-10.95016 -25.2869702,-18.5679 -38.0250412,-22.79865 -6.77937,-2.25168 -12.24406,-3.18509 -18.78913,-3.20931 -5.5029,-0.0203 -9.15837,0.51344 -13.591426,1.9848 -12.45872,4.13511 -22.694869,13.29894 -27.884754,24.96359 -3.86572,8.68846 -5.7046,18.16036 -5.70679,29.39524 -8.7e-4,4.00495 0.0412,4.65995 0.43696,6.81445 2.46774,13.4349 8.275061,30.6686 16.470541,48.8774 2.877473,6.3932 7.699223,16.2239 10.830933,22.0824 19.360486,36.2174 42.668766,72.04382 75.2561472,115.67372 4.11621,5.5111 4.13161,5.5269 8.96912,9.2441 20.7270898,15.927 41.5799498,28.2482 65.0394998,38.4296 1.09119,0.4736 2.06161,0.8653 2.1565,0.8706 0.0948,0.01 0.52187,-0.4718 0.94885,-1.0604 z m -88.87402,-58.6545 c -0.21751,-0.3084 -1.99358,-2.7733 -3.94682,-5.4775 -20.246221,-28.0306 -37.002521,-53.61842 -51.008017,-77.89212 -14.59798,-25.3007 -24.505046,-45.9635 -31.183574,-65.0386 -0.73069,-2.087 -1.37034,-3.8338 -1.42146,-3.8817 -0.27388,-0.2569 1.79523,7.9726 3.49153,13.8868 7.306102,25.4731 18.295564,51.1204 33.85597,79.0135 2.8013,5.02162 5.90805,10.40402 6.46685,11.20382 1.66661,2.3854 14.46448,17.0875 23.06038,26.4916 5.994401,6.558 20.804961,22.2549 20.998261,22.2549 0.0454,0 -0.0956,-0.2523 -0.31312,-0.5607 z m -64.300327,-75.30442 c -5.7161,-11.4089 -12.901902,-27.9125 -17.466035,-40.1141 -9.055649,-24.2093 -13.326019,-42.9551 -14.146789,-62.1006 -0.20461,-4.77298 -0.0675,-9.97091 0.36258,-13.74149 0.0877,-0.76914 0.20462,-2.50498 0.25976,-3.8574 0.31613,-7.75257 1.46059,-13.93242 3.64418,-19.67791 0.86165,-2.26718 3.16225,-6.85475 4.29904,-8.57258 1.42905,-2.1595 1.44366,-2.20347 0.50986,-1.53404 -1.76217,1.2633 -4.40369,3.47242 -6.29305,5.26291 -9.18069,8.70031 -14.17294,17.69882 -16.45133,29.65348 -0.76848,4.0321 -0.88941,5.67217 -0.88412,11.99003 0.004,4.645 0.072,6.4822 0.31027,8.3672 0.92277,7.3003 2.36402,13.6792 4.83337,21.3923 5.40373,16.8785 14.72813,34.9644 29.529377,57.2761 4.364197,6.5787 12.168407,17.6832 12.427697,17.6832 0.0444,0 -0.37622,-0.9122 -0.93481,-2.0271 z m 124.962927,-83.5374 c 0.32401,-1.0886 0.56613,-2.0023 0.53805,-2.0303 -0.0609,-0.061 -1.93262,3.0177 -2.09285,3.4424 -0.0613,0.1626 0.0264,0.706 0.19468,1.2077 l 0.30619,0.9121 0.23243,-0.7763 c 0.12782,-0.427 0.49751,-1.667 0.8215,-2.7556 z m -3.1689,-5.5685 c 0.31436,-0.4981 1.36112,-2.1164 2.32612,-3.5961 l 1.75454,-2.6904 0.88227,-3.1752 c 0.48524,-1.7464 1.02951,-3.641 1.20948,-4.2104 0.32465,-1.0269 0.32446,-1.0405 -0.0243,-1.7251 -0.59704,-1.17209 -3.78849,-5.92087 -5.58214,-8.30603 -10.6258,-14.1301 -26.79489,-28.41114 -43.3686498,-38.30457 C -15.856659,821.00808 -30.567549,815.04306 -43.179,812.5046 c -1.69326,-0.34081 -3.16211,-0.59185 -3.26411,-0.55785 -0.10196,0.034 0.80238,0.31629 2.00974,0.62731 16.691361,4.29983 34.390361,15.16601 50.4567012,30.97756 10.1232998,9.96275 18.5529398,20.53719 25.3115698,31.75166 2.15492,3.5756 5.95703,11.0243 7.32918,14.3584 0.51653,1.2552 0.9893,2.2838 1.05058,2.2859 0.0613,0 0.3686,-0.4038 0.68298,-0.902 z m 12.67413,-18.07868 c 2.64257,-3.37054 3.58874,-4.70979 6.0789,-8.60433 3.09172,-4.83536 7.7721,-11.09412 11.94416,-15.97217 13.89973,-16.25178 31.319849,-29.25729 48.423279,-36.15178 1.25482,-0.50585 2.25352,-0.94769 2.21932,-0.98188 -0.11712,-0.11713 -3.12003,0.33343 -5.54545,0.83204 -8.38103,1.72297 -15.88555,4.83713 -24.401859,10.1261 -9.4404,5.86286 -18.92359,14.67286 -26.1329,24.27782 -2.1683,2.88881 -5.73755,8.23842 -7.25158,10.86867 -1.95496,3.39631 -4.99198,9.67789 -6.50276,13.44991 -1.70164,4.2486 -2.04211,5.4409 -1.55369,5.4409 0.0807,0 1.30593,-1.4784 2.72258,-3.28528 z m 41.59928,-39.60497 c 12.237319,-8.3267 23.656419,-13.7382 35.763229,-16.94811 4.17153,-1.10601 9.81907,-2.09152 13.59492,-2.37239 0.88267,-0.0656 1.54254,-0.17844 1.4664,-0.25062 -0.21364,-0.20253 -3.79626,-1.29335 -5.07318,-1.54464 -1.04518,-0.2057 -1.36755,-0.18615 -3.90177,0.23644 -12.80638,2.1355 -25.81827,8.12498 -38.778629,17.85015 -2.1747,1.63184 -5.25274,4.10468 -6.44851,5.18064 -0.61234,0.55097 -0.32636,0.36881 3.37754,-2.15147 z m 70.208719,-18.03111 c -0.57453,-0.33401 -4.26715,-1.52849 -6.30625,-2.03995 -2.82014,-0.70734 -4.48106,-0.99891 -7.46396,-1.31031 -2.43217,-0.2539 -3.22294,-0.24385 -2.45613,0.0312 0.17964,0.0645 1.16639,0.48923 2.19277,0.944 1.78624,0.79146 1.9673,0.83489 4.22671,1.01413 2.85111,0.22616 5.53413,0.606 7.96738,1.12792 2.14216,0.45949 2.25322,0.47357 1.83948,0.23302 z"
         id="path3012"
         inkscape:connector-curvature="0" />
      <path
         style="fill:#ab939b"
         d="m 66.487281,1162.1533 c -0.45854,-0.559 -3.50315,-4.4062 -6.76578,-8.5492 -3.26266,-4.1431 -5.99926,-7.5329 -6.08134,-7.5329 -0.0821,0 -0.36275,0.3948 -0.62365,0.8773 -0.90373,1.6711 -1.38241,2.2281 -1.91511,2.2281 -0.52817,0 -0.94808,-0.3681 -1.14087,-1.0002 -0.0918,-0.301 0.1318,-0.8533 0.92844,-2.2934 0.57714,-1.0433 1.04935,-1.9444 1.04935,-2.0023 0,-0.057 -1.72188,-2.2478 -3.82641,-4.8662 -2.10454,-2.6184 -7.91328,-9.8457 -12.90829,-16.0607 -12.34742,-15.3631 -18.50404,-23.158 -28.4102998,-35.9702 -2.16897,-2.8052 -9.6442,-10.1127 -13.85634,-13.5454 C -20.264039,1062.68 -36.68966,1047.1234 -45.67722,1036.867 c -6.7141,-7.662 -10.61367,-13.0946 -17.89419,-24.9289 -1.28772,-2.0932 -2.84883,-4.1989 -6.45908,-8.7122 -15.628686,-19.53832 -25.082144,-32.77652 -35.35722,-49.51292 -14.6756,-23.9041 -23.54292,-45.7147 -26.12674,-64.2632 -0.70906,-5.0901 -0.84409,-7.4883 -0.75336,-13.3802 0.0918,-5.96014 0.27427,-7.7985 1.25777,-12.67006 1.07231,-5.3114 2.41116,-9.24498 4.81501,-14.14653 3.8297,-7.80895 9.44216,-14.55928 17.37856,-20.90193 6.8346,-5.4621 17.951087,-11.60062 26.362834,-14.55751 5.41799,-1.90455 14.590046,-4.0252 20.270916,-4.68678 2.52416,-0.29396 11.32777,-0.29402 13.71523,-1.3e-4 14.59537,1.7968 31.182131,7.89126 46.5800212,17.11486 19.3544398,11.59367 38.2860798,29.00663 48.5326598,44.63945 0.76186,1.16234 1.4437,2.11335 1.51519,2.11335 0.0715,0 0.3631,-0.60166 0.64802,-1.33702 7.94432,-20.50424 22.5929,-39.14909 39.71159,-50.54529 9.21397,-6.13393 19.070159,-10.20751 28.671949,-11.85017 4.20827,-0.71996 5.75592,-0.8464 10.8271,-0.88455 4.12092,-0.0311 5.25187,-0.0961 6.98699,-0.4016 3.78413,-0.66645 6.39046,-0.88347 10.60989,-0.88347 5.62593,0 9.2367,0.45646 14.45422,1.82727 8.0959,2.12703 18.00791,6.76237 26.51895,12.40154 9.65999,6.40043 17.71807,14.38518 23.59499,23.38024 5.62879,8.61531 9.36489,18.48641 11.00245,29.06939 0.20556,1.32844 0.67446,3.50214 1.04201,4.83054 2.90546,10.5008 3.95423,18.2743 3.95286,29.2986 0,5.7431 -0.12283,8.336 -0.61893,13.141 -2.9173,28.2538 -16.27073,59.7764 -40.96215,96.69662 -13.33719,19.9427 -28.29418,39.3506 -56.83771,73.7517 -13.22291,15.9365 -23.61773,29.0942 -31.014209,39.2577 -1.05274,1.4465 -2.0192,2.5984 -2.27965,2.7171 -1.14814,0.5232 -2.57589,0.013 -3.10912,-1.1105 -0.40169,-0.8465 -0.24686,-1.4611 0.72321,-2.8708 0.48602,-0.7063 0.74057,-1.2288 0.64376,-1.3213 -0.088,-0.084 -0.92423,-0.3902 -1.85809,-0.68 l -1.69796,-0.5269 -8.65316,8.6833 c -4.75924,4.7758 -8.92488,8.8484 -9.25697,9.0502 -0.74516,0.4529 -1.47787,0.4676 -2.15649,0.043 -0.28466,-0.1779 -2.49385,-2.1572 -4.90935,-4.3985 -2.41547,-2.2413 -4.48451,-4.0751 -4.59782,-4.0751 -0.11333,0 -0.35856,0.2522 -0.54497,0.5607 -0.1864,0.3083 -1.1645,1.9155 -2.17353,3.5714 -1.00903,1.656 -1.8346,3.1167 -1.8346,3.2459 0,0.1293 2.31293,3.1608 5.13984,6.7366 8.37045,10.5878 8.66359,10.9686 8.77777,11.4061 0.17843,0.6836 -0.2789,1.2969 -1.013,1.3586 -0.5797,0.049 -0.69053,-0.024 -1.46099,-0.9638 z m -10.94624,-24.128 c 1.14973,-1.8633 2.0904,-3.4812 2.0904,-3.5953 0,-0.1865 -1.33162,-1.4361 -9.7473,-9.147 -1.32838,-1.2171 -3.73476,-3.423 -5.34748,-4.902 -3.70368,-3.3965 -15.60661,-14.5528 -20.30903,-19.0352 -1.966,-1.874 -3.61852,-3.4072 -3.67229,-3.4072 -0.0537,0 -0.0233,0.1358 0.0676,0.3019 0.22568,0.4122 8.93196,11.3774 17.499,22.0392 3.88838,4.8392 9.29009,11.5725 12.00381,14.9629 2.71372,3.3904 5.022,6.1658 5.12949,6.1675 0.1075,0 1.13616,-1.5214 2.28587,-3.3848 z m 21.66373,-5.6036 c 3.76745,-3.8067 6.78541,-6.9847 6.70658,-7.0622 -0.0788,-0.078 -1.38547,-0.5811 -2.90363,-1.1191 -1.51817,-0.538 -4.45462,-1.6359 -6.52547,-2.4398 -2.07084,-0.8039 -3.86277,-1.4242 -3.98209,-1.3784 -0.44515,0.1708 -8.2632,11.4023 -8.17681,11.7468 0.0874,0.3487 7.45004,7.154 7.75107,7.1643 0.15423,0 3.36289,-3.1048 7.13035,-6.9116 z m -15.40539,-4.163 c 0.77792,-1.1623 2.45083,-3.5684 3.71753,-5.3469 1.26669,-1.7785 2.34387,-3.3399 2.39371,-3.4698 0.0647,-0.1686 -0.68988,-0.5704 -2.63587,-1.4037 -12.43851,-5.3264 -26.43245,-12.7017 -38.78291,-20.4401 -3.76694,-2.3602 -3.43649,-2.1708 -3.25653,-1.8668 0.24345,0.4113 12.96946,12.3687 27.4954,25.8348 4.03262,3.7385 7.81054,7.2491 8.39533,7.8015 0.58482,0.5524 1.10733,1.0044 1.16111,1.0044 0.0537,0 0.73429,-0.951 1.51223,-2.1134 z m 36.13091,-6.7713 c 6.845579,-9.0967 13.165369,-16.9651 30.345599,-37.7816 19.07846,-23.1165 31.04226,-38.3017 41.27051,-52.3831 30.12892,-41.47892 46.7177,-76.10992 51.01833,-106.50652 0.63595,-4.4949 0.93749,-7.9004 1.1151,-12.5939 0.13889,-3.67 0.0831,-8.3183 -0.0978,-8.1375 -0.0364,0.036 -0.25945,1.3978 -0.49577,3.0254 -4.55924,31.4026 -20.62951,68.9658 -47.83651,111.81492 -20.85201,32.8403 -52.39786,73.8368 -78.222479,101.6565 -1.21112,1.3047 -2.20201,2.4458 -2.20201,2.5359 0,0.09 0.42667,0.2982 0.94818,0.4626 0.52148,0.1644 1.11824,0.4799 1.32611,0.7011 0.20785,0.2213 0.43323,0.3431 0.50081,0.2706 0.0676,-0.072 1.11607,-1.4514 2.32994,-3.0644 z m -5.93467,-4.5286 c 20.093059,-21.8787 38.629699,-44.8666 57.750989,-71.619 19.73747,-27.6145 34.43111,-51.89082 46.06067,-76.10012 13.26276,-27.6091 20.24439,-51.095 21.76331,-73.2112 0.23481,-3.4189 0.11759,-13.6015 -0.1878,-16.3115 -0.4768,-4.2316 -4.79391,-14.51618 -9.42022,-22.44187 -9.51973,-16.30887 -21.02848,-27.65187 -34.05359,-33.56316 -3.53983,-1.60651 -8.58648,-3.31284 -10.7544,-3.63619 -0.85823,-0.12801 -0.90918,-0.18996 1.43838,1.74867 2.1576,1.78173 6.7375,6.39407 8.82034,8.88281 11.32954,13.53747 20.3542,32.14295 24.38703,50.27694 1.90183,8.5517 2.70499,15.9207 2.709,24.8549 0.004,8.81 -0.75988,16.1164 -2.53702,24.268 -6.1838,28.3645 -20.67974,56.4162 -47.50195,91.92332 -9.94873,13.1701 -18.99941,24.2913 -39.10121,48.0464 -19.319489,22.8307 -25.925309,30.7889 -32.363439,38.9892 -4.34403,5.5331 -5.55312,7.1783 -5.39163,7.3363 0.32674,0.3196 13.2862,5.1076 13.96006,5.1577 0.10074,0.01 2.09045,-2.0631 4.42148,-4.6012 z m -18.22671,-5.2187 c 7.11457,-9.2671 13.84038,-17.4327 33.464649,-40.6282 17.14015,-20.2593 22.89325,-27.1724 29.86238,-35.8838 20.35037,-25.4379 35.30209,-47.87872 44.82842,-67.28232 9.79504,-19.9509 14.92495,-37.9461 15.98352,-56.0685 0.21895,-3.7483 0.12043,-11.7042 -0.18797,-15.1817 -1.62444,-18.3161 -7.02096,-35.0477 -16.25706,-50.40417 -6.51711,-10.83573 -13.50388,-18.87122 -21.83974,-25.11787 -3.32381,-2.49079 -3.04266,-2.40674 -8.36798,-2.50153 -3.34231,-0.0595 -5.25849,-0.009 -7.36439,0.19304 -15.74512,1.51267 -31.7785,8.01297 -47.873899,19.40917 -12.54071,8.87935 -24.27294,19.71994 -34.74118,32.10089 -2.32793,2.75328 -3.50846,4.64547 -6.09914,9.77587 l -1.57677,3.1225 0.87597,2.2256 c 3.40833,8.6596 4.64132,17.2198 3.65035,25.3431 -0.10419,0.8539 -0.30097,1.7308 -0.43731,1.9485 -0.32705,0.5223 -0.9761,0.7612 -1.51323,0.557 -0.76855,-0.2922 -0.82428,-0.6529 -0.51384,-3.3254 0.52498,-4.5196 0.15071,-10.4508 -0.96069,-15.2244 -0.7487,-3.2157 -2.29299,-8.0221 -2.57747,-8.0221 -0.14307,0 -1.26737,2.7467 -2.29509,5.6069 -2.2243,6.1903 -3.87677,13.0035 -4.49811,18.5457 -0.18714,1.6693 -0.1825,2.3842 0.0293,4.5071 0.24306,2.4366 0.24003,2.5461 -0.0882,3.1916 -0.72099,1.4176 -2.67816,1.8403 -3.71593,0.8025 -0.43758,-0.4376 -0.51648,-0.6847 -0.67672,-2.1199 -0.0998,-0.8935 -0.25286,-1.7581 -0.34023,-1.9213 -0.0874,-0.1633 -0.15885,-0.8318 -0.15885,-1.4857 0,-1.5851 -0.98294,-6.9257 -1.76196,-9.5731 -0.18499,-0.6287 -0.21326,-0.647 -1.00013,-0.647 -0.97672,0 -1.80066,-0.5007 -2.26654,-1.3774 -0.4632,-0.8717 -0.39661,-1.5305 0.28437,-2.8137 0.33209,-0.6258 0.60381,-1.294 0.60381,-1.4847 0,-0.8855 -3.43628,-8.1106 -5.99788,-12.6111 -5.42443,-9.5303 -12.51693,-19.45733 -20.16065,-28.21784 C 6.9622812,853.6038 0.66806119,847.19408 -2.8757988,843.9836 -19.938419,828.52611 -38.68508,818.92669 -55.79942,816.8835 c -2.41538,-0.28836 -8.81637,-0.28665 -10.95493,0.003 -8.398956,1.13729 -16.298496,4.57916 -23.117493,10.07239 -2.230593,1.79693 -5.877501,5.53302 -7.536403,7.72071 -5.755894,7.59066 -9.325644,17.50409 -10.693384,29.69632 -0.21855,1.94818 -0.29941,4.14891 -0.30643,8.33969 l -0.01,5.69307 0.57195,2.7603 c 3.21736,15.5277 9.163608,32.4693 18.316834,52.1869 1.790196,3.8564 7.202186,14.6358 9.571056,19.0633 15.22579,28.4575 33.60892,57.59942 56.916641,90.22722 8.03795,11.2522 20.2863302,27.8697 21.4743402,29.1345 0.80827999,0.8606 3.701,3.172 8.04656,6.4297 19.6995798,14.768 39.6507098,26.4617 60.6402898,35.5423 2.04003,0.8826 3.75969,1.5865 3.82146,1.5643 0.0618,-0.022 1.33412,-1.6319 2.82748,-3.5771 z m -89.5665,-54.7316 c -0.071,-0.1186 -1.25442,-1.7683 -2.62991,-3.666 -8.11153,-11.1912 -13.7319,-19.1651 -21.097411,-29.9319 -11.07312,-16.1868 -23.94292,-36.63192 -32.959156,-52.35942 -15.04584,-26.2454 -24.141604,-45.4409 -31.371154,-66.2048 -0.78477,-2.254 -1.44954,-4.0754 -1.47726,-4.0477 -0.16656,0.1665 1.74956,8.1463 3.30793,13.7759 7.696822,27.8052 19.940014,56.0472 37.90772,87.44362 2.87386,5.0218 3.19155,5.4894 5.97638,8.7976 11.24223,13.3551 24.21767,27.6711 38.270771,42.2248 2.22182,2.301 4.076,4.1836 4.12038,4.1836 0.0444,0 0.0226,-0.097 -0.0484,-0.2157 z m -65.202207,-76.40722 c -8.21309,-16.3966 -16.359079,-35.859 -21.651914,-51.7309 -6.28268,-18.8402 -9.39375,-34.0771 -10.17998,-49.8579 -0.20407,-4.0959 -0.11307,-10.39946 0.19177,-13.28396 0.0853,-0.80652 0.27175,-3.48487 0.41449,-5.95189 0.28889,-4.99306 0.58772,-7.58564 1.2428,-10.78242 1.35123,-6.59401 3.73005,-12.42432 7.16982,-17.5727 0.65677,-0.98299 1.1621,-1.81926 1.12298,-1.85838 -0.0392,-0.0391 -0.76165,0.44825 -1.60561,1.08306 -7.8006,5.86742 -13.60844,12.44643 -17.35252,19.65661 -2.04797,3.94386 -3.3363,7.3542 -4.42621,11.71657 -1.13722,4.5517 -1.57411,8.03106 -1.70054,13.54271 -0.15884,6.925 0.46731,12.9658 2.11136,20.3697 4.35741,19.6232 14.36223,40.8573 31.612482,67.0937 5.064902,7.7034 14.089402,20.5138 14.301702,20.3015 0.042,-0.042 -0.52075,-1.2686 -1.25063,-2.7257 z m 123.875167,-81.1885 c 0.15262,-0.5456 0.58949,-1.9881 0.9708,-3.2056 0.38131,-1.2175 0.66576,-2.2962 0.63208,-2.3972 -0.0336,-0.101 -0.66394,0.83 -1.40063,2.0689 -1.33679,2.2482 -1.33901,2.254 -1.14369,2.9794 0.24785,0.9205 0.48491,1.5465 0.58564,1.5465 0.043,0 0.20316,-0.4464 0.3558,-0.992 z m -2.40084,-8.1946 c 0.36386,-0.5931 1.45675,-2.2976 2.42869,-3.7879 1.73455,-2.6597 1.77832,-2.752 2.37288,-5.0031 0.33314,-1.2613 0.87314,-3.1706 1.2,-4.2429 l 0.59431,-1.9495 -1.11926,-1.84586 C 36.859881,859.3955 18.945091,842.17729 0.35527119,830.56597 -14.572279,821.24214 -31.682029,814.24527 -45.01712,812.01136 c -4.55575,-0.76318 -4.8086,-0.68226 -0.94885,0.30368 11.07427,2.82881 21.047271,7.42655 31.556281,14.54803 11.0735002,7.504 21.9380502,17.46404 31.66841,29.03189 9.2135,10.9534 17.25602,23.82882 21.57943,34.54682 0.41145,1.02 0.7991,1.8546 0.86148,1.8546 0.0624,0 0.41106,-0.4852 0.7749,-1.0782 z m 11.11876,-16.1336 c 0.61676,-0.82394 1.93013,-2.50918 2.9186,-3.745 0.98846,-1.23583 2.59326,-3.50721 3.56618,-5.04752 4.29118,-6.79361 8.81876,-12.84352 14.62376,-19.54058 2.62828,-3.03221 10.71316,-11.01246 13.99901,-13.81783 10.99634,-9.38848 22.196309,-16.35113 33.438209,-20.7874 1.34512,-0.53081 2.48445,-1.00729 2.53191,-1.05885 0.1413,-0.15358 -2.38763,0.11014 -4.41113,0.46004 -11.40552,1.97205 -22.169139,6.87298 -33.058389,15.05233 -6.94317,5.21527 -14.40739,12.75281 -19.84871,20.04361 -5.98129,8.01431 -10.92616,17.03142 -14.45467,26.35852 -0.87928,2.32418 -1.02648,2.86188 -0.87474,3.19488 0.10027,0.2202 0.24232,0.3971 0.31553,0.3931 0.0732,0 0.63769,-0.6814 1.25444,-1.5053 z m 44.0785,-42.20499 c 13.766279,-9.22295 26.635149,-14.85346 40.024319,-17.51183 2.71583,-0.53922 7.64746,-1.21377 9.02474,-1.23444 0.44486,-0.007 0.96408,-0.0757 1.15385,-0.15351 0.32819,-0.13448 0.32398,-0.14972 -0.0863,-0.31221 -0.63908,-0.25311 -3.71961,-1.18413 -4.97993,-1.50505 -1.24115,-0.31604 -1.7824,-0.27895 -5.37118,0.36809 -9.90476,1.78573 -20.19909,6.04469 -30.48898,12.61385 -4.63913,2.96165 -9.846279,6.84885 -13.971889,10.43015 -2.20156,1.91109 -2.4098,2.21861 -0.64172,0.94754 0.75302,-0.54131 3.1547,-2.18048 5.33705,-3.64259 z m 70.990089,-16.99935 c -0.14305,-0.0838 -1.11347,-0.47333 -2.15647,-0.86549 -4.07809,-1.53334 -7.96504,-2.51405 -11.90247,-3.00308 -4.63506,-0.57567 -5.73767,-0.53223 -3.9248,0.15468 0.4507,0.17075 1.52542,0.63697 2.38824,1.03601 1.38757,0.64169 1.76623,0.73907 3.27786,0.84286 3.61487,0.24817 7.76287,0.89456 11.11132,1.73145 1.17122,0.29274 1.59049,0.32873 1.20632,0.10363 z"
         id="path3010"
         inkscape:connector-curvature="0" />
      <path
         style="fill:#9a7a85"
         d="m 67.265601,1162.9422 c -0.15695,-0.1225 -2.32506,-2.8236 -4.81803,-6.0023 -5.36237,-6.8373 -8.53933,-10.8037 -8.76536,-10.9433 -0.0899,-0.055 -0.56133,0.5943 -1.04762,1.444 -0.98004,1.7126 -1.34122,1.965 -2.05401,1.4353 -0.74485,-0.5536 -0.67386,-1.0913 0.39591,-2.999 0.52901,-0.9433 0.96183,-1.8295 0.96183,-1.9693 0,-0.1396 -2.73414,-3.6498 -6.0759,-7.8004 -18.38744,-22.838 -28.58768,-35.6739 -36.6942698,-46.176 -3.68132,-4.7691 -4.04857,-5.1831 -8.35877001,-9.4211 -2.80828999,-2.7613 -5.64673999,-5.357 -7.52736999,-6.8838 -9.2026502,-7.4711 -18.7767902,-16.1847 -28.9106612,-26.3119 -12.78914,-12.7809 -17.88997,-19.2487 -27.69557,-35.1176 -1.56215,-2.5281 -2.85084,-4.2854 -6.19907,-8.4534 -18.930946,-23.56572 -32.40603,-43.11102 -42.66877,-61.89022 -10.15789,-18.5872 -16.33723,-34.9429 -18.90782,-50.0457 -1.40162,-8.2349 -1.58358,-17.091 -0.50569,-24.61254 1.52175,-10.61871 5.49253,-20.0145 11.81121,-27.94802 2.07721,-2.60809 7.78323,-8.26274 10.60033,-10.50488 8.64172,-6.87806 21.239784,-13.49037 30.708314,-16.11778 8.280476,-2.29774 13.330696,-3.24761 19.494586,-3.66666 15.42192,-1.04849 36.247421,5.12935 55.6852312,16.51885 19.9305998,11.67826 39.0135098,29.02942 49.7718298,45.25511 0.84932,1.28095 1.61419,2.329 1.69969,2.329 0.0855,0 0.68729,-1.31976 1.33728,-2.93281 4.33708,-10.76305 10.33349,-20.69129 18.23443,-30.19076 2.38365,-2.86591 9.86375,-10.35598 12.66232,-12.67922 11.77559,-9.77547 24.433989,-15.89333 37.268269,-18.01187 4.18569,-0.69093 6.14783,-0.84121 10.7824,-0.82569 3.5326,0.012 4.62512,-0.0441 6.03815,-0.30893 4.10923,-0.77017 6.23148,-0.95179 11.12745,-0.95232 6.25291,0 9.7499,0.4806 15.68919,2.15914 10.20442,2.88393 22.71889,9.51834 31.98316,16.95552 15.58435,12.51079 25.08147,28.92224 27.97363,48.33956 0.15545,1.0438 0.50656,2.6741 0.78025,3.6229 2.70286,9.3711 3.89763,17.4195 4.08478,27.5167 0.32048,17.2915 -2.77406,33.7229 -9.96189,52.8958 -7.52876,20.0823 -20.34967,43.18892 -37.65682,67.86732 -11.71531,16.7049 -26.24776,35.2981 -49.62149,63.4868 -13.36953,16.1237 -20.7738,25.4078 -28.34298,35.5389 -5.821919,7.7924 -5.827909,7.7998 -6.390749,7.9845 -0.753,0.2471 -1.66909,-0.011 -2.30747,-0.6489 -0.46554,-0.4655 -0.57295,-0.7077 -0.57295,-1.2916 0,-0.8228 0.13563,-1.1197 1.08994,-2.3859 0.40737,-0.5405 0.62484,-0.9761 0.5325,-1.0667 -0.16548,-0.1624 -3.33593,-1.2113 -3.66126,-1.2113 -0.10539,0 -4.13433,3.9563 -8.95312,8.7918 -5.91678,5.9374 -8.96391,8.8756 -9.38501,9.0498 -1.17532,0.4862 -1.46957,0.2877 -6.53888,-4.41 -3.8414,-3.5598 -4.7083,-4.2862 -4.91307,-4.1163 -0.25115,0.2085 -3.01603,4.5998 -4.04319,6.4218 -0.33167,0.5882 -0.50247,1.0758 -0.42299,1.2075 0.0733,0.1215 1.18967,1.5408 2.4808,3.1538 5.02401,6.2767 11.22495,14.2399 11.41731,14.662 0.39397,0.8647 -0.86004,1.8461 -1.61001,1.2601 z m -13.1668,-22.4346 c 0.36128,-0.5931 1.34902,-2.1893 2.19496,-3.5474 1.36451,-2.1904 1.51219,-2.5049 1.30852,-2.7868 -0.12629,-0.1747 -4.07247,-3.8327 -8.76929,-8.1287 -9.78979,-8.9545 -17.64163,-16.28 -27.68922,-25.8333 -1.61305,-1.5337 -2.99633,-2.7889 -3.07396,-2.7895 -0.0776,0 0.0352,0.2514 0.2506,0.5598 0.58528,0.8377 7.95879,10.1284 15.84851,19.9692 3.84285,4.7932 9.316,11.6218 12.16256,15.1746 6.33623,7.9084 6.79079,8.4603 6.96876,8.4603 0.0779,0 0.4373,-0.4852 0.79856,-1.0782 z m 23.07038,-7.916 c 3.77169,-3.8135 6.85761,-7.0275 6.85761,-7.1423 0,-0.1147 -1.45562,-0.732 -3.23472,-1.3717 -1.7791,-0.6396 -4.81749,-1.7753 -6.75198,-2.5236 -1.93448,-0.7483 -3.54138,-1.3605 -3.57086,-1.3605 -0.16298,0 -8.35229,11.7251 -8.35229,11.9585 0,0.1696 7.81464,7.3636 8.00418,7.3684 0.10473,0 3.27636,-3.1153 7.04806,-6.9288 z m -15.05224,-4.6615 c 0.90139,-1.3359 2.61985,-3.7979 3.81878,-5.471 1.64554,-2.2963 2.13184,-3.0919 1.98396,-3.2456 -0.10772,-0.112 -1.36509,-0.7084 -2.79411,-1.3253 -13.12244,-5.6652 -26.32808,-12.664 -39.57009,-20.9716 -1.54404,-0.9687 -2.83872,-1.7299 -2.87707,-1.6915 -0.0985,0.099 2.60822,2.7021 10.45539,10.0582 13.59121,12.7407 26.9561,25.0886 27.14796,25.0823 0.10794,0 0.93377,-1.0996 1.83518,-2.4355 z m 35.71846,-6.184 c 6.160679,-8.2574 13.403629,-17.2826 30.182179,-37.609 33.63755,-40.7503 50.652,-63.807 64.74398,-87.73602 18.24347,-30.9786 27.4765,-57.1265 28.93217,-81.936 0.20347,-3.4679 0.21064,-10.2043 0.0114,-10.6962 -0.15849,-0.3913 -0.20241,-0.206 -0.53174,2.2427 -1.14419,8.5077 -3.57236,18.9223 -6.83789,29.3282 -9.99041,31.8352 -30.7621,70.44812 -59.81334,111.18822 -18.75779,26.3051 -39.21147,51.7788 -58.573019,72.9488 -1.76558,1.9305 -3.23422,3.5747 -3.26363,3.6539 -0.0294,0.079 0.38306,0.2816 0.91663,0.4498 0.53355,0.1682 1.13986,0.477 1.34735,0.6863 0.20751,0.2092 0.46388,0.3682 0.56972,0.3532 0.10583,-0.015 1.14812,-1.3083 2.31618,-2.8739 z m -7.56666,-2.8069 c 27.311579,-29.127 59.817319,-71.5049 81.743659,-106.5698 16.67548,-26.66772 30.06093,-53.84962 37.21024,-75.56322 6.0191,-18.281 9.00069,-35.6256 8.61517,-50.1167 -0.0606,-2.2772 -0.21916,-5.2273 -0.35239,-6.5557 -0.2119,-2.1127 -0.34974,-2.7178 -1.10034,-4.8305 -1.77498,-4.99603 -3.65563,-9.34636 -5.85446,-13.54269 -9.93686,-18.96369 -23.09969,-32.40922 -37.91553,-38.72985 -3.32649,-1.41912 -9.91396,-3.42807 -10.22404,-3.11796 -0.0642,0.0642 0.1528,0.32592 0.48201,0.58181 2.95292,2.29542 7.91478,7.18217 10.71998,10.5577 3.29127,3.96043 6.48893,8.50663 9.40412,13.37019 13.67225,22.81004 19.48221,48.0973 16.86584,73.4067 -1.39978,13.5408 -5.87725,29.2342 -12.72437,44.5986 -6.47252,14.5238 -14.89483,28.9552 -26.83081,45.97362 -11.17062,15.9272 -23.9241,32.0261 -46.26234,58.3976 -18.416709,21.7419 -26.056479,30.8978 -32.173129,38.5579 -5.64294,7.0668 -8.3692,10.6254 -8.3692,10.9241 0,0.2557 2.57427,1.3051 8.02212,3.2701 1.70794,0.6161 3.64877,1.3172 4.31297,1.558 0.66419,0.2408 1.37697,0.4439 1.58394,0.4512 0.2707,0.01 1.06956,-0.726 2.84656,-2.6211 z m -16.53334,-7.0278 c 6.92642,-9.0519 13.77345,-17.374 32.361229,-39.3331 13.06266,-15.4318 20.76474,-24.6231 25.73273,-30.7083 36.43097,-44.62322 55.54386,-77.53352 62.94778,-108.38912 4.52652,-18.8641 4.49368,-37.2477 -0.0993,-55.5898 -3.18877,-12.73435 -8.51947,-24.84916 -15.67559,-35.62508 -4.07559,-6.13717 -7.23365,-10.0784 -11.4752,-14.32091 -2.90745,-2.90813 -4.56638,-4.35684 -7.53321,-6.57861 -3.37674,-2.52871 -3.3669,-2.52446 -6.3578,-2.75224 -8.14784,-0.62051 -18.09052,0.83482 -27.77347,4.06527 -10.74387,3.58438 -20.66467,8.84261 -31.570899,16.73326 -11.87518,8.59163 -23.54682,19.51734 -33.1889,31.06778 -2.35748,2.82408 -3.35372,4.42943 -6.05939,9.76463 l -1.54381,3.0441 0.68051,1.6726 c 2.06263,5.0693 3.46772,10.5956 3.96398,15.5905 0.34728,3.4956 0.15567,9.7923 -0.35893,11.7964 -0.25558,0.9952 -1.33224,1.3492 -1.96778,0.6469 -0.29307,-0.3238 -0.30098,-0.4945 -0.11393,-2.4584 0.59495,-6.2465 0.3034,-10.6687 -1.08413,-16.4447 -0.6822,-2.8399 -2.23438,-7.4893 -2.50025,-7.4893 -0.20304,0 -2.15013,4.9816 -3.21478,8.2251 -1.68821,5.1429 -2.80153,9.8903 -3.53298,15.0649 -0.33727,2.3861 -0.35701,2.8804 -0.1833,4.591 0.25037,2.4655 0.24291,3.6708 -0.026,4.2023 -0.34677,0.6853 -1.2798,1.2128 -2.14515,1.2128 -1.40263,0 -1.83705,-0.5358 -2.02839,-2.5015 -0.0647,-0.6642 -0.22415,-1.557 -0.35443,-1.984 -0.13029,-0.427 -0.23174,-1.3198 -0.22544,-1.984 0.0112,-1.1847 -1.06335,-6.9779 -1.67515,-9.0311 -0.27354,-0.918 -0.27791,-0.9221 -0.85794,-0.8133 -0.75561,0.1417 -1.60628,-0.2162 -2.20502,-0.9278 -0.70008,-0.8319 -0.64987,-1.8313 0.17062,-3.3954 l 0.64454,-1.2286 -0.75957,-1.7904 c -4.65511,-10.9728 -13.02959,-24.09845 -23.04636,-36.12162 -9.4832398,-11.38275 -20.2319898,-21.18877 -31.15812,-28.42536 -13.15508,-8.71287 -26.312251,-13.85434 -38.321131,-14.97483 -2.75843,-0.25737 -8.87291,-0.11626 -11.24873,0.25959 -10.336326,1.6352 -20.751916,7.48379 -27.685876,15.54627 -4.729784,5.49954 -7.944374,11.75011 -10.180464,19.79522 -1.87872,6.75931 -2.95483,15.83449 -2.71477,22.89453 0.30656,9.0159 6.65585,29.9496 14.75584,48.6502 14.935554,34.4819 41.16251,78.03912 75.571371,125.50732 10.2635702,14.1589 16.4415202,22.3448 17.65414019,23.3919 1.32083,1.1405 5.92739001,4.6815 9.62932001,7.4018 18.8362398,13.8418 38.3462498,25.1418 58.1387498,33.6733 1.94515,0.8385 3.65037,1.5038 3.78939,1.4786 0.13903,-0.025 1.41075,-1.5592 2.82605,-3.4088 z m -89.27178,-54.7204 c -0.22144,-0.3139 -1.53336,-2.1233 -2.91538,-4.021 -27.124321,-37.2456 -48.814881,-71.36652 -65.253387,-102.64862 -8.531541,-16.2353 -15.194523,-31.4491 -20.246264,-46.2289 -0.84208,-2.4637 -1.5546,-4.3574 -1.58334,-4.2081 -0.0728,0.3778 0.99714,5.2114 2.13299,9.6364 7.553233,29.4254 20.646054,60.1322 39.79536,93.33252 2.51237,4.3559 2.47896,4.3067 4.86017,7.1596 5.85984,7.0206 14.35335,16.6776 22.07707,25.1014 7.525521,8.2077 21.302831,22.6799 21.450381,22.5323 0.0468,-0.047 -0.0962,-0.3418 -0.3176,-0.6556 z m -65.204657,-76.24472 c -6.98136,-13.94 -14.422403,-31.2081 -19.429374,-45.0889 -6.867,-19.0373 -10.55027,-34.3374 -12.15514,-50.4915 -0.32713,-3.2928 -0.38402,-4.9287 -0.39192,-11.2702 -0.007,-5.09511 0.0604,-7.95858 0.21297,-9.14349 0.12222,-0.94884 0.29328,-3.29128 0.38014,-5.20539 0.52915,-11.66163 3.09502,-20.31455 8.39741,-28.31872 0.71164,-1.07428 1.25158,-1.99554 1.19985,-2.04726 -0.13173,-0.13173 -3.62106,2.51832 -5.89059,4.47378 -2.36594,2.03853 -5.9459,5.71945 -7.76335,7.98229 -12.38736,15.4231 -14.9933,35.94829 -7.76488,61.15849 5.25751,18.3365 15.05738,37.8709 31.025892,61.8451 5.873182,8.8176 13.281472,19.2385 13.512562,19.0074 0.0437,-0.044 -0.55626,-1.3495 -1.33357,-2.9016 z m 124.237877,-83.3098 c 0.45468,-1.5612 0.94938,-3.1806 1.09931,-3.5987 0.14993,-0.4181 0.24043,-0.7923 0.20114,-0.8316 -0.17554,-0.1755 -3.03755,4.5441 -3.03755,5.0091 0,0.5705 0.57804,2.3706 0.74352,2.3154 0.0918,-0.031 0.53891,-1.333 0.99358,-2.8942 z m -2.50787,-7.0653 c 0.55645,-0.9014 1.61224,-2.5411 2.34621,-3.6438 1.1601,-1.743 1.3939,-2.2277 1.78908,-3.7092 0.25003,-0.9373 0.8105,-2.8905 1.24545,-4.3403 0.72388,-2.4129 0.77037,-2.6753 0.54883,-3.0983 -0.57627,-1.1006 -4.38522,-6.71561 -6.0574,-8.92969 C 29.654811,852.01198 12.794591,837.47023 -5.0790588,827.22698 -18.558989,819.50175 -34.05547,813.64725 -46.05778,811.7454 c -2.60634,-0.41299 -4.60634,-0.61784 -4.45405,-0.45623 0.0617,0.0655 1.13559,0.34414 2.38644,0.61927 11.07655,2.43645 22.165441,7.32434 33.016651,14.55346 7.7572602,5.1679 14.29521019,10.62746 22.1087002,18.46195 12.6208398,12.65478 21.8100098,25.08529 28.6274098,38.72533 1.2086,2.4181 2.96443,6.2756 3.5433,7.7846 0.29179,0.7606 0.53983,1.0889 0.68992,0.913 0.0642,-0.075 0.57195,-0.8742 1.12838,-1.7756 z m 10.62948,-15.3973 c 0.59167,-0.78276 1.9504,-2.52495 3.0194,-3.87149 1.06901,-1.34654 2.46208,-3.28738 3.09571,-4.31297 15.33188,-24.8159 38.89449,-45.47835 62.435869,-54.7511 1.51817,-0.598 2.83793,-1.16027 2.93282,-1.24952 0.46501,-0.43734 -5.97905,0.56378 -9.77395,1.51844 -17.446209,4.38887 -35.001289,16.80298 -47.815709,33.81294 -5.2559,6.97674 -9.51067,14.33116 -12.95935,22.40029 -2.49576,5.83951 -3.07981,7.87671 -2.2583,7.87671 0.13626,0 0.73184,-0.6405 1.32351,-1.4233 z m 39.37191,-38.9989 c 4.89674,-3.55796 11.517089,-7.71384 16.757739,-10.51957 12.11033,-6.48366 25.45256,-10.62137 36.88049,-11.43746 0.92768,-0.0663 1.72393,-0.18069 1.76944,-0.25434 0.0859,-0.13898 -2.67227,-1.09748 -4.91908,-1.70943 -1.6577,-0.45149 -2.37194,-0.44241 -5.38775,0.0685 -12.42777,2.10532 -25.70387,8.26361 -38.521689,17.86876 -3.25696,2.44065 -7.90762,6.29021 -8.97098,7.42572 l -0.69008,0.73689 0.60382,-0.40862 c 0.33212,-0.22472 1.44725,-1.02144 2.47809,-1.77044 z m 76.602989,-19.96074 c -0.25163,-0.25163 -4.81952,-1.94328 -7.14082,-2.64451 -3.69154,-1.11515 -9.77099,-2.10258 -12.18002,-1.97828 l -1.01766,0.0525 2.50152,1.09456 c 3.04772,1.33357 3.1012,1.34709 6.21067,1.57081 3.00613,0.21627 5.96148,0.69757 9.02786,1.47022 2.53983,0.63998 2.85674,0.69299 2.59845,0.4347 z"
         id="path3008"
         inkscape:connector-curvature="0" />
      <path
         style="fill:#896c76"
         d="m 67.083101,1162.6762 c -0.24556,-0.2609 -2.33907,-2.8811 -4.65225,-5.8225 -7.59948,-9.6636 -8.65403,-10.964 -8.8411,-10.9027 -0.10174,0.033 -0.5111,0.6369 -0.90966,1.3412 -0.39856,0.7044 -0.91815,1.4283 -1.15463,1.6088 -0.40514,0.3093 -0.45529,0.3116 -0.86841,0.041 -0.57162,-0.3746 -0.74683,-1.0796 -0.4129,-1.6615 0.14176,-0.247 0.62374,-1.1205 1.07109,-1.9412 l 0.8134,-1.4922 -6.83437,-8.5059 c -20.80633,-25.8948 -28.43808,-35.5041 -36.3504598,-45.7697 -3.633,-4.7135 -3.83751,-4.9415 -8.44173001,-9.4101 -2.59519999,-2.5188 -5.53370999,-5.232 -6.52999999,-6.0293 -12.5360402,-10.032 -30.2899312,-26.7758 -39.4218012,-37.1788 -6.54309,-7.4539 -10.05417,-12.2901 -16.90844,-23.29 -2.59397,-4.1628 -3.37267,-5.2448 -7.32559,-10.1786 -11.609256,-14.48992 -19.663966,-25.35192 -27.377242,-36.91902 -27.704068,-41.546 -38.880588,-74.6676 -34.201028,-101.35462 1.23079,-7.01906 3.60317,-13.63564 6.90681,-19.26317 4.61599,-7.86302 11.63684,-15.07927 20.4095,-20.97749 9.223655,-6.20145 19.147294,-10.827 27.695714,-12.90934 1.18993,-0.28986 3.40563,-0.82924 4.923806,-1.19865 9.6431,-2.34633 18.93786,-2.59241 28.45741,-0.75342 14.893451,2.87714 30.499281,9.399 45.2942812,18.92901 13.1428698,8.46581 26.1855798,19.72091 35.6208798,30.73873 3.53128,4.12358 5.35686,6.50282 8.06983,10.51732 1.02831,1.52163 1.9528,2.76661 2.05443,2.76661 0.10162,0 0.7037,-1.28095 1.33792,-2.84655 2.99309,-7.38827 6.07405,-13.18948 10.6283,-20.01216 4.4604,-6.68207 8.18841,-11.22666 13.876,-16.91544 5.16677,-5.16779 8.99089,-8.34695 14.41316,-11.9822 10.20707,-6.84314 20.332909,-10.80973 31.743409,-12.43481 1.48158,-0.21102 3.58727,-0.3124 7.40557,-0.35655 4.42675,-0.0512 5.64601,-0.12045 7.15953,-0.40666 14.66913,-2.77391 28.70768,0.0814 44.96968,9.14628 8.27712,4.61392 14.81039,9.5364 20.86583,15.72134 5.60205,5.72189 9.70725,11.35155 13.12895,18.00437 3.74968,7.2905 5.98128,14.21842 7.40663,22.99362 0.24224,1.49138 0.66483,3.48798 0.93909,4.43688 3.81686,13.2059 4.94724,26.4927 3.52246,41.4044 -3.39643,35.547 -22.89013,75.6549 -61.2101,125.93862 -9.70636,12.7367 -19.75183,25.2332 -37.02819,46.0625 -13.11955,15.8176 -23.69857,29.2407 -31.434309,39.8851 -0.96359,1.3259 -1.2631,1.6191 -1.82629,1.7879 -0.58201,0.1744 -0.78107,0.1543 -1.46364,-0.1476 -1.58987,-0.7033 -1.73132,-2.0712 -0.39953,-3.8634 0.43597,-0.5866 0.79265,-1.1593 0.79265,-1.2727 0,-0.1133 -0.67576,-0.4167 -1.50167,-0.6742 -2.70477,-0.8433 -1.77135,-1.4312 -8.26178,5.2037 -3.14009,3.2099 -7.191,7.2525 -9.00202,8.9834 -3.19168,3.0506 -3.31478,3.1472 -4.0114,3.1472 -0.44168,0 -0.90507,-0.1327 -1.20236,-0.3444 -0.26601,-0.1894 -2.45136,-2.1691 -4.85631,-4.3992 -2.40495,-2.2302 -4.46299,-4.0548 -4.57337,-4.0548 -0.25169,0 -4.7177,7.1631 -4.7177,7.5668 0,0.1039 2.35029,3.1606 5.22285,6.7919 9.1179,11.5261 8.74548,11.0306 8.74845,11.6387 0.002,0.3757 -0.1192,0.6362 -0.38071,0.8195 -0.54699,0.3831 -0.86973,0.3348 -1.37864,-0.2059 z m -13.11343,-21.8795 c 0.2586,-0.4341 1.22677,-2.0062 2.15146,-3.4935 0.92472,-1.4875 1.68164,-2.7859 1.68206,-2.8855 0,-0.1988 0.093,-0.1127 -10.78163,-10.0818 -7.78107,-7.1331 -17.67773,-16.3741 -24.9941,-23.3382 -2.26962,-2.1604 -4.16775,-3.8868 -4.21808,-3.8364 -0.0503,0.05 0.0924,0.3428 0.31722,0.65 0.96079,1.3131 9.24892,11.7456 17.18898,21.6363 4.70918,5.8662 10.6281,13.2455 13.15313,16.3987 2.52505,3.1531 4.68996,5.7344 4.81089,5.7362 0.12095,0 0.43148,-0.3519 0.69007,-0.7858 z m 23.32352,-8.2863 c 5.74164,-5.7923 6.9032,-7.043 6.70931,-7.2242 -0.12896,-0.1205 -1.47662,-0.6605 -2.99478,-1.1999 -1.51817,-0.5395 -4.49937,-1.6496 -6.62491,-2.467 l -3.86459,-1.4862 -0.38987,0.4532 c -1.3655,1.5875 -8.04576,11.3164 -7.97382,11.6128 0.0825,0.3398 7.62186,7.2991 7.91717,7.308 0.15274,0 3.40243,-3.1438 7.22149,-6.9967 z m -15.41204,-4.1654 c 0.82819,-1.2098 2.55095,-3.6702 3.82833,-5.4676 1.27738,-1.7974 2.3308,-3.3811 2.34092,-3.5194 0.0123,-0.168 -1.18375,-0.7758 -3.60447,-1.8319 -13.38085,-5.8374 -25.95575,-12.5301 -39.04397,-20.7801 -1.54829,-0.9759 -2.86806,-1.7193 -2.93283,-1.652 -0.0648,0.067 0.43626,0.6379 1.11335,1.2679 0.6771,0.6299 4.90812,4.6022 9.40227,8.8272 4.49415,4.225 12.01402,11.2446 16.71084,15.599 4.69682,4.3545 8.9803,8.331 9.51884,8.8369 0.53855,0.5057 1.02007,0.9196 1.07002,0.9196 0.05,0 0.76849,-0.9898 1.5967,-2.1996 z m 35.44828,-5.8657 c 5.169729,-6.9427 13.595729,-17.5055 25.150069,-31.5277 15.1153,-18.3439 17.31444,-21.0317 22.40149,-27.3799 16.87965,-21.0643 27.72221,-35.6658 37.57265,-50.5985 22.05235,-33.43022 34.51932,-62.11172 38.2066,-87.89822 0.83013,-5.8055 1.0647,-8.8412 1.1619,-15.0371 0.0804,-5.1323 0.0145,-7.2428 -0.21945,-7.0089 -0.0395,0.039 -0.23099,1.1924 -0.42569,2.5623 -3.90523,27.4753 -15.29627,57.1266 -35.58596,92.6315 -6.2064,10.86062 -14.0652,23.45792 -21.30992,34.15872 -20.47409,30.2413 -47.26023,64.2903 -69.194699,87.9564 -1.34882,1.4553 -2.42427,2.7304 -2.38989,2.8336 0.0344,0.1031 0.48498,0.331 1.00132,0.5065 0.51636,0.1755 1.13116,0.5113 1.36622,0.7463 0.23505,0.2349 0.44349,0.4272 0.46319,0.4272 0.0197,0 0.8307,-1.0675 1.80217,-2.3722 z m -6.89693,-3.6228 c 20.551179,-22.2013 39.882989,-46.0919 59.433879,-73.4498 18.42722,-25.7855 31.97798,-47.85652 43.32142,-70.56012 11.74145,-23.5004 18.79295,-43.0544 22.37184,-62.0378 1.76524,-9.3633 2.45295,-17.1125 2.28742,-25.7742 -0.15181,-7.9425 -0.2727,-8.7409 -2.05062,-13.54271 -3.82591,-10.33301 -9.72803,-20.76417 -16.63086,-29.39271 -10.00826,-12.51031 -21.64984,-20.54493 -34.53132,-23.83234 -2.79678,-0.71377 -2.84033,-0.60911 -0.54598,1.31211 6.28636,5.26399 11.80897,11.72398 17.02158,19.91073 15.29656,24.02425 21.73496,51.20312 18.49282,78.06472 -1.50099,12.4357 -5.49545,26.5514 -11.42376,40.3693 -10.49199,24.4552 -27.72779,50.61722 -56.26022,85.39672 -5.52964,6.7403 -10.00258,12.0796 -22.54603,26.9129 -19.621639,23.2036 -27.428019,32.6809 -33.868259,41.1177 -1.86104,2.438 -2.17926,2.9411 -1.97995,3.1303 0.3598,0.3415 13.42971,5.2323 14.04979,5.2574 0.10085,0 1.38705,-1.2929 2.85825,-2.8822 z m -16.49478,-7.1164 c 7.14934,-9.3 14.69705,-18.4595 33.905189,-41.1457 16.33061,-19.2876 23.29643,-27.6737 30.37985,-36.574 29.27165,-36.77942 46.25795,-65.63972 54.425,-92.46992 6.0469,-19.8652 7.14302,-39.0058 3.32774,-58.1096 -2.98374,-14.9401 -8.66201,-28.7462 -16.97017,-41.26114 -4.22077,-6.35792 -6.90617,-9.68856 -11.5522,-14.32791 -3.40355,-3.39863 -6.48291,-5.99959 -9.41247,-7.95012 l -1.6929,-1.12711 -1.95868,-0.17499 c -2.52286,-0.22537 -9.2541,-0.0714 -12.13726,0.27747 -22.75374,2.75397 -45.920599,15.70182 -69.629419,38.91559 -2.93768,2.87634 -7.84515,8.23704 -11.52715,12.59173 -2.28158,2.69845 -3.55724,4.75728 -6.25952,10.10248 l -1.39952,2.7684 0.87484,2.2347 c 1.77504,4.5341 2.82063,8.3821 3.5365,13.0149 0.2842,1.8394 0.36309,3.1865 0.37395,6.3854 0.0167,4.9234 -0.25362,7.4426 -0.8642,8.0531 -0.48227,0.4823 -0.93431,0.5084 -1.45828,0.084 l -0.3905,-0.3162 0.24199,-1.9696 c 0.37972,-3.0905 0.29623,-8.9827 -0.17062,-12.0436 -0.65163,-4.2723 -2.87158,-12.0085 -3.44592,-12.0085 -0.30706,0 -1.81321,3.7167 -3.21592,7.9359 -1.74223,5.2404 -3.18889,11.5156 -3.72731,16.1681 -0.17265,1.4919 -0.17027,2.3643 0.0125,4.5161 0.21592,2.5445 0.21098,2.6967 -0.10771,3.3107 -0.66149,1.2747 -2.36136,1.6823 -3.34609,0.8024 -0.48201,-0.4306 -0.54882,-0.6177 -0.6931,-1.9408 -0.0878,-0.8053 -0.23578,-1.6988 -0.32881,-1.9855 -0.093,-0.2868 -0.2014,-1.2184 -0.2408,-2.0703 -0.069,-1.492 -0.97644,-6.3877 -1.61414,-8.7084 l -0.30813,-1.1214 -0.95476,-0.086 c -1.14393,-0.1034 -1.73834,-0.4575 -2.12098,-1.2639 -0.43062,-0.9075 -0.35144,-1.6024 0.31925,-2.8017 0.3321,-0.5938 0.60382,-1.2302 0.60382,-1.4141 -8e-5,-1.0687 -4.66234,-10.4826 -7.66724,-15.4813 -15.3458,-25.52787 -36.6307598,-46.45964 -58.40747,-57.43828 -15.958491,-8.04538 -29.938281,-10.45677 -42.477677,-7.32699 -10.17025,2.53843 -20.294003,9.51734 -26.380007,18.18529 -5.332267,7.59443 -8.617397,17.47311 -9.839067,29.58694 -0.12085,1.19835 -0.22037,4.49434 -0.22399,7.4183 l -0.007,5.26184 0.66118,3.1916 c 4.60853,22.2456 15.171056,48.2224 31.987762,78.6684 17.232038,31.198 38.148788,63.10862 66.7186892,101.78602 7.66066,10.3709 7.57938,10.2766 11.3893,13.2159 21.2420798,16.3883 42.4982998,29.097 64.7792998,38.7302 2.13414,0.9227 3.9686,1.6261 4.07659,1.5631 0.10793,-0.063 1.41979,-1.7062 2.9151,-3.6513 z m -88.94355,-53.8388 c -0.10539,-0.1969 -1.33413,-1.9243 -2.73057,-3.8386 -29.357501,-40.2445 -53.074721,-77.94112 -69.105827,-109.83822 -7.604208,-15.1301 -12.667153,-27.0315 -17.283404,-40.6281 -0.83759,-2.4671 -1.55059,-4.3466 -1.58445,-4.1767 -0.0868,0.4356 0.67016,3.9501 1.96485,9.1224 6.846206,27.3507 18.768154,56.3263 35.72118,86.8183 5.62753,10.12182 6.67618,11.80982 9.26746,14.91762 10.86377,13.0295 26.772321,30.5533 40.778601,44.9191 1.64206,1.6842 3.02567,3.0622 3.07468,3.0622 0.049,0 0.003,-0.1611 -0.10252,-0.358 z m -65.968147,-77.59392 c -5.73458,-11.4592 -11.806434,-25.2393 -16.583207,-37.6356 -9.338717,-24.235 -14.058617,-43.9124 -15.102487,-62.9627 -0.24092,-4.3967 -0.13082,-11.20456 0.24564,-15.18819 0.14795,-1.56561 0.3526,-4.39923 0.45479,-6.29692 0.57749,-10.72523 3.25847,-19.28551 8.46934,-27.0423 0.74896,-1.1149 1.27678,-2.0271 1.17291,-2.0271 -0.23956,0 -1.43066,0.86106 -3.94423,2.85135 -8.24241,6.52648 -14.19449,14.24618 -17.68747,22.94024 -4.87202,12.12649 -5.33898,26.68752 -1.37844,42.98252 4.72785,19.4519 14.14579,39.173 31.032679,64.9823 5.469775,8.3598 14.921445,21.6707 15.070405,21.2238 0.0364,-0.1091 -0.7511,-1.8315 -1.74993,-3.8274 z m 123.906637,-80.5202 c 0.27784,-1.0351 1.85657,-6.235 2.03856,-6.7145 0.33802,-0.8905 -0.5335,0.2791 -1.91825,2.5743 l -1.48413,2.4599 0.38955,1.324 c 0.21424,0.7283 0.46986,1.2974 0.56799,1.2646 0.0981,-0.033 0.28096,-0.4414 0.40628,-0.9083 z m -2.42427,-8.3665 c 0.35615,-0.5765 1.46763,-2.3127 2.46997,-3.8582 1.70862,-2.6344 1.85258,-2.9259 2.30536,-4.6662 0.26561,-1.0209 0.7847,-2.8562 1.15352,-4.0784 0.36882,-1.2222 0.67057,-2.3664 0.67057,-2.5426 0,-0.3669 -2.21177,-3.94444 -4.01393,-6.49258 C 31.340471,853.16415 12.462611,836.74707 -7.4807588,825.80063 -21.983719,817.84031 -38.46662,812.20039 -50.32205,811.14171 c -1.60468,-0.14329 -1.30373,0.1341 0.51754,0.47706 22.418161,4.2215 46.0437912,19.75952 66.325951,43.62101 9.38253,11.03831 16.99609,23.0239 21.76802,34.2683 0.55018,1.2963 1.049,2.4929 1.10851,2.6589 0.18382,0.513 0.4381,0.3421 1.11042,-0.7463 z m 12.7493,-18.23484 c 1.50416,-1.92368 3.123,-4.08289 3.59743,-4.79821 0.47442,-0.71536 1.92132,-2.90665 3.21534,-4.86956 6.019,-9.13035 12.04941,-16.44412 20.01226,-24.27115 12.35651,-12.14576 26.422599,-21.60046 40.086709,-26.94485 1.61306,-0.6309 3.01046,-1.22171 3.10535,-1.31289 0.27392,-0.26326 -2.64258,-0.005 -5.35735,0.47258 -6.26541,1.10449 -12.19455,3.06751 -18.277709,6.0514 -13.00423,6.37883 -24.85687,16.38441 -34.32918,28.97954 -3.92241,5.21555 -7.34959,10.77001 -10.18274,16.50333 -2.40279,4.8624 -5.29607,11.88555 -5.3009,12.86745 -0.002,0.4108 0.35042,0.9509 0.56697,0.8688 0.071,-0.027 1.35964,-1.6228 2.86382,-3.54644 z m 37.41107,-36.69829 c 18.455469,-13.41223 36.613239,-20.84466 54.394629,-22.26509 0.89764,-0.0716 1.40844,-0.18332 1.36978,-0.29933 -0.0749,-0.22481 -2.87734,-1.18396 -5.16415,-1.76744 -1.49625,-0.38179 -1.80589,-0.40815 -2.93283,-0.24981 -14.22888,1.99938 -28.77943,8.74797 -43.095689,19.98793 -2.67086,2.09697 -6.74232,5.57909 -7.50456,6.41832 l -0.51755,0.56983 0.51755,-0.31958 c 0.28467,-0.17576 1.60443,-1.10943 2.93282,-2.07483 z m -192.344241,-3.36504 c 0.89709,-1.29148 2.537149,-3.38648 4.220503,-5.39121 1.071177,-1.27567 0.342859,-0.61545 -1.046737,0.94886 -1.38223,1.55604 -3.330006,4.17616 -4.136016,5.56372 -0.57762,0.99438 -0.20899,0.56481 0.96225,-1.12137 z M 168.5609,816.65049 c 0,-0.26028 -4.64438,-2.08907 -7.67302,-3.02133 -2.01749,-0.62103 -5.11047,-1.31644 -7.28667,-1.63833 -2.49477,-0.369 -6.13072,-0.63153 -6.30688,-0.45537 -0.0873,0.0873 0.42166,0.38715 1.1983,0.70603 0.7425,0.30488 2.00988,0.85 2.81641,1.21138 1.30927,0.58667 1.66976,0.66929 3.36411,0.77111 3.60432,0.21656 8.34504,1.01765 12.24883,2.06983 0.85397,0.23014 1.57208,0.42318 1.59579,0.42894 0.0236,0.005 0.0431,-0.0267 0.0431,-0.0722 z"
         id="path3006"
         inkscape:connector-curvature="0" />
      <path
         style="fill:#65545a"
         d="m 63.902161,1158.622 c -7.02128,-8.9488 -10.0732,-12.7233 -10.28758,-12.7233 -0.12139,0 -0.6064,0.6793 -1.07784,1.5095 -0.91236,1.6068 -1.33728,1.8904 -2.0506,1.3688 -0.557,-0.4073 -0.39681,-1.1396 0.662,-3.0261 0.5459,-0.9726 0.95652,-1.8622 0.91251,-1.9768 -0.044,-0.1148 -3.04406,-3.8952 -6.66677,-8.4011 -20.27376,-25.2162 -27.81038,-34.698 -35.10257,-44.1626 -4.2084198,-5.4622 -4.6908798,-6.0192 -8.7902298,-10.1489 -3.18364,-3.2072 -5.29538,-5.155 -7.93881,-7.3224 -9.7131902,-7.964 -17.8771502,-15.3544 -27.7716912,-25.1403 -7.74671,-7.6615 -12.38581,-12.7454 -17.00262,-18.6326 -3.53652,-4.5096 -6.05994,-8.234 -11.55798,-17.0586 -2.16915,-3.4816 -3.15429,-4.841 -6.76605,-9.3367 -22.139876,-27.55832 -36.65952,-49.37492 -47.59153,-71.50902 -8.72407,-17.6636 -13.46118,-32.9183 -14.83975,-47.7876 -0.23665,-2.5525 -0.23569,-10.66842 0.001,-13.26427 1.82289,-19.94414 11.17254,-34.92888 29.15867,-46.73282 7.133204,-4.68138 16.010368,-9.02552 22.596208,-11.05771 2.89278,-0.89262 10.738522,-2.79195 13.589262,-3.28975 7.46098,-1.30281 15.34697,-1.27104 22.98468,0.0927 15.517491,2.77055 32.559621,10.04837 48.5639712,20.7392 16.7269598,11.17352 32.5352998,26.46273 41.5947298,40.22879 1.4024,2.13099 1.62663,2.4021 1.81343,2.19242 0.0598,-0.0673 0.67874,-1.55842 1.37523,-3.3138 1.43736,-3.62249 4.62638,-10.1303 6.72086,-13.71523 11.24084,-19.23997 27.68339,-34.53889 45.182659,-42.04009 9.215,-3.95007 18.18475,-5.77628 27.69901,-5.63944 3.12176,0.0449 3.89731,0.002 5.60685,-0.31816 5.3617,-1.00066 12.08622,-1.26917 16.90682,-0.67509 8.99694,1.10872 18.21898,4.40146 28.46557,10.16367 18.91119,10.63477 31.99363,25.9129 37.92352,44.28849 1.1898,3.68693 2.19412,8.01443 2.96285,12.76639 0.19184,1.186 0.65842,3.2397 1.03678,4.5636 3.92963,13.7493 4.86682,28.486 2.83673,44.6042 -3.87136,30.7372 -20.08503,65.5687 -49.90976,107.22032 -10.88811,15.2057 -23.96444,31.826 -45.74187,58.1388 -15.68461,18.951 -24.99668,30.7017 -32.498189,41.0085 -1.01553,1.3953 -2.04823,2.6957 -2.29489,2.8897 -0.29494,0.232 -0.70425,0.3528 -1.19556,0.3528 -1.37625,0 -2.44682,-1.4112 -1.98734,-2.6197 0.0961,-0.2528 0.53121,-0.9439 0.96688,-1.5357 0.51752,-0.703 0.73348,-1.1347 0.62298,-1.2452 -0.15278,-0.1527 -2.47664,-0.9558 -3.5338,-1.2211 -0.3795,-0.095 -1.29798,0.772 -8.58931,8.1106 -4.4904,4.5194 -8.61479,8.5952 -9.1653,9.0572 -1.10926,0.931 -1.75815,1.0672 -2.5584,0.537 -0.24971,-0.1654 -2.44392,-2.1445 -4.87601,-4.398 -2.4321,-2.2536 -4.5379,-4.0973 -4.67956,-4.0973 -0.27345,0 -0.84464,0.8432 -3.24446,4.7895 -0.82297,1.3533 -1.49519,2.5954 -1.49383,2.7603 0.002,0.1649 1.01997,1.5808 2.26358,3.1463 8.24964,10.3857 11.70794,14.8907 11.70794,15.2513 0,0.5093 -0.50944,0.9654 -1.07807,0.9654 -0.37905,0 -0.96713,-0.6627 -3.86491,-4.3561 z m -9.80336,-17.9419 c 0.36128,-0.5931 1.34272,-2.1794 2.18101,-3.5251 0.83829,-1.3457 1.52416,-2.5645 1.52416,-2.7083 0,-0.2368 -2.70543,-2.7738 -14.98226,-14.0494 -5.06637,-4.6532 -14.10161,-13.1155 -20.09972,-18.8253 -4.5487,-4.33 -5.05922,-4.7817 -5.22159,-4.6193 -0.12553,0.1255 10.59526,13.6524 24.70926,31.1766 2.17799,2.7043 5.53122,6.8771 7.45167,9.2729 1.92043,2.3958 3.55672,4.3562 3.63616,4.3562 0.0796,0 0.44005,-0.4853 0.80131,-1.0783 z m 23.16204,-8.0116 c 4.08216,-4.1294 6.92834,-7.1384 6.89853,-7.2932 -0.0329,-0.1707 -1.02247,-0.6046 -2.80884,-1.2316 -1.51694,-0.5324 -4.49909,-1.639 -6.62701,-2.4591 -2.12792,-0.8201 -4.00281,-1.4911 -4.16643,-1.4911 -0.1877,0 -1.05856,1.0664 -2.35984,2.8897 -3.73667,5.2356 -6.08031,8.7114 -6.08031,9.0176 0,0.3124 7.66739,7.5833 8.0063,7.5923 0.10362,0 3.3155,-3.1583 7.1376,-7.0246 z m -15.27884,-4.3235 c 0.81424,-1.2098 2.53629,-3.6855 3.82676,-5.5017 1.29047,-1.8161 2.34633,-3.4146 2.34633,-3.5522 0,-0.1537 -0.68193,-0.5383 -1.76832,-0.9972 -13.19846,-5.5758 -28.93939,-13.8963 -41.43051,-21.8997 -2.32444,-1.4894 -2.85997,-1.7947 -2.96459,-1.69 -0.10561,0.1056 3.31947,3.4113 10.96961,10.5875 13.02865,12.2214 27.1358,25.2529 27.33744,25.2529 0.11157,0 0.86907,-0.9898 1.68328,-2.1996 z m 36.19232,-6.8576 c 6.678809,-8.8355 14.108849,-18.1094 27.159669,-33.8999 30.04506,-36.3522 45.154,-56.1217 58.34296,-76.3395 23.75315,-36.41202 35.89832,-66.73092 38.04379,-94.97152 0.36136,-4.7564 0.28402,-14.1672 -0.11315,-13.77 -0.0397,0.04 -0.31214,1.7374 -0.60536,3.7727 -2.28648,15.8695 -7.39631,33.2566 -15.13167,51.488 -11.45726,27.0036 -29.7637,58.46682 -52.29669,89.88222 -18.9228,26.3821 -38.77879,51.0654 -57.712509,71.7433 -1.81219,1.9791 -3.2949,3.687 -3.2949,3.7954 0,0.1084 0.44222,0.337 0.9827,0.508 0.54049,0.1711 1.16156,0.501 1.38015,0.7331 0.2186,0.2321 0.48066,0.4026 0.58235,0.379 0.10173,-0.024 1.29988,-1.518 2.66266,-3.3208 z m -9.03942,-1.1645 c 5.24648,-5.4351 16.507329,-18.1793 23.970959,-27.1286 20.60946,-24.7118 41.42656,-53.0514 57.08976,-77.7196 17.92658,-28.23292 32.04218,-56.70812 39.48944,-79.66132 6.01743,-18.5464 8.95402,-36.6799 8.23728,-50.8654 -0.29163,-5.772 -0.43865,-6.8083 -1.33897,-9.4388 -2.72432,-7.95982 -7.25205,-16.9914 -12.30209,-24.53935 -11.08562,-16.56887 -24.53197,-26.94803 -39.97834,-30.85904 -2.88376,-0.73016 -2.92812,-0.64291 -0.6157,1.21163 2.24709,1.80214 6.53031,6.01587 8.92582,8.78101 8.69091,10.03189 16.7128,24.40687 21.48636,38.50286 3.02014,8.91829 4.82305,17.26819 5.78568,26.79539 0.37493,3.7107 0.51889,13.5889 0.25657,17.6052 -0.93499,14.3153 -4.60945,29.0116 -11.27757,45.1054 -10.11052,24.402 -27.46078,51.03772 -55.90782,85.82802 -6.31894,7.7279 -9.92733,12.0323 -29.84874,35.6055 -12.464159,14.7491 -19.831409,23.7038 -25.691589,31.2278 -3.79971,4.8785 -4.15289,5.3736 -4.03937,5.663 0.13129,0.3345 13.28848,5.277 14.11311,5.3015 0.14922,0 0.88955,-0.6324 1.64521,-1.4152 z m -17.4863,-5.5206 c 0.32109,-0.4033 1.93257,-2.48 3.58106,-4.6149 6.63721,-8.5957 13.05842,-16.3757 31.774419,-38.4981 20.03756,-23.6845 25.27883,-30.0058 33.02126,-39.8253 37.0958,-47.04812 54.34256,-81.54482 57.7884,-115.58752 0.36808,-3.6364 0.51761,-13.4144 0.26381,-17.2519 -1.52714,-23.091 -9.37017,-44.42351 -23.00861,-62.58192 -4.69416,-6.24986 -10.34777,-11.87585 -15.98575,-15.90768 -1.08525,-0.77607 -2.18073,-1.51839 -2.43445,-1.64958 -0.29602,-0.15308 -1.59972,-0.30317 -3.63883,-0.41891 -11.63023,-0.6601 -24.90937,2.27051 -37.99753,8.38577 -17.962619,8.3928 -37.714909,24.2629 -53.646869,43.10298 -1.67255,1.97783 -2.68839,3.37158 -3.58363,4.91674 -1.76123,3.04 -4.29089,7.9914 -4.29089,8.3989 0,0.1884 0.31092,1.1066 0.69091,2.0405 1.79751,4.4177 3.07597,9.2831 3.71675,14.1445 0.44894,3.4061 0.34525,10.0643 -0.19815,12.7251 -0.1328,0.6502 -0.51473,0.9902 -1.11252,0.9902 -0.78437,0 -1.05913,-0.5635 -0.84403,-1.7312 0.0956,-0.5186 0.21927,-2.7284 0.27495,-4.9108 0.11176,-4.3794 -0.0911,-6.7929 -0.90357,-10.7457 -0.79846,-3.885 -2.53093,-9.2665 -2.9832,-9.2665 -0.55693,0 -3.95339,9.5575 -5.18053,14.5778 -0.81672,3.3413 -1.4627,6.7684 -1.8204,9.6576 -0.22552,1.8216 -0.22613,2.37 -0.005,4.5692 0.2686,2.6722 0.21451,3.1084 -0.47694,3.8465 -0.80835,0.8629 -2.5791,0.8477 -3.15227,-0.027 -0.13783,-0.2103 -0.32397,-1.0916 -0.41366,-1.9584 -0.0897,-0.8667 -0.24586,-1.7306 -0.34709,-1.9197 -0.10118,-0.1892 -0.18404,-0.8789 -0.18404,-1.5327 0,-1.3173 -0.43259,-3.9247 -1.23764,-7.4598 -0.67544,-2.966 -0.6735,-2.9624 -1.50323,-2.8297 -1.1513,0.1841 -2.30483,-0.7019 -2.53901,-1.9502 -0.0941,-0.5014 0.0118,-0.8479 0.62054,-2.032 l 0.73394,-1.4276 -0.98367,-2.3066 c -2.25682,-5.2921 -6.14421,-12.3612 -10.23362,-18.6096 -16.7590398,-25.60676 -38.28871,-45.05519 -60.509931,-54.66051 -14.11256,-6.10029 -27.14656,-7.61134 -38.203046,-4.42896 -10.54722,3.03581 -20.186447,10.12648 -26.184898,19.26176 -4.465286,6.80036 -7.635896,16.42708 -8.756236,26.5859 -0.4124,3.73957 -0.62338,9.56243 -0.44541,12.29301 0.33645,5.1621 2.98089,16.009 6.32886,25.9597 6.919671,20.5661 16.624284,41.1947 31.89812,67.8041 16.82094,29.3048 38.353651,61.49912 64.4433012,96.35172 4.46923,5.9703 4.60985,6.1233 8.18662,8.9087 17.8782698,13.9224 38.3744998,26.5531 57.6212198,35.5087 3.83846,1.786 10.79682,4.8214 11.07278,4.8302 0.11223,0 0.4668,-0.3235 0.78789,-0.7268 z m -86.28289,-56.5065 c -0.0908,-0.1696 -1.65771,-2.3628 -3.48203,-4.8736 -30.034781,-41.3373 -53.124121,-78.12802 -69.145917,-110.17762 -7.743138,-15.4892 -12.64157,-27.2152 -17.895934,-42.8398 -1.88468,-5.6044 0.26938,4.6908 3.1223,14.9229 7.165813,25.7002 18.423684,52.1745 34.33307,80.7386 5.4796,9.83832 6.34584,11.22372 8.99528,14.38712 11.18822,13.3584 29.733201,33.7506 41.788981,45.9513 2.07088,2.0958 2.6507,2.5758 2.28425,1.8911 z m -67.176357,-79.86782 c -12.603032,-25.6263 -22.091984,-50.7905 -26.754534,-70.9517 -3.69135,-15.9618 -5.01403,-31.8712 -3.65009,-43.90424 0.13982,-1.2335 0.25656,-3.09671 0.25942,-4.14045 0.01,-3.62933 0.75086,-8.99153 1.80916,-13.09379 1.51546,-5.8744 3.67269,-10.68705 6.89022,-15.37177 0.71686,-1.04374 1.2265,-1.92369 1.13254,-1.95547 -0.58654,-0.19828 -7.05351,5.1403 -10.43925,8.61776 -9.21713,9.46681 -14.00152,20.03171 -15.26448,33.70705 -0.24072,2.60641 -0.24345,9.17981 -0.006,11.90381 1.19779,13.6807 5.56366,28.2907 13.37813,44.7686 7.00846,14.7782 18.61988,33.708 31.905385,52.0143 2.74524,3.7827 3.54709,4.8005 3.67845,4.6692 0.0518,-0.052 -1.27127,-2.8702 -2.93998,-6.2633 z m 125.241417,-80.1054 c 0.40525,-1.3693 0.96148,-3.1883 1.23608,-4.0422 0.27459,-0.854 0.46365,-1.5915 0.42013,-1.639 -0.0434,-0.048 -0.22921,0.099 -0.4127,0.3253 -0.54864,0.6767 -3.08702,4.9689 -3.08761,5.2208 -0.002,0.5364 0.75872,2.7409 0.9257,2.6852 0.0999,-0.033 0.51314,-1.1808 0.9184,-2.5501 z m -1.08511,-9.6444 c 2.49733,-3.8904 2.55354,-3.9991 3.0536,-5.9088 0.2802,-1.07 0.82163,-2.9806 1.20316,-4.2459 l 0.69371,-2.3003 -0.46545,-0.805 c -1.00482,-1.73782 -3.79256,-5.87836 -5.46049,-8.1103 -7.48693,-10.01863 -18.18387,-20.53462 -29.71495,-29.21232 -15.3158398,-11.52589 -32.16804,-19.96283 -49.229171,-24.64622 -4.62168,-1.26869 -11.16923,-2.41653 -13.71281,-2.40397 -1.39233,0.007 -1.00093,0.21667 1.09407,0.58642 11.00217,1.94172 23.120571,7.08258 34.589961,14.67375 8.1676102,5.40581 14.4823502,10.65012 22.5216502,18.70392 11.5128398,11.5336 20.1475298,22.90627 26.9928798,35.55212 1.82289,3.3675 4.6378,9.4107 5.48615,11.7779 0.0595,0.1661 0.17464,0.3019 0.25587,0.3019 0.0812,0 1.29254,-1.7834 2.69182,-3.9632 z m 9.0137,-12.9867 c 0.45174,-0.5931 1.80478,-2.32038 3.00677,-3.83854 1.202,-1.51818 2.94396,-3.96362 3.87104,-5.43435 10.31106,-16.35757 23.59874,-30.5178 38.72852,-41.27167 8.140599,-5.78614 17.320609,-10.68595 25.920909,-13.83525 0.88271,-0.32324 1.07491,-0.61657 0.40399,-0.61657 -0.89267,0 -4.79708,0.569 -7.19037,1.04791 -18.317249,3.66522 -37.209379,16.5623 -50.851979,34.71512 -5.73815,7.63517 -10.37262,15.91874 -13.89255,24.83123 -1.74046,4.40682 -1.77286,4.51602 -1.49439,5.03632 0.13069,0.2442 0.33642,0.444 0.45717,0.444 0.12075,0 0.58915,-0.4852 1.04089,-1.0782 z m 38.40589,-38.46382 c 16.182199,-11.95571 32.529679,-19.43952 48.147639,-22.04173 1.62733,-0.27116 3.96801,-0.58063 5.20153,-0.68774 3.11978,-0.27088 3.70914,-0.35285 3.70914,-0.51582 0,-0.18584 -1.8354,-0.86051 -4.31297,-1.58542 -2.38583,-0.69807 -3.55531,-0.72696 -6.72822,-0.16622 -15.16207,2.6796 -31.43765,11.24673 -46.321249,24.38257 -3.89183,3.43481 -3.79047,3.63953 0.30413,0.61436 z m -192.995591,-1.5605 c 2.26967,-3.6021 4.225944,-6.11577 7.061458,-9.07343 2.305142,-2.40444 1.793567,-2.24913 -0.662815,0.20123 -2.018859,2.01391 -3.379853,3.65012 -4.976263,5.98252 -1.02827,1.50233 -2.55555,4.11835 -2.55555,4.37732 0,0.2598 0.18591,0.0157 1.13317,-1.48764 z M 168.5353,816.47203 c -1.11996,-0.5833 -3.9282,-1.68732 -6.32059,-2.48485 -4.20602,-1.40213 -9.0366,-2.32101 -13.33749,-2.53704 -1.88573,-0.0947 -2.10918,-0.0773 -1.88114,0.14656 0.14232,0.13971 0.72457,0.43398 1.29389,0.6539 0.56932,0.21995 1.77866,0.73004 2.68746,1.13353 1.54504,0.68601 1.80835,0.74636 4.05418,0.92918 4.23096,0.34444 7.96879,0.99607 11.80411,2.05792 2.25157,0.62336 2.76093,0.65356 1.69958,0.10075 z"
         id="path3004"
         inkscape:connector-curvature="0" />
      <path
         style="fill:#231e20"
         d="m 67.428301,1162.7624 c -0.15136,-0.1185 -2.45343,-2.9894 -5.1157,-6.3796 -7.77367,-9.8993 -8.37526,-10.6373 -8.67924,-10.6472 -0.1874,-0.011 -0.60119,0.5362 -1.17746,1.5432 -0.72316,1.2637 -0.9641,1.5527 -1.29454,1.5527 -0.47122,0 -0.94821,-0.416 -0.94821,-0.827 0,-0.1566 0.47185,-1.1274 1.04855,-2.1572 0.5767,-1.0298 1.01334,-1.9642 0.9703,-2.0763 -0.0744,-0.194 -3.07916,-3.954 -16.73325,-20.9398 -11.77928,-14.6534 -20.33453,-25.4785 -26.4220898,-33.4323 -2.53284,-3.3093 -3.49285,-4.3886 -7.49521,-8.4267 -2.99748,-3.0242 -5.47683,-5.3488 -7.1452,-6.6991 -15.1208302,-12.2383 -32.9330212,-29.2648 -42.3806012,-40.5114 -4.9038,-5.8376 -8.0432,-10.2559 -13.42291,-18.8908 -1.18229,-1.8977 -2.52822,-4.0538 -2.99092,-4.7913 -0.46271,-0.7375 -2.72973,-3.6876 -5.03784,-6.5557 -20.168868,-25.06272 -33.82492,-45.18582 -44.80807,-66.02762 -16.86745,-32.008 -21.81115,-58.8716 -14.81683,-80.51302 3.18613,-9.85833 8.69862,-18.12816 17.06659,-25.60327 7.95526,-7.10646 20.901842,-14.50198 31.181834,-17.81216 4.11095,-1.32372 12.274806,-3.25468 16.088256,-3.80527 5.26927,-0.76077 13.14111,-0.81441 17.80745,-0.12132 19.354711,2.87477 39.9522012,12.10222 59.049581,26.45359 14.20795,10.67704 26.36721,23.09726 34.20451,34.93864 0.89491,1.35212 1.68758,2.4584 1.7615,2.4584 0.24339,0 0.4681,-0.41292 1.03266,-1.89771 6.33296,-16.65529 17.92974,-32.88773 31.75,-44.44155 10.82646,-9.051 23.393009,-15.21791 35.625089,-17.48265 4.22066,-0.78145 5.89718,-0.92598 11.29996,-0.97417 2.894,-0.0258 5.61117,-0.12534 6.03815,-0.22117 4.53331,-1.01739 12.67245,-1.44797 17.33812,-0.91717 9.3481,1.06344 19.06537,4.52919 29.60179,10.5577 12.81129,7.33007 22.7849,16.64234 29.80812,27.83154 5.24844,8.36171 8.52584,17.32456 10.29696,28.15946 0.24723,1.51243 0.64094,3.40973 0.87492,4.21623 4.40722,15.1913 5.29746,30.9463 2.72368,48.2025 -4.61386,30.9345 -21.29615,65.6428 -51.62541,107.40932 -10.753,14.808 -22.03601,29.0933 -43.33086,54.8609 -16.8022,20.3313 -25.04919,30.7478 -33.439219,42.2362 -1.59087,2.1783 -2.11871,2.556 -3.16758,2.2664 -0.8012,-0.2212 -1.35721,-0.8514 -1.46268,-1.6579 -0.0714,-0.5463 0.009,-0.8014 0.45471,-1.4402 1.34413,-1.927 1.43632,-2.0885 1.28055,-2.2443 -0.24587,-0.2459 -4.06607,-1.38 -4.25501,-1.2633 -0.0915,0.057 -3.70902,3.6747 -8.03873,8.0402 -4.32967,4.3655 -8.39818,8.392 -9.04109,8.9481 -1.28485,1.1111 -1.89136,1.2681 -2.73342,0.7077 -0.24858,-0.1654 -2.41442,-2.125 -4.81298,-4.3548 -2.39855,-2.2298 -4.52571,-4.0771 -4.72707,-4.105 -0.30799,-0.043 -0.72839,0.5383 -2.64845,3.6609 -1.25531,2.0415 -2.28238,3.85 -2.28238,4.019 0,0.1688 2.18316,3.0629 4.85146,6.4313 7.92577,10.0052 9.12254,11.5802 9.12254,12.0063 0,0.2174 -0.17253,0.5161 -0.38342,0.6639 -0.46293,0.3242 -0.51091,0.3271 -0.86091,0.053 z m -11.64951,-24.5339 c 1.21843,-1.9757 2.19196,-3.7228 2.16337,-3.8826 -0.0286,-0.1597 -2.61383,-2.645 -5.74505,-5.5227 -15.67687,-14.4077 -19.85869,-18.3013 -29.73833,-27.6889 -2.59775,-2.4684 -4.87354,-4.5933 -5.05733,-4.722 -0.44188,-0.3096 -0.61756,-0.1069 -0.32033,0.3696 0.39601,0.6348 6.76771,8.6634 17.75849,22.3765 20.04969,25.0157 18.25548,22.8181 18.55,22.7199 0.0956,-0.032 1.17076,-1.6743 2.38918,-3.6498 z m 21.5629,-5.4413 c 4.26359,-4.2967 7.03014,-7.2126 7.03014,-7.4097 0,-0.2254 -0.2246,-0.4068 -0.73321,-0.5921 -0.40327,-0.1469 -2.1426,-0.7731 -3.86521,-1.3914 -1.72259,-0.6184 -4.43588,-1.6337 -6.02952,-2.2562 -1.59364,-0.6225 -3.05667,-1.109 -3.25118,-1.0812 -0.61567,0.088 -8.63023,11.5187 -8.52087,12.1527 0.065,0.3763 7.78098,7.6479 8.12491,7.6569 0.11814,0 3.37837,-3.1826 7.24494,-7.079 z m -14.94083,-4.7873 c 1.02202,-1.4944 2.7357,-3.9466 3.80818,-5.4493 2.33466,-3.2712 2.35143,-3.2999 2.06504,-3.5376 -0.12031,-0.1 -1.38023,-0.6793 -2.79981,-1.2876 -13.91253,-5.9622 -27.23105,-13.0902 -42.24348,-22.6084 -1.62542,-1.0306 -1.82825,-1.1128 -1.82825,-0.741 0,0.4579 38.40199,36.3411 38.89195,36.3411 0.13649,0 1.08435,-1.2227 2.10637,-2.7172 z m 35.08934,-5.348 c 6.307569,-8.432 14.104569,-18.1762 28.540769,-35.6683 14.64412,-17.744 21.47506,-26.1984 29.75982,-36.8327 22.04746,-28.2999 36.91128,-51.06532 48.04096,-73.57912 11.44864,-23.1592 17.18727,-43.1612 18.21463,-63.4869 0.19663,-3.8905 0.0642,-10.6557 -0.21927,-11.1982 -0.28324,-0.5421 -0.40703,-0.073 -0.81574,3.0898 -1.81095,14.0151 -6.40229,30.638 -13.09191,47.3992 -11.05941,27.7099 -29.70817,60.43322 -53.31256,93.54852 -19.32518,27.1119 -40.0166,52.8577 -59.686489,74.2664 -1.43699,1.564 -2.61272,2.9326 -2.61272,3.0413 0,0.1982 0.41224,0.3949 1.57042,0.7493 0.34187,0.1046 0.80179,0.382 1.02206,0.6165 0.22026,0.2345 0.49387,0.4263 0.60801,0.4263 0.11416,0 1.00606,-1.0675 1.98202,-2.3721 z m -8.86195,-1.4889 c 0.3632,-0.4156 2.26142,-2.4923 4.21826,-4.6149 31.219259,-33.8631 65.617549,-79.9709 87.067049,-116.70542 13.36412,-22.8875 24.01812,-45.6989 30.04529,-64.3304 5.8994,-18.2366 8.82047,-36.4243 8.12884,-50.6135 -0.31771,-6.5181 -0.39622,-6.9393 -2.20705,-11.83822 -1.19933,-3.24466 -2.52928,-6.28045 -4.29888,-9.81279 -7.23511,-14.44213 -16.6114,-26.09698 -27.19674,-33.80593 -6.14688,-4.47656 -12.97094,-7.70618 -20.08208,-9.50419 -1.99664,-0.50484 -2.69562,-0.56056 -2.61231,-0.20824 0.0307,0.12972 0.94857,0.95751 2.03976,1.83953 2.41705,1.95373 7.26546,6.78776 9.51157,9.48335 8.44117,10.13036 15.98609,23.79977 20.6157,37.35028 3.13246,9.16841 5.02583,18.04691 5.96001,27.94801 0.35764,3.7907 0.30513,16.2738 -0.0846,20.0984 -2.38623,23.4192 -11.74256,48.064 -28.4332,74.8937 -9.61598,15.45752 -22.3081,32.75482 -39.03724,53.20142 -4.39565,5.3724 -13.08569,15.7601 -21.93725,26.2228 -16.860129,19.929 -22.646879,26.87 -28.478149,34.1587 -5.63435,7.0425 -8.68913,11.0701 -8.68913,11.4562 0,0.1987 0.0265,0.3613 0.0586,0.3613 0.0323,0 1.48783,0.5525 3.23472,1.2278 4.4736,1.7294 10.69672,3.9297 11.14173,3.9395 0.23348,0.01 0.62372,-0.2766 1.03512,-0.7474 z m -14.76734,-8.947 c 6.79159,-8.9114 14.30253,-18.0263 35.363479,-42.9155 16.18702,-19.1293 20.88981,-24.7813 27.70454,-33.2961 31.51039,-39.37142 49.01546,-69.42702 56.88774,-97.67422 2.09283,-7.5095 3.37711,-14.3769 4.18889,-22.3987 0.38605,-3.8148 0.43872,-15.4571 0.0875,-19.3221 -1.84571,-20.3078 -8.23369,-38.61088 -19.23731,-55.11972 -5.67501,-8.51427 -12.0775,-15.45729 -18.93145,-20.52971 -3.44033,-2.5461 -3.20406,-2.455 -6.89657,-2.65918 -12.69048,-0.70179 -26.96871,2.73745 -41.13911,9.90932 -17.264289,8.73776 -36.116879,24.30908 -51.106349,42.21136 -1.49364,1.78389 -2.43183,3.11121 -3.38975,4.79563 -1.79995,3.165 -4.07397,7.6692 -4.07397,8.0693 0,0.1798 0.31091,1.0911 0.6909,2.025 1.83631,4.5131 3.11006,9.3765 3.72711,14.2308 0.51086,4.019 0.27507,12.0256 -0.38489,13.0683 -0.30501,0.4819 -1.18296,0.5334 -1.42376,0.083 -0.10562,-0.1973 -0.0794,-0.9726 0.0745,-2.1996 0.32082,-2.5581 0.31296,-7.7674 -0.0157,-10.4398 -0.49306,-4.0085 -1.68481,-8.8979 -3.01584,-12.373 -0.81189,-2.1197 -0.91906,-2.0458 -2.37643,1.6389 -2.83015,7.1555 -4.73067,14.3908 -5.63732,21.4613 -0.22883,1.7849 -0.22868,2.2855 0.002,4.4715 0.19455,1.848 0.21212,2.604 0.0705,3.0333 -0.33459,1.0138 -1.61352,1.6149 -2.68413,1.2616 -0.77387,-0.2554 -0.92246,-0.5795 -1.11389,-2.4301 -0.0884,-0.8543 -0.23846,-1.6985 -0.33351,-1.8761 -0.0949,-0.1776 -0.17281,-0.864 -0.17281,-1.5253 0,-1.3813 -0.6249,-4.9652 -1.43373,-8.2226 l -0.55687,-2.2427 -0.85927,0.047 c -1.06703,0.059 -1.89428,-0.4022 -2.24982,-1.2531 -0.36247,-0.8675 -0.32689,-1.0676 0.46349,-2.6054 l 0.71753,-1.396 -0.91343,-2.1406 c -1.97215,-4.6211 -5.15865,-10.6262 -8.39883,-15.8275 -10.9158,-17.5224 -25.1432898,-33.36087 -39.92994,-44.45114 -9.52591,-7.14462 -19.73461,-12.6818 -29.389601,-15.94093 -11.43057,-3.85844 -22.25818,-4.48491 -31.506726,-1.8229 -12.30386,3.54143 -23.157512,12.47764 -28.789934,23.70381 -4.04056,8.05336 -6.25497,17.42135 -6.72076,28.4319 -0.20214,4.77796 -0.0217,7.78706 0.68052,11.34476 2.66521,13.5045 8.418434,30.3626 16.338161,47.8739 12.517533,27.6777 33.305839,63.0146 58.509439,99.45702 11.673191,16.8785 30.2991112,42.3456 32.2544112,44.1012 1.94578999,1.747 10.69923,8.3225 16.0903998,12.0869 15.12267,10.5595 30.10369,19.2303 45.70679,26.4546 3.6003,1.6669 9.90263,4.3795 10.19131,4.3864 0.15438,0 1.41941,-1.4997 2.93281,-3.4854 z m -87.65217,-52.8467 c 0,-0.2361 -0.55345,-1.0378 -3.59934,-5.2144 -25.127211,-34.4543 -45.356781,-65.77442 -61.309347,-94.92132 -12.078337,-22.0682 -20.388687,-40.6796 -26.234424,-58.753 -1.05502,-3.2618 -1.1315,-3.4455 -1.34546,-3.2316 -0.24253,0.2426 0.90275,5.8259 2.42767,11.8352 7.411152,29.2049 20.041674,59.158 38.78795,91.98522 3.69778,6.4753 3.67401,6.4393 6.31261,9.5748 12.29253,14.6075 27.199231,30.9911 41.480551,45.5902 2.81678,2.8795 3.47979,3.4768 3.47979,3.1349 z m -64.620977,-74.30102 c -0.0673,-0.2135 -1.26254,-2.6784 -2.6562,-5.4775 -11.182904,-22.4604 -20.807384,-47.0346 -25.776754,-65.8158 -4.90502,-18.538 -6.74982,-36.4186 -5.19411,-50.34325 0.1398,-1.25123 0.25575,-3.0901 0.25767,-4.0864 0.002,-0.99628 0.11884,-2.8983 0.2598,-4.2267 1.00577,-9.4787 3.79438,-17.4546 8.43175,-24.11628 0.58056,-0.834 1.16995,-1.70298 1.30975,-1.93106 0.7477,-1.21986 -0.78477,-0.30634 -4.56715,2.72253 -13.29413,10.64578 -20.16249,23.18716 -21.64697,39.52663 -0.2382,2.62174 -0.23822,9.01403 -6e-5,11.91293 0.99241,12.0792 4.80573,25.6809 11.2953,40.2889 7.50106,16.8848 19.798904,37.1436 36.025504,59.3464 1.75052,2.3952 2.57605,3.1981 2.26147,2.1996 z m 121.384427,-84.5341 c 0.40166,-1.5447 1.42008,-4.9323 1.88013,-6.2538 0.69242,-1.9891 0.7594,-2.329 0.45902,-2.329 -0.34139,0 -3.89663,5.7242 -3.89663,6.2739 0,0.1452 0.19746,0.889 0.43879,1.653 0.50213,1.5895 0.82649,1.7797 1.11869,0.6559 z m -2.33382,-8.9024 c 0.37954,-0.591 1.51112,-2.3433 2.51465,-3.8939 1.67998,-2.596 1.86217,-2.9611 2.29909,-4.6079 0.26101,-0.9837 0.82103,-2.9433 1.24453,-4.3547 l 0.77,-2.5661 -0.72667,-1.2293 c -1.23793,-2.09412 -3.74827,-5.78024 -5.59546,-8.21625 -14.1905,-18.71379 -36.1254798,-36.02295 -58.48689,-46.15272 -10.08653,-4.56923 -21.268971,-8.08662 -29.572441,-9.30191 -2.55262,-0.37359 -6.30593,-0.68047 -6.66015,-0.54453 -0.59178,0.22708 0.0587,0.45371 2.52923,0.88112 22.530591,3.89804 45.9923912,18.95973 66.509181,42.6967 7.38827,8.54789 13.75143,17.73306 18.58454,26.82669 1.55839,2.9321 3.88594,7.8914 4.77707,10.1785 0.70707,1.8147 0.81928,1.8323 1.81332,0.2843 z m 11.56498,-16.7598 c 0.82713,-1.09115 2.21725,-2.87672 3.08912,-3.9679 0.87187,-1.09119 2.04211,-2.72148 2.60052,-3.62289 4.08353,-6.59167 8.69964,-12.8546 14.30502,-19.40834 2.68662,-3.14115 11.04907,-11.51127 14.24405,-14.25713 11.89644,-10.22411 24.151709,-17.67637 36.294409,-22.07011 2.43363,-0.88058 2.13465,-1.19009 -0.84915,-0.87908 -7.21281,0.75186 -14.95801,3.03331 -22.075079,6.50251 -21.99041,10.71922 -40.20703,31.42492 -49.43546,56.19024 -0.46915,1.259 -0.85315,2.4144 -0.85334,2.5677 0,0.4443 0.68256,1.2092 0.94622,1.0595 0.12636,-0.072 0.90652,-1.0233 1.73369,-2.1145 z M -104.28798,837.86677 c 1.50139,-2.66841 3.35103,-5.44153 5.005441,-7.50456 1.374866,-1.71442 4.757741,-5.2405 6.170782,-6.432 0.880887,-0.74279 1.151951,-1.34324 0.436384,-0.9667 -1.265061,0.6657 -5.369166,4.62468 -7.405977,7.14406 -1.56328,1.93369 -3.5255,5.00272 -4.63001,7.24165 -1.06623,2.16133 -1.47852,3.34135 -0.99455,2.84655 0.13921,-0.14233 0.77728,-1.19038 1.41793,-2.329 z m 191.765151,1.25773 c 19.933229,-15.07939 38.556269,-23.07971 57.357979,-24.64056 1.23106,-0.10219 2.26928,-0.21681 2.30718,-0.25469 0.36295,-0.36296 -2.46559,-1.47081 -6.01189,-2.35465 -1.70153,-0.42406 -2.60051,-0.35392 -7.15952,0.55874 -15.24096,3.051 -31.35948,11.9978 -46.713699,25.92902 -2.50158,2.26976 -2.37102,2.72219 0.21995,0.76214 z m 83.153949,-21.71296 c 0,-0.4417 -7.01289,-3.27013 -10.6099,-4.27915 -3.70548,-1.03946 -7.63468,-1.6871 -11.3172,-1.86535 -1.42267,-0.0689 -2.21182,-0.0435 -2.28397,0.0732 -0.15533,0.25136 0.13419,0.42886 1.61114,0.98776 0.71165,0.26931 2.03943,0.8219 2.95065,1.22799 1.55705,0.69389 1.8011,0.74976 4.05419,0.92789 4.83913,0.38263 9.14147,1.2054 13.95617,2.66901 1.62702,0.49458 1.63892,0.49645 1.63892,0.25869 z"
         id="path3002"
         inkscape:connector-curvature="0" />
    </g>
    <rect
       style="fill:none;stroke:#9c9c9c;stroke-width:0.45441034;stroke-miterlimit:4;stroke-opacity:1;stroke-dasharray:0.45441034,3.63528275;stroke-dashoffset:0"
       id="rect4354"
       width="40.544342"
       height="39.890762"
       x="135.86513"
       y="936.90826" />
    <text
       xml:space="preserve"
       style="font-size:19.72412681999999862px;font-style:normal;font-weight:normal;text-align:start;line-height:125%;letter-spacing:0px;word-spacing:0px;text-anchor:start;fill:#ff6de8;fill-opacity:1;stroke:#ff6de8;font-family:Sans;stroke-opacity:1;stroke-width:0.5;stroke-miterlimit:4;stroke-dasharray:none"
       x="9.7446089"
       y="954.21069"
       id="text4356"
       sodipodi:linespacing="125%"><tspan
         sodipodi:role="line"
         x="9.7446089"
         y="954.21069"
         id="tspan4360"
         style="font-size:8px;font-style:normal;font-variant:normal;font-weight:normal;font-stretch:normal;font-family:SP Sutsakhorn;-inkscape-font-specification:SP Sutsakhorn;fill:#ff6de8;fill-opacity:1;stroke:#ff6de8;stroke-opacity:1;stroke-width:0.5;stroke-miterlimit:4;stroke-dasharray:none">...</tspan></text>
    <text
       xml:space="preserve"
       style="font-size:22.49241828999999981px;font-style:normal;font-weight:normal;text-align:start;line-height:200%;letter-spacing:0px;word-spacing:0px;text-anchor:start;fill:#ff6de8;fill-opacity:1;stroke:#ff6de8;font-family:Sans;stroke-width:0.50000000000000000;stroke-miterlimit:4;stroke-dasharray:none;stroke-opacity:1"
       x="14.712387"
       y="998.46771"
       id="text4356-8"
       sodipodi:linespacing="200%"><tspan
         sodipodi:role="line"
         x="14.712387"
         y="998.46771"
         id="tspan4360-9"
         style="font-size:9.12280464000000002px;font-style:normal;font-variant:normal;font-weight:normal;font-stretch:normal;line-height:200%;font-family:SP Sutsakhorn;-inkscape-font-specification:SP Sutsakhorn;fill:#ff6de8;fill-opacity:1;stroke-width:0.50000000000000000;stroke-miterlimit:4;stroke-dasharray:none;stroke:#ff6de8;stroke-opacity:1">&quot;</tspan><tspan
         sodipodi:role="line"
         x="14.712387"
         y="1016.7133"
         style="font-size:9.12280464000000002px;font-style:normal;font-variant:normal;font-weight:normal;font-stretch:normal;line-height:200%;font-family:SP Sutsakhorn;-inkscape-font-specification:SP Sutsakhorn;fill:#ff6de8;fill-opacity:1;stroke-width:0.50000000000000000;stroke-miterlimit:4;stroke-dasharray:none;stroke:#ff6de8;stroke-opacity:1"
         id="tspan4385">...&quot;</tspan></text>
    <path
       style="fill:none;stroke:#808080;stroke-width:0.40000001;stroke-linecap:butt;stroke-linejoin:miter;stroke-miterlimit:4;stroke-opacity:1;stroke-dasharray:0.40000001,2.40000004;stroke-dashoffset:0"
       d="m 11.738363,999.0517 154.622577,0 z"
       id="path4387"
       inkscape:connector-curvature="0" />
    <path
       style="fill:none;stroke:#808080;stroke-width:0.40000001;stroke-linecap:butt;stroke-linejoin:miter;stroke-miterlimit:4;stroke-opacity:1;stroke-dasharray:0.40000001,2.40000004;stroke-dashoffset:0"
       d="m 12.359386,1017.4803 154.622584,0 z"
       id="path4387-9"
       inkscape:connector-curvature="0" />
    <path
       inkscape:connector-curvature="0"
       id="path4407"
       d="m 12.359386,1031.4803 154.622584,0 z"
       style="fill:none;stroke:#808080;stroke-width:0.40000001;stroke-linecap:butt;stroke-linejoin:miter;stroke-miterlimit:4;stroke-opacity:1;stroke-dasharray:0.40000001,2.40000004;stroke-dashoffset:0" />
  </g>
</svg>
