<?xml version="1.0" encoding="UTF-8" standalone="no"?>
<!-- Created with Inkscape (http://www.inkscape.org/) -->

<svg
   xmlns:dc="http://purl.org/dc/elements/1.1/"
   xmlns:cc="http://creativecommons.org/ns#"
   xmlns:rdf="http://www.w3.org/1999/02/22-rdf-syntax-ns#"
   xmlns:svg="http://www.w3.org/2000/svg"
   xmlns="http://www.w3.org/2000/svg"
   xmlns:sodipodi="http://sodipodi.sourceforge.net/DTD/sodipodi-0.dtd"
   xmlns:inkscape="http://www.inkscape.org/namespaces/inkscape"
   width="1024"
   height="500"
   id="svg2"
   version="1.1"
   inkscape:version="0.48.3.1 r9886"
   inkscape:export-filename="/home/xavier/Desktop/heart.png"
   inkscape:export-xdpi="149.97072"
   inkscape:export-ydpi="149.97072"
   sodipodi:docname="teenword-feature.svg">
  <defs
     id="defs4" />
  <sodipodi:namedview
     id="base"
     pagecolor="#ffffff"
     bordercolor="#666666"
     borderopacity="1.0"
     inkscape:pageopacity="1"
     inkscape:pageshadow="2"
     inkscape:zoom="0.7"
     inkscape:cx="473.58306"
     inkscape:cy="272.74375"
     inkscape:document-units="px"
     inkscape:current-layer="layer1"
     showgrid="false"
     inkscape:window-width="1366"
     inkscape:window-height="739"
     inkscape:window-x="0"
     inkscape:window-y="0"
     inkscape:window-maximized="1" />
  <metadata
     id="metadata7">
    <rdf:RDF>
      <cc:Work
         rdf:about="">
        <dc:format>image/svg+xml</dc:format>
        <dc:type
           rdf:resource="http://purl.org/dc/dcmitype/StillImage" />
        <dc:title></dc:title>
      </cc:Work>
    </rdf:RDF>
  </metadata>
  <g
     inkscape:label="Layer 1"
     inkscape:groupmode="layer"
     id="layer1"
     transform="translate(0,-552.36218)">
    <path
       style="fill:none;stroke:#808080;stroke-width:2.15621066;stroke-linecap:butt;stroke-linejoin:miter;stroke-miterlimit:4;stroke-opacity:1;stroke-dasharray:2.15621078, 12.93726455;stroke-dashoffset:0"
       d="m 106.39092,798.50504 792.36666,0 z"
       id="path4387"
       inkscape:connector-curvature="0" />
    <path
       inkscape:connector-curvature="0"
       id="path3014"
       d="m 934.16347,700.61836 c -2.28588,-2.91551 -3.69938,-4.67179 -3.74716,-4.65588 -0.0291,0.01 -0.17776,0.22827 -0.33031,0.48568 -0.28769,0.48547 -0.38204,0.54982 -0.69198,0.47204 -0.1673,-0.042 -0.33937,-0.34782 -0.29395,-0.52248 0.018,-0.069 0.17854,-0.38833 0.35689,-0.7097 l 0.32425,-0.58435 -0.12849,-0.1738 c -0.0707,-0.0956 -1.32784,-1.66322 -2.79371,-3.48365 -6.04307,-7.50473 -10.01598,-12.52127 -12.55165,-15.8488 -0.45005,-0.5906 -3.32592,-3.39417 -4.22409,-4.11789 -3.09851,-2.49671 -6.4077,-5.49663 -9.83997,-8.92035 -4.53487,-4.52357 -6.11912,-6.52064 -9.53372,-12.01804 -0.49746,-0.8009 -0.99756,-1.49926 -1.71847,-2.39982 -3.24627,-4.05521 -5.13836,-6.53236 -7.38576,-9.66958 -1.16816,-1.63069 -3.51555,-5.14649 -4.44722,-6.6608 -0.63734,-1.03592 -1.51967,-2.39681 -2.45545,-3.78722 -1.06183,-1.5777 -2.32491,-4.24204 -4.24548,-8.95543 -1.77578,-4.35802 -2.80679,-8.33177 -3.12844,-12.05764 -0.0775,-0.8982 -0.0795,-3.66858 -0.003,-4.50699 0.26478,-2.90807 1.07778,-5.73144 2.29984,-7.98682 1.57343,-2.9038 4.13091,-5.61717 7.27001,-7.71308 1.74352,-1.16413 4.15036,-2.4757 5.88248,-3.20556 0.96555,-0.40687 2.61438,-0.96079 3.48267,-1.17002 0.35412,-0.0853 0.99944,-0.24372 1.43405,-0.35198 2.28554,-0.56931 4.08301,-0.77156 6.35074,-0.71459 2.18384,0.0549 4.17548,0.39173 6.82768,1.15474 7.41444,2.13312 15.04241,6.77757 21.43508,13.05123 2.38932,2.34485 4.19473,4.47932 5.69988,6.73881 0.276,0.41433 0.52202,0.75333 0.5467,0.75333 0.0248,0 0.0772,-0.0988 0.11661,-0.21951 0.17461,-0.53437 0.86861,-2.12607 1.37176,-3.1461 2.40589,-4.87748 5.94973,-9.34286 9.95012,-12.53751 3.81679,-3.04803 7.8004,-4.92844 11.99911,-5.664 1.36774,-0.23961 1.92037,-0.2846 3.65827,-0.29784 1.41111,-0.0107 1.77189,-0.0318 2.3413,-0.13675 1.63124,-0.30061 4.18083,-0.39552 5.73651,-0.21355 2.50462,0.293 4.94508,1.05842 7.75517,2.4323 5.46846,2.6736 9.61461,6.26326 12.38492,10.72261 1.78856,2.87905 2.93776,6.06654 3.5023,9.71427 0.0614,0.39687 0.21624,1.09034 0.34403,1.54103 0.6588,2.3234 1.06793,4.67354 1.24553,7.15467 0.10418,1.45552 0.0378,5.29416 -0.11712,6.77602 -0.39632,3.79009 -0.97912,6.47856 -2.23702,10.31948 -1.12036,3.4209 -2.34176,6.3601 -4.11545,9.90341 -4.23052,8.45129 -10.05169,17.11451 -19.06278,28.36969 -1.95447,2.44121 -5.02164,6.20587 -6.83442,8.38858 -2.5155,3.02882 -2.77362,3.34148 -3.81746,4.62404 -3.10248,3.81199 -5.72982,7.18712 -7.71037,9.90482 -0.64517,0.8853 -0.75398,0.98218 -1.10313,0.98218 -0.44395,0 -0.79584,-0.27222 -0.8712,-0.67397 -0.0482,-0.25697 -0.009,-0.36304 0.30503,-0.82139 0.14579,-0.21293 0.25623,-0.39531 0.24543,-0.40527 -0.0109,-0.01 -0.27744,-0.0976 -0.59253,-0.19467 l -0.57288,-0.17654 -2.93905,2.94621 c -1.61648,1.62041 -3.03125,3.00069 -3.14393,3.06729 -0.26478,0.15646 -0.50389,0.15316 -0.76826,-0.0105 -0.11672,-0.0723 -0.86335,-0.73716 -1.65919,-1.4776 -0.79584,-0.74043 -1.46855,-1.35431 -1.49493,-1.36413 -0.0733,-0.0273 -1.52112,2.28414 -1.52112,2.42852 0,0.036 0.41592,0.58799 0.92425,1.22708 0.81993,1.03077 2.78507,3.52912 3.54109,4.50189 0.30637,0.39424 0.34031,0.57167 0.15446,0.80793 -0.0933,0.11854 -0.17305,0.15422 -0.34506,0.15422 -0.22056,0 -0.23575,-0.0154 -1.06128,-1.06822 z m -3.27199,-7.33899 c 0.73306,-1.19944 0.85399,-1.41215 0.81928,-1.4409 -0.016,-0.0132 -0.87367,-0.79896 -1.90596,-1.74603 -1.03227,-0.94708 -2.30974,-2.11436 -2.83881,-2.59397 -1.01765,-0.9225 -2.33084,-2.15211 -5.60432,-5.24765 -1.10464,-1.04459 -2.11813,-1.99143 -2.2522,-2.10411 l -0.24378,-0.20486 0.203,0.26339 c 0.34489,0.4475 3.29319,4.15091 4.71112,5.91772 5.27069,6.56752 6.48539,8.07116 6.51831,8.06889 0.0205,0 0.28753,-0.41207 0.59336,-0.91248 z"
       style="fill:#ff6de8;fill-opacity:1" />
    <path
       inkscape:connector-curvature="0"
       id="path3012"
       d="m 938.45089,701.77879 c -0.0791,-0.0724 -0.82569,-1.00091 -1.65906,-2.06326 -2.43307,-3.10155 -2.84093,-3.60508 -2.9033,-3.58429 -0.0324,0.0109 -0.16152,0.20272 -0.28688,0.42646 -0.35335,0.63065 -0.5615,0.74659 -0.8401,0.46799 -0.21229,-0.21229 -0.17975,-0.40349 0.17889,-1.05088 0.17671,-0.31899 0.3213,-0.6132 0.3213,-0.65371 0,-0.0406 -0.88747,-1.17558 -1.97216,-2.52223 -3.27516,-4.0662 -8.23577,-10.26545 -9.35954,-11.69659 -1.66862,-2.12501 -3.29408,-4.21846 -3.79488,-4.88745 -0.65657,-0.8771 -3.2112,-3.43908 -4.36466,-4.37723 -3.56666,-2.90089 -7.07002,-6.0899 -10.60167,-9.65044 -3.96411,-3.99652 -5.63604,-6.11867 -8.68541,-11.02414 -0.8111,-1.30482 -1.11308,-1.7245 -2.40063,-3.33634 -5.90333,-7.39022 -9.50469,-12.50681 -13.43067,-19.08151 -0.95494,-1.59922 -2.82004,-5.19057 -3.60212,-6.93608 -2.44164,-5.44948 -3.71142,-9.76529 -4.18468,-14.22334 -0.1036,-0.97585 -0.13857,-3.4218 -0.0632,-4.41919 0.30626,-4.05214 1.49188,-7.48974 3.59959,-10.43678 1.17341,-1.64068 2.93161,-3.41406 4.74993,-4.79091 2.49712,-1.89087 6.13291,-3.83593 8.89217,-4.75712 0.78114,-0.26079 1.23447,-0.38553 2.86983,-0.78967 5.00424,-1.23667 8.68485,-1.07686 14.22334,0.61762 6.74606,2.06393 13.83445,6.36617 19.84243,12.0432 2.58881,2.4462 4.75011,4.9301 6.34688,7.29421 0.35877,0.53119 0.67213,0.97274 0.69636,0.98123 0.0242,0.008 0.21107,-0.39977 0.41522,-0.90725 2.70348,-6.72031 7.58042,-12.84278 13.24252,-16.62451 4.51617,-3.01636 9.47511,-4.54776 14.13726,-4.3658 0.7285,0.0284 0.96429,0.0149 1.48103,-0.0854 1.37078,-0.26596 2.0695,-0.32707 3.77533,-0.33022 1.70108,-0.003 2.05679,0.0265 3.51194,0.29294 4.17256,0.76389 9.59448,3.50379 13.42033,6.78182 4.8821,4.18303 7.85271,9.50127 8.79735,15.74981 0.0632,0.4185 0.19292,1.02575 0.2881,1.34944 2.01029,6.83619 1.86021,14.70173 -0.43104,22.59025 -2.22606,7.66405 -6.2785,15.78452 -12.47263,24.99328 -4.55194,6.76732 -9.62484,13.34299 -19.05567,24.70062 -4.53262,5.45866 -8.30883,10.24312 -10.70296,13.56062 -0.46887,0.64972 -0.61984,0.79776 -0.85931,0.84269 -0.45818,0.086 -0.96303,-0.30298 -0.96303,-0.74191 0,-0.26819 0.0457,-0.36916 0.36066,-0.79644 0.12356,-0.16764 0.22466,-0.31704 0.22466,-0.33202 0,-0.0297 -1.12385,-0.3875 -1.21731,-0.3875 -0.0317,0 -1.31822,1.26764 -2.85893,2.81698 -1.54072,1.54935 -2.92879,2.91901 -3.08459,3.04369 -0.2272,0.18179 -0.33149,0.22659 -0.52679,0.22629 -0.1369,0 -0.3144,-0.0471 -0.40544,-0.10715 -0.0891,-0.0587 -0.81339,-0.71171 -1.60964,-1.45109 -0.79623,-0.73939 -1.47933,-1.36357 -1.51799,-1.3871 -0.0784,-0.0477 -0.20684,0.13976 -1.05313,1.5373 -0.30095,0.497 -0.54004,0.9238 -0.53134,0.94844 0.009,0.0248 0.43729,0.5775 0.95238,1.22844 2.74012,3.4629 3.67558,4.66158 3.75358,4.80967 0.0994,0.18869 0.0649,0.34737 -0.11094,0.51122 -0.16274,0.15163 -0.35422,0.14562 -0.53139,-0.0165 z m -4.52281,-7.52137 c 0.32084,-0.49869 1.32376,-2.12708 1.32376,-2.14933 0,-0.0248 -2.72397,-2.53973 -4.59479,-4.24229 -1.28965,-1.17368 -3.94153,-3.65238 -6.17149,-5.76847 -2.02398,-1.92065 -2.31273,-2.18579 -2.28148,-2.09504 0.0402,0.11671 3.0272,3.87393 7.808,9.82129 1.34566,1.67403 2.73465,3.40584 3.08665,3.84852 0.352,0.44262 0.65083,0.80481 0.66407,0.80481 0.0132,0 0.0876,-0.0988 0.16528,-0.21949 z m 7.90454,-2.83138 c 1.2444,-1.25946 2.25373,-2.31641 2.24294,-2.34878 -0.0109,-0.0324 -0.65064,-0.28959 -1.42189,-0.57159 -0.77125,-0.28199 -1.74248,-0.64738 -2.1583,-0.81195 -0.41581,-0.16457 -0.78797,-0.29922 -0.82704,-0.29922 -0.10208,0 -2.77759,3.77948 -2.77759,3.92371 0,0.0807 2.51081,2.39778 2.59828,2.39778 0.0446,0 1.09919,-1.03049 2.3436,-2.28995 z m -5.0368,-1.69098 c 0.31847,-0.46639 0.87806,-1.26843 1.24352,-1.7823 0.36545,-0.51387 0.64504,-0.95308 0.62129,-0.97603 -0.0238,-0.023 -0.45145,-0.21806 -0.95043,-0.43359 -4.30609,-1.86 -8.87561,-4.27869 -13.24892,-7.01276 -0.34936,-0.21842 -0.618,-0.36929 -0.59698,-0.33528 0.0596,0.0964 4.78483,4.52801 8.92995,8.37499 0.84985,0.78872 1.92826,1.79502 2.39648,2.23624 0.46821,0.4412 0.8906,0.79646 0.93866,0.78946 0.0481,-0.007 0.34795,-0.39432 0.66643,-0.86073 z m 11.84198,-1.72598 c 2.12695,-2.85956 4.78434,-6.16871 10.90169,-13.57551 9.72389,-11.77356 15.82817,-19.93171 20.03977,-26.78248 2.07106,-3.36886 3.39471,-5.73068 4.88774,-8.72131 2.14284,-4.29223 3.52472,-7.73575 4.61129,-11.49084 1.09679,-3.79044 1.64801,-7.11384 1.77556,-10.70503 0.0636,-1.78805 0.0657,-2.21209 0.0113,-2.21209 -0.0206,0 -0.0996,0.41486 -0.17579,0.92189 -0.54154,3.60492 -1.81245,8.33874 -3.39037,12.62834 -3.76411,10.23281 -10.63279,22.47862 -19.58354,34.91449 -6.36408,8.84205 -12.89152,16.96834 -18.94059,23.57992 -0.62894,0.68744 -1.2312,1.35237 -1.33836,1.47765 l -0.19484,0.22775 0.16558,0.0599 c 0.38509,0.13914 0.59979,0.25366 0.63175,0.33694 0.0187,0.0489 0.0436,0.0785 0.0552,0.0658 0.0116,-0.0126 0.2562,-0.33908 0.54353,-0.72539 z m -2.62278,-0.9271 c 6.90801,-7.47932 12.77672,-14.65797 19.12438,-23.39305 7.7024,-10.59935 13.36002,-19.91688 17.51831,-28.85085 4.30834,-9.25639 6.48429,-17.0148 6.8553,-24.44278 0.0662,-1.32691 0.007,-3.66729 -0.12127,-4.79964 -0.13361,-1.17822 -1.36639,-4.2121 -2.69949,-6.64341 -3.76565,-6.86793 -8.70239,-11.39092 -14.30169,-13.1031 -0.63635,-0.19458 -1.33001,-0.36581 -1.36009,-0.33573 -0.0103,0.0104 0.27823,0.26984 0.64134,0.57657 1.74275,1.47215 3.67283,3.71533 5.22492,6.07251 3.79981,5.7708 6.05178,12.06197 6.73609,18.81812 0.12716,1.25535 0.17749,4.62207 0.0894,5.9801 -0.24451,3.76984 -0.95355,7.20926 -2.34488,11.37471 -3.27184,9.79536 -9.62985,19.99996 -21.18909,34.00856 -0.62366,0.75581 -1.35987,1.64829 -1.63601,1.98329 -0.71528,0.8677 -3.57211,4.2615 -6.70894,7.96992 -5.52705,6.53419 -7.49709,8.92016 -9.66241,11.70242 -1.34591,1.72938 -1.50076,1.93586 -1.47281,1.96384 0.092,0.092 4.51213,1.71387 4.66983,1.71347 0.0483,0 0.33498,-0.26784 0.6371,-0.59495 z m -5.96354,-1.86843 c 1.26023,-1.73698 5.5098,-6.97986 8.69334,-10.72542 0.35573,-0.41851 1.14978,-1.3564 1.7646,-2.08421 0.61481,-0.72781 1.85231,-2.18965 2.74998,-3.24854 4.0843,-4.81777 6.15858,-7.3159 8.62875,-10.39187 13.21062,-16.45053 19.43992,-28.48942 20.74169,-40.0859 0.32859,-2.92712 0.26099,-6.64253 -0.17571,-9.65782 -0.96389,-6.65529 -3.64408,-13.00924 -7.71556,-18.29133 -1.37148,-1.77928 -3.11391,-3.51186 -4.80637,-4.77922 -1.06123,-0.79469 -1.10658,-0.8195 -1.60134,-0.87628 -0.73175,-0.084 -2.99491,-0.0632 -3.98849,0.0367 -5.44638,0.54737 -11.03206,2.89925 -16.70064,7.03193 -2.65563,1.93609 -4.72331,3.71147 -7.21566,6.19561 -1.78154,1.77568 -2.39195,2.43331 -3.7402,4.02957 -0.68313,0.8088 -0.97927,1.21569 -1.33438,1.83343 -0.58034,1.00948 -1.38737,2.59923 -1.38737,2.73294 0,0.0563 0.0414,0.18247 0.092,0.28036 0.16255,0.31434 0.64243,1.69533 0.86157,2.47943 0.47323,1.69328 0.63984,2.92166 0.63508,4.68258 -0.004,1.57008 -0.10351,2.42375 -0.30701,2.64038 -0.18489,0.19681 -0.54682,0.17847 -0.70476,-0.0357 -0.10256,-0.13908 -0.10358,-0.18106 -0.0204,-0.8465 0.15743,-1.2608 0.10997,-2.9438 -0.12303,-4.36288 -0.17603,-1.07209 -0.88328,-3.57046 -1.01075,-3.57046 -0.0464,0 -0.0442,-0.005 -0.53162,1.25623 -0.83092,2.15068 -1.44027,4.53915 -1.72758,6.77154 -0.0776,0.60287 -0.0778,0.77603 -0.002,1.49258 0.0473,0.44582 0.0699,0.89773 0.0502,1.00425 -0.0489,0.26477 -0.35245,0.57082 -0.64415,0.64937 -0.61567,0.16578 -1.01482,-0.21355 -1.01584,-0.96542 0,-0.1317 -0.0395,-0.36876 -0.0875,-0.52679 -0.048,-0.15804 -0.0874,-0.46267 -0.0878,-0.67698 -6.6e-4,-0.40977 -0.2591,-1.87848 -0.48761,-2.77111 l -0.13486,-0.52678 -0.30431,-0.0376 c -0.3578,-0.0442 -0.55828,-0.16168 -0.71538,-0.41923 -0.21705,-0.35581 -0.20892,-0.52302 0.0519,-1.06647 l 0.23829,-0.49662 -0.26605,-0.62896 c -1.68073,-3.97325 -4.95525,-8.95948 -8.71582,-13.27191 -1.02279,-1.17288 -3.72272,-3.88996 -4.77848,-4.80882 -4.26868,-3.71518 -8.57938,-6.29974 -12.90117,-7.73514 -2.30011,-0.76396 -4.15418,-1.08065 -6.37479,-1.08886 -1.86703,-0.007 -3.10726,0.1742 -4.61132,0.67341 -4.227,1.40296 -7.69994,4.51207 -9.46076,8.46966 -1.31156,2.94783 -1.93546,6.16147 -1.9362,9.97324 -3e-4,1.35882 0.014,1.58105 0.14825,2.31203 0.83726,4.55821 2.80757,10.40524 5.58814,16.58317 0.97627,2.16908 2.61219,5.50445 3.67472,7.49212 6.56865,12.28787 14.4767,24.44308 25.53298,39.24589 1.39655,1.86979 1.40178,1.87516 3.04305,3.13635 7.03231,5.4037 14.10728,9.58406 22.06665,13.03839 0.37023,0.16069 0.69948,0.29361 0.73167,0.29541 0.0322,0.002 0.17706,-0.1601 0.32193,-0.35977 z M 909.89823,665.3132 c -0.0738,-0.10463 -0.67639,-0.94091 -1.33909,-1.85841 -6.86915,-9.51024 -12.55425,-18.19169 -17.30604,-26.42731 -4.95282,-8.58403 -8.31409,-15.59453 -10.57999,-22.06636 -0.24791,-0.70807 -0.46493,-1.3007 -0.48228,-1.31697 -0.0929,-0.0872 0.60909,2.70496 1.18461,4.71154 2.47883,8.64251 6.20734,17.34416 11.48668,26.80778 0.95043,1.7037 2.00449,3.52985 2.19408,3.8012 0.56546,0.80933 4.90752,5.79747 7.82395,8.9881 2.03379,2.225 7.05872,7.55065 7.12431,7.55065 0.0154,0 -0.0324,-0.0856 -0.10623,-0.19022 z m -21.81588,-25.54934 c -1.93937,-3.8708 -4.37737,-9.47016 -5.92589,-13.60996 -3.07241,-8.21375 -4.52126,-14.57382 -4.79974,-21.06953 -0.0694,-1.61939 -0.0229,-3.38294 0.12302,-4.66223 0.0298,-0.26095 0.0694,-0.84989 0.0881,-1.30874 0.10726,-2.6303 0.49555,-4.727 1.2364,-6.67634 0.29234,-0.7692 1.07289,-2.32568 1.45858,-2.90852 0.48485,-0.73266 0.48981,-0.74759 0.17299,-0.52046 -0.59787,0.42861 -1.49409,1.17812 -2.13511,1.78561 -3.11483,2.95185 -4.80861,6.00487 -5.58163,10.06085 -0.26072,1.36801 -0.30175,1.92447 -0.29995,4.068 0.002,1.57595 0.0244,2.19929 0.10526,2.83881 0.31308,2.47687 0.80207,4.64111 1.63987,7.258 1.83338,5.72656 4.99698,11.86277 10.01875,19.43271 1.48069,2.23202 4.12851,5.99956 4.21649,5.99956 0.015,0 -0.12765,-0.30949 -0.31717,-0.68776 z m 42.39753,-28.34265 c 0.10994,-0.36934 0.19208,-0.67932 0.18256,-0.68884 -0.0207,-0.0207 -0.6557,1.02387 -0.71006,1.16796 -0.0207,0.0551 0.009,0.23952 0.066,0.40972 l 0.10388,0.30948 0.0789,-0.2634 c 0.0433,-0.14487 0.1688,-0.56558 0.27871,-0.93492 z m -1.07514,-1.88926 c 0.10665,-0.16901 0.4618,-0.71806 0.7892,-1.2201 l 0.59529,-0.91279 0.29934,-1.0773 c 0.16463,-0.59252 0.34929,-1.23533 0.41035,-1.42849 0.11014,-0.34843 0.11008,-0.35304 -0.008,-0.58532 -0.20257,-0.39766 -1.28536,-2.00883 -1.89392,-2.81807 -3.60512,-4.79407 -9.09099,-9.63936 -14.71414,-12.99601 -4.56389,-2.72432 -9.55501,-4.74814 -13.83384,-5.60939 -0.57449,-0.11563 -1.07284,-0.2008 -1.10745,-0.18927 -0.0345,0.0115 0.27224,0.10732 0.68187,0.21284 5.66306,1.45885 11.66799,5.14553 17.11899,10.51009 3.43465,3.38017 6.29466,6.96788 8.58774,10.77274 0.73112,1.21314 2.0211,3.74031 2.48664,4.87153 0.17526,0.42586 0.33566,0.77485 0.35645,0.77555 0.0207,6.6e-4 0.12506,-0.137 0.23172,-0.30601 z m 4.30008,-6.13376 c 0.89659,-1.14357 1.2176,-1.59795 2.06246,-2.91929 1.04897,-1.64055 2.63693,-3.76403 4.05243,-5.41905 4.71591,-5.51392 10.62623,-9.92644 16.4291,-12.26562 0.42573,-0.17161 0.76457,-0.32153 0.75296,-0.33313 -0.0397,-0.0397 -1.05856,0.11313 -1.88146,0.2823 -2.84352,0.58458 -5.38966,1.64115 -8.27908,3.43559 -3.20295,1.98916 -6.42041,4.97822 -8.8664,8.237 -0.73566,0.98012 -1.94664,2.79514 -2.46032,3.68753 -0.66328,1.15231 -1.69368,3.28353 -2.20627,4.5633 -0.57732,1.44148 -0.69284,1.84599 -0.52713,1.84599 0.0274,0 0.44308,-0.50158 0.92371,-1.11462 z m 14.11385,-13.43722 c 4.15189,-2.82509 8.02617,-4.6611 12.13378,-5.75017 1.41532,-0.37524 3.33142,-0.70961 4.6125,-0.80491 0.29947,-0.0222 0.52335,-0.0605 0.49752,-0.085 -0.0725,-0.0687 -1.288,-0.4388 -1.72124,-0.52406 -0.3546,-0.0698 -0.46398,-0.0632 -1.32379,0.0802 -4.34496,0.72454 -8.75964,2.75665 -13.15684,6.05621 -0.73784,0.55366 -1.78216,1.39264 -2.18787,1.7577 -0.20775,0.18693 -0.11072,0.12512 1.14594,-0.72996 z m 23.82047,-6.11761 c -0.19492,-0.11332 -1.44776,-0.51859 -2.13959,-0.69212 -0.95681,-0.23998 -1.52033,-0.3389 -2.53237,-0.44456 -0.82519,-0.0861 -1.09348,-0.0827 -0.83332,0.0106 0.0609,0.0219 0.39573,0.16598 0.74397,0.32027 0.60603,0.26853 0.66746,0.28327 1.43404,0.34408 0.96732,0.0767 1.87762,0.20561 2.70318,0.38268 0.72679,0.1559 0.76447,0.16068 0.62409,0.0791 z"
       style="fill:#cfa6b3" />
    <path
       inkscape:connector-curvature="0"
       id="path3010"
       d="m 938.25645,701.5136 c -0.15557,-0.18967 -1.18855,-1.49495 -2.29549,-2.90059 -1.10696,-1.40568 -2.03544,-2.55576 -2.06329,-2.55576 -0.0278,0 -0.12308,0.13395 -0.21159,0.29765 -0.30662,0.56698 -0.46903,0.75593 -0.64976,0.75593 -0.1792,0 -0.32167,-0.12486 -0.38708,-0.33934 -0.0311,-0.10213 0.0447,-0.2895 0.315,-0.7781 0.19582,-0.35397 0.35603,-0.65969 0.35603,-0.67935 0,-0.0195 -0.58421,-0.76261 -1.29823,-1.65099 -0.71403,-0.88839 -2.68483,-3.34048 -4.37954,-5.44911 -4.18924,-5.21241 -6.27806,-7.85705 -9.63907,-12.20397 -0.73589,-0.95176 -3.27209,-3.43106 -4.70119,-4.59572 -4.47886,-3.65005 -10.05175,-8.92811 -13.10106,-12.4079 -2.27797,-2.59957 -3.60101,-4.44275 -6.07116,-8.45792 -0.4369,-0.71017 -0.96655,-1.42458 -2.19144,-2.95587 -5.30251,-6.62896 -8.50989,-11.12043 -11.99602,-16.79877 -4.97916,-8.1102 -7.98767,-15.51014 -8.86431,-21.80326 -0.24057,-1.72699 -0.28639,-2.54066 -0.25561,-4.53966 0.0312,-2.02217 0.0931,-2.64589 0.42674,-4.29872 0.36381,-1.80205 0.81806,-3.13664 1.63364,-4.79965 1.29935,-2.64942 3.20355,-4.93968 5.89622,-7.09162 2.31884,-1.85319 6.09046,-3.93587 8.9444,-4.93908 1.83823,-0.64618 4.95013,-1.36568 6.87754,-1.59014 0.8564,-0.0997 3.8433,-0.0998 4.65332,-5e-5 4.95193,0.60963 10.5795,2.67736 15.80371,5.80675 6.56659,3.93351 12.98973,9.84139 16.4662,15.14531 0.25849,0.39436 0.48982,0.71702 0.51408,0.71702 0.0243,0 0.12319,-0.20412 0.21986,-0.45362 2.69535,-6.9567 7.66534,-13.28254 13.47338,-17.14906 3.12613,-2.08112 6.47014,-3.46321 9.72784,-4.02052 1.42779,-0.24428 1.95288,-0.28718 3.67343,-0.30013 1.39815,-0.0105 1.78186,-0.0326 2.37056,-0.13624 1.28387,-0.22612 2.16815,-0.29976 3.59972,-0.29976 1.90878,0 3.13384,0.15488 4.90405,0.61997 2.74679,0.72166 6.10974,2.29434 8.99737,4.20761 3.27746,2.17154 6.01141,4.88061 8.00533,7.93246 1.90974,2.92301 3.17733,6.27209 3.73292,9.86269 0.0697,0.4507 0.22884,1.1882 0.35353,1.6389 0.98577,3.56275 1.3416,6.20012 1.34114,9.94046 0,1.94853 -0.0417,2.82825 -0.21,4.45848 -0.98978,9.58601 -5.52034,20.28101 -13.89767,32.80734 -4.52506,6.76614 -9.59968,13.3509 -19.28394,25.02254 -4.48629,5.40694 -8.01305,9.8711 -10.52254,13.31935 -0.35717,0.4908 -0.68507,0.88163 -0.77344,0.92189 -0.38954,0.17749 -0.87395,0.005 -1.05487,-0.37679 -0.13628,-0.28719 -0.0838,-0.4957 0.24537,-0.974 0.1649,-0.23964 0.25127,-0.4169 0.21842,-0.4483 -0.0299,-0.0285 -0.31357,-0.13237 -0.63042,-0.23069 l -0.57608,-0.17877 -2.93585,2.94607 c -1.61472,1.62032 -3.02804,3.0021 -3.14072,3.07058 -0.25281,0.15365 -0.50141,0.15864 -0.73165,0.0146 -0.0966,-0.0604 -0.84611,-0.73192 -1.66565,-1.49235 -0.81952,-0.76043 -1.52151,-1.38261 -1.55995,-1.38261 -0.0385,0 -0.12166,0.0856 -0.1849,0.19024 -0.0632,0.1046 -0.39509,0.64989 -0.73743,1.21173 -0.34235,0.56184 -0.62245,1.05741 -0.62245,1.10127 0,0.0439 0.78473,1.07238 1.74385,2.28557 2.83993,3.59225 2.93939,3.72146 2.97812,3.8699 0.0606,0.23192 -0.0946,0.44001 -0.34369,0.46094 -0.19667,0.0165 -0.23428,-0.008 -0.49568,-0.32699 z m -3.71384,-8.18617 c 0.39008,-0.63219 0.70923,-1.18112 0.70923,-1.21983 0,-0.0632 -0.4518,-0.48724 -3.30708,-3.10339 -0.45069,-0.41296 -1.26713,-1.16137 -1.8143,-1.66317 -1.25659,-1.15236 -5.29502,-4.93748 -6.89047,-6.45826 -0.66702,-0.6358 -1.22769,-1.15602 -1.24593,-1.15602 -0.0182,0 -0.008,0.0461 0.023,0.10243 0.0766,0.13987 3.03044,3.86016 5.93708,7.47751 1.31925,1.64182 3.15195,3.9263 4.07266,5.07661 0.92071,1.15029 1.70387,2.09195 1.74034,2.09252 0.0365,0 0.38547,-0.51618 0.77555,-1.1484 z m 7.35008,-1.90119 c 1.27823,-1.29154 2.30216,-2.36978 2.27542,-2.39608 -0.0268,-0.0263 -0.47007,-0.19716 -0.98515,-0.37969 -0.51509,-0.18252 -1.51137,-0.55503 -2.21397,-0.82777 -0.70259,-0.27275 -1.31056,-0.4832 -1.35105,-0.46766 -0.15102,0.0579 -2.80354,3.86857 -2.77423,3.98546 0.0297,0.1183 2.52766,2.42719 2.62979,2.43072 0.0524,0 1.14096,-1.05343 2.41919,-2.34498 z m -5.22675,-1.41243 c 0.26393,-0.39436 0.83152,-1.2107 1.26128,-1.8141 0.42977,-0.6034 0.79523,-1.13316 0.81215,-1.17723 0.022,-0.0572 -0.23407,-0.19354 -0.89431,-0.47626 -4.22014,-1.80715 -8.96803,-4.30945 -13.1583,-6.93493 -1.27805,-0.80078 -1.16593,-0.73651 -1.10487,-0.63338 0.0826,0.13955 4.40028,4.19647 9.32866,8.76527 1.36819,1.26838 2.64997,2.45947 2.84838,2.64689 0.19841,0.18743 0.37569,0.34076 0.39394,0.34076 0.0182,0 0.24912,-0.32266 0.51307,-0.71702 z m 12.25853,-2.29739 c 2.32257,-3.08632 4.46675,-5.75593 10.29567,-12.81856 6.47296,-7.843 10.53205,-12.99505 14.0023,-17.77258 10.22217,-14.073 15.85043,-25.82262 17.30955,-36.13564 0.21577,-1.52502 0.31807,-2.68045 0.37833,-4.27286 0.0471,-1.24514 0.0282,-2.82224 -0.0332,-2.7609 -0.0123,0.0123 -0.088,0.47425 -0.16821,1.02647 -1.54686,10.65428 -6.99919,23.39879 -16.23001,37.93664 -7.07469,11.14212 -17.77759,25.05142 -26.53939,34.49014 -0.41091,0.44264 -0.7471,0.82981 -0.7471,0.86036 0,0.0305 0.14476,0.10117 0.3217,0.15695 0.17692,0.0558 0.37939,0.16282 0.44992,0.23789 0.0705,0.075 0.14699,0.11638 0.16992,0.0918 0.023,-0.0246 0.37866,-0.49244 0.7905,-1.03972 z m -2.01353,-1.53647 c 6.8172,-7.423 13.10633,-15.22237 19.59381,-24.29892 6.69654,-9.36908 11.68182,-17.6056 15.62751,-25.81933 4.4998,-9.36724 6.86853,-17.33557 7.38387,-24.83916 0.0797,-1.15995 0.0399,-4.61472 -0.0637,-5.53419 -0.16177,-1.43568 -1.62648,-4.92506 -3.19611,-7.61409 -3.22986,-5.53329 -7.13455,-9.38175 -11.55373,-11.38734 -1.201,-0.54506 -2.91323,-1.12398 -3.64876,-1.23369 -0.29118,-0.0434 -0.30847,-0.0645 0.48801,0.59329 0.73203,0.60451 2.28591,2.16939 2.99258,3.01377 3.8439,4.593 6.90579,10.90549 8.27405,17.05799 0.64525,2.90145 0.91775,5.40159 0.91912,8.4328 0.002,2.98907 -0.25782,5.468 -0.86077,8.23368 -2.09805,9.62351 -7.01624,19.14095 -16.1165,31.18781 -3.37542,4.46835 -6.44614,8.24156 -13.2663,16.30124 -6.55473,7.746 -8.79596,10.44608 -10.98029,13.22829 -1.47385,1.87725 -1.88407,2.43543 -1.82928,2.48904 0.11086,0.10843 4.50775,1.73293 4.73638,1.74992 0.0342,0.002 0.70925,-0.69996 1.50012,-1.56111 z m -6.18397,-1.7706 c 2.41384,-3.14415 4.69578,-5.91456 11.35392,-13.78435 5.81532,-6.8736 7.76724,-9.2191 10.13173,-12.17471 6.9045,-8.63058 11.97733,-16.24432 15.20942,-22.82759 3.32328,-6.76895 5.06376,-12.87438 5.42292,-19.02299 0.0743,-1.27172 0.0409,-3.97099 -0.0638,-5.15083 -0.55114,-6.2143 -2.38208,-11.89102 -5.5157,-17.10119 -2.21114,-3.67635 -4.58162,-6.40263 -7.40982,-8.522 -1.1277,-0.84508 -1.03232,-0.81656 -2.83909,-0.84873 -1.13398,-0.0202 -1.78411,-0.003 -2.4986,0.0655 -5.34202,0.51322 -10.78183,2.71865 -16.2427,6.58516 -4.25482,3.01259 -8.23535,6.69059 -11.78702,10.89121 -0.78982,0.93414 -1.19035,1.57612 -2.06932,3.31677 l -0.53497,1.05941 0.2972,0.7551 c 1.15639,2.93805 1.57472,5.84236 1.2385,8.59841 -0.0354,0.28974 -0.10211,0.58723 -0.14837,0.66111 -0.11097,0.1772 -0.33117,0.25825 -0.51342,0.18897 -0.26075,-0.0992 -0.27965,-0.22153 -0.17433,-1.12823 0.17812,-1.53343 0.0511,-3.54576 -0.32594,-5.16535 -0.25402,-1.09102 -0.77797,-2.72174 -0.87449,-2.72174 -0.0485,0 -0.42999,0.93189 -0.77868,1.90229 -0.75467,2.10028 -1.31531,4.41186 -1.52612,6.29222 -0.0635,0.56636 -0.0619,0.80889 0.01,1.52917 0.0825,0.82668 0.0814,0.86383 -0.0299,1.08284 -0.24463,0.48096 -0.90865,0.62438 -1.26075,0.27229 -0.14847,-0.14847 -0.17523,-0.23234 -0.2296,-0.71924 -0.0339,-0.30315 -0.0858,-0.59649 -0.11543,-0.65188 -0.0297,-0.0554 -0.0539,-0.28221 -0.0539,-0.50406 0,-0.53781 -0.3335,-2.34978 -0.5978,-3.24798 -0.0627,-0.21329 -0.0724,-0.21949 -0.33933,-0.21949 -0.33138,0 -0.61093,-0.1699 -0.76899,-0.46735 -0.15716,-0.29573 -0.13456,-0.51927 0.0965,-0.95464 0.11268,-0.21232 0.20488,-0.439 0.20488,-0.50373 0,-0.30042 -1.16588,-2.75177 -2.03497,-4.27871 -1.84041,-3.23344 -4.24676,-6.60148 -6.84014,-9.57376 -1.05802,-1.2126 -3.19352,-3.3873 -4.3959,-4.47655 -5.78901,-5.24443 -12.1494,-8.50133 -17.95597,-9.19454 -0.81948,-0.0978 -2.99122,-0.0973 -3.71679,0.002 -2.84961,0.38587 -5.52977,1.55363 -7.84333,3.41737 -0.75679,0.60966 -1.99412,1.87725 -2.55695,2.61949 -1.95287,2.57537 -3.16402,5.93881 -3.62807,10.0754 -0.0741,0.66097 -0.10158,1.40764 -0.10396,2.82949 l -0.003,1.93156 0.19405,0.93652 c 1.09159,5.26824 3.10903,11.0162 6.21455,17.70601 0.60738,1.3084 2.44357,4.96566 3.24728,6.46782 5.16582,9.65507 11.40286,19.54236 19.31073,30.61237 2.72712,3.81763 6.88276,9.45563 7.28582,9.88478 0.27424,0.29197 1.25568,1.0762 2.73005,2.18147 6.68369,5.01048 13.45273,8.97793 20.5741,12.05881 0.69214,0.29945 1.27558,0.53828 1.29655,0.53074 0.021,-0.008 0.45264,-0.55367 0.9593,-1.21363 z m -30.3882,-18.56936 c -0.0241,-0.0403 -0.4256,-0.59996 -0.89228,-1.24381 -2.75208,-3.79697 -4.65897,-6.50235 -7.15795,-10.15535 -3.7569,-5.49184 -8.12337,-12.42848 -11.18241,-17.76454 -5.10477,-8.90456 -8.19079,-15.4172 -10.64363,-22.46202 -0.26627,-0.76472 -0.49181,-1.38271 -0.50121,-1.3733 -0.0565,0.0565 0.59359,2.76387 1.12232,4.67391 2.61138,9.43377 6.76526,19.01573 12.86136,29.66795 0.97505,1.70378 1.08283,1.86244 2.02768,2.98486 3.81427,4.53113 8.21659,9.38828 12.98454,14.32605 0.75381,0.78068 1.3829,1.41941 1.39796,1.41941 0.015,0 0.008,-0.0328 -0.0164,-0.0732 z M 888.2169,639.91646 c -2.78654,-5.56304 -5.55032,-12.16629 -7.34608,-17.55131 -2.13159,-6.39213 -3.18711,-11.5617 -3.45387,-16.91583 -0.0693,-1.38964 -0.0383,-3.52833 0.065,-4.50698 0.0289,-0.27364 0.0922,-1.18235 0.14062,-2.01937 0.098,-1.69404 0.19941,-2.57366 0.42166,-3.65826 0.45844,-2.23723 1.26554,-4.21534 2.43259,-5.96208 0.22282,-0.33351 0.39427,-0.61725 0.381,-0.63052 -0.0133,-0.0133 -0.25841,0.15209 -0.54476,0.36746 -2.64659,1.99071 -4.61708,4.22284 -5.88737,6.66912 -0.69484,1.33807 -1.13195,2.49513 -1.50173,3.97521 -0.38584,1.5443 -0.53407,2.72478 -0.57696,4.59478 -0.0539,2.34952 0.15854,4.39904 0.71634,6.91105 1.47839,6.65778 4.87283,13.86208 10.72551,22.7636 1.71843,2.61361 4.78027,6.95996 4.85229,6.88793 0.0143,-0.0143 -0.17667,-0.43043 -0.42431,-0.9248 z m 42.02848,-27.5457 c 0.0518,-0.1851 0.20001,-0.67452 0.32937,-1.08758 0.12937,-0.41307 0.22589,-0.77907 0.21446,-0.81334 -0.0114,-0.0342 -0.22526,0.28161 -0.47521,0.70195 -0.45354,0.76277 -0.4543,0.76473 -0.38803,1.01084 0.0841,0.31231 0.16452,0.5247 0.1987,0.5247 0.0146,0 0.0689,-0.15145 0.12071,-0.33657 z m -0.81456,-2.78027 c 0.12345,-0.20121 0.49425,-0.77953 0.82401,-1.28517 0.5885,-0.90237 0.60335,-0.93369 0.80508,-1.69743 0.11302,-0.42796 0.29623,-1.07575 0.40713,-1.43954 l 0.20164,-0.66142 -0.37974,-0.62628 c -3.0845,-5.08699 -9.16264,-10.92879 -15.46982,-14.86829 -5.06463,-3.1634 -10.86964,-5.5373 -15.39398,-6.29523 -1.54568,-0.25893 -1.63147,-0.23148 -0.32193,0.10304 3.75729,0.95976 7.14094,2.51968 10.70645,4.93586 3.75703,2.54596 7.44316,5.92522 10.74448,9.84997 3.12596,3.71628 5.85464,8.08465 7.32149,11.72109 0.1396,0.34607 0.27112,0.62922 0.29228,0.62922 0.0212,0 0.13947,-0.16462 0.26291,-0.36582 z m 3.77239,-5.47383 c 0.20925,-0.27954 0.65485,-0.85131 0.99022,-1.2706 0.33536,-0.41929 0.87985,-1.18993 1.20994,-1.71252 1.45592,-2.30495 2.99204,-4.35757 4.96156,-6.62974 0.89173,-1.02878 3.63477,-3.73632 4.7496,-4.68813 3.73085,-3.18534 7.53078,-5.54763 11.34494,-7.05277 0.45638,-0.1801 0.84293,-0.34176 0.85903,-0.35925 0.048,-0.0521 -0.81008,0.0373 -1.49661,0.15608 -3.86968,0.66908 -7.52157,2.33188 -11.21608,5.10697 -2.35568,1.76945 -4.88815,4.32678 -6.73428,6.80041 -2.02935,2.71911 -3.70705,5.77844 -4.9042,8.94295 -0.29832,0.78856 -0.34827,0.97098 -0.29678,1.08397 0.034,0.0747 0.0822,0.13472 0.10705,0.13337 0.0248,-0.002 0.21636,-0.23121 0.42561,-0.51074 z m 14.95499,-14.31934 c 4.67063,-3.12916 9.03679,-5.03949 13.57949,-5.94143 0.92142,-0.18294 2.59463,-0.4118 3.06192,-0.41881 0.15094,-0.002 0.3271,-0.0257 0.39147,-0.0521 0.11135,-0.0457 0.10993,-0.0508 -0.0292,-0.10593 -0.21683,-0.0859 -1.26199,-0.40175 -1.6896,-0.51063 -0.42109,-0.10723 -0.60473,-0.0946 -1.82233,0.12489 -3.3605,0.60586 -6.85316,2.05084 -10.34433,4.27964 -1.57397,1.00482 -3.34066,2.32368 -4.7404,3.53874 -0.74695,0.64841 -0.8176,0.75273 -0.21772,0.32149 0.25549,-0.18366 1.07033,-0.7398 1.81076,-1.23587 z m 24.08558,-5.76755 c -0.0485,-0.0284 -0.37777,-0.16059 -0.73165,-0.29364 -1.38362,-0.52024 -2.70239,-0.85298 -4.03828,-1.01889 -1.57258,-0.19532 -1.94668,-0.18058 -1.33161,0.0525 0.15291,0.0579 0.51755,0.21611 0.81028,0.3515 0.47078,0.21771 0.59925,0.25075 1.11212,0.28596 1.22646,0.0842 2.63379,0.30351 3.76986,0.58745 0.39737,0.0993 0.53962,0.11153 0.40928,0.0352 z"
       style="fill:#ab939b" />
    <path
       inkscape:connector-curvature="0"
       id="path3008"
       d="m 938.52052,701.78127 c -0.0533,-0.0416 -0.78884,-0.95802 -1.63467,-2.03649 -1.81934,-2.31975 -2.89723,-3.66547 -2.97392,-3.71286 -0.0305,-0.0187 -0.19044,0.20164 -0.35543,0.48995 -0.33251,0.58104 -0.45505,0.66667 -0.69689,0.48695 -0.25271,-0.18783 -0.22862,-0.37026 0.13433,-1.0175 0.17948,-0.32005 0.32633,-0.6207 0.32633,-0.66813 0,-0.0474 -0.92764,-1.23833 -2.06144,-2.64655 -6.23851,-7.74849 -9.69925,-12.10347 -12.44966,-15.66662 -1.24901,-1.61808 -1.3736,-1.75852 -2.83598,-3.19641 -0.95279,-0.93683 -1.91583,-1.81754 -2.55389,-2.33554 -3.12228,-2.53479 -6.37061,-5.49114 -9.80884,-8.92714 -4.3391,-4.33629 -6.06972,-6.53068 -9.39657,-11.9147 -0.53,-0.85774 -0.96724,-1.45397 -2.10322,-2.86808 -6.42292,-7.99539 -10.99476,-14.62675 -14.4767,-20.99816 -3.44638,-6.30631 -5.54292,-11.85546 -6.41507,-16.97955 -0.47554,-2.79393 -0.53727,-5.79867 -0.17157,-8.35057 0.5163,-3.60273 1.86351,-6.79054 4.00732,-9.48223 0.70475,-0.88488 2.6407,-2.80339 3.59649,-3.56411 2.93196,-2.33359 7.20625,-4.57702 10.41874,-5.46845 2.80941,-0.77958 4.52286,-1.10185 6.61415,-1.24403 5.23236,-0.35573 12.29806,1.74029 18.89293,5.60453 6.76207,3.96222 13.23654,9.84913 16.88663,15.35419 0.28816,0.43461 0.54766,0.79019 0.57667,0.79019 0.029,0 0.23319,-0.44777 0.45372,-0.99504 1.47149,-3.6517 3.50595,-7.02017 6.18659,-10.24316 0.80873,-0.97235 3.34659,-3.51358 4.29608,-4.30181 3.99523,-3.31664 8.28999,-5.39231 12.64442,-6.11108 1.42012,-0.23442 2.08584,-0.28541 3.65825,-0.28014 1.19855,0.004 1.56923,-0.015 2.04863,-0.10482 1.39419,-0.26131 2.11423,-0.32292 3.77533,-0.3231 2.1215,0 3.30797,0.16306 5.32305,0.73255 3.46216,0.97847 7.70809,3.22939 10.85127,5.75268 5.28748,4.24468 8.50966,9.81277 9.49093,16.40071 0.0527,0.35412 0.17186,0.90725 0.26472,1.22918 0.91703,3.17943 1.32238,5.9101 1.38589,9.33589 0.10873,5.86667 -0.94119,11.44151 -3.37988,17.94651 -2.55437,6.81354 -6.90426,14.65316 -12.77624,23.02608 -3.97479,5.66767 -8.90537,11.97597 -16.83563,21.53987 -4.53602,5.47046 -7.04815,8.62038 -9.61623,12.05765 -1.97526,2.64381 -1.9773,2.64635 -2.16826,2.70902 -0.25548,0.0838 -0.56629,-0.004 -0.78288,-0.22016 -0.15794,-0.15796 -0.19439,-0.24012 -0.19439,-0.43823 0,-0.27917 0.046,-0.3799 0.3698,-0.80949 0.13821,-0.18338 0.212,-0.33116 0.18067,-0.3619 -0.0562,-0.0552 -1.13182,-0.41099 -1.2422,-0.41099 -0.0358,0 -1.4027,1.34231 -3.03762,2.9829 -2.00746,2.01443 -3.04129,3.01132 -3.18416,3.07041 -0.39876,0.16498 -0.4986,0.0976 -2.21852,-1.49622 -1.30332,-1.20779 -1.59743,-1.45422 -1.66691,-1.39656 -0.0852,0.0707 -1.02328,1.56061 -1.37178,2.17876 -0.11252,0.19958 -0.17047,0.36501 -0.1435,0.40969 0.0248,0.0413 0.40363,0.52278 0.84169,1.07002 1.70454,2.12957 3.80841,4.83132 3.87367,4.97454 0.13367,0.29337 -0.2918,0.62636 -0.54625,0.42755 z m -4.46724,-7.61165 c 0.12257,-0.20122 0.4577,-0.7428 0.7447,-1.20355 0.46296,-0.74316 0.51306,-0.84988 0.44396,-0.94551 -0.0429,-0.0593 -1.38171,-1.30036 -2.97525,-2.75793 -3.32149,-3.03809 -5.98548,-5.5235 -9.39443,-8.76474 -0.54727,-0.52035 -1.01659,-0.94624 -1.04293,-0.94641 -0.0263,0 0.0119,0.0853 0.085,0.18991 0.19858,0.28423 2.70027,3.43637 5.3771,6.77517 1.3038,1.62624 3.16075,3.94305 4.12652,5.14846 2.14977,2.68316 2.30399,2.87043 2.36437,2.87043 0.0265,0 0.14837,-0.16464 0.27094,-0.36583 z m 7.82734,-2.68575 c 1.27966,-1.29384 2.32666,-2.3843 2.32666,-2.42323 0,-0.0389 -0.49387,-0.24837 -1.09749,-0.46539 -0.60361,-0.21703 -1.63448,-0.60233 -2.29082,-0.85622 -0.65632,-0.25388 -1.20151,-0.4616 -1.21152,-0.4616 -0.0553,0 -2.83378,3.97812 -2.83378,4.05728 0,0.0576 2.65137,2.49834 2.71567,2.49996 0.0356,0 1.11161,-1.05696 2.39128,-2.3508 z m -5.10695,-1.58155 c 0.30583,-0.45326 0.88887,-1.28855 1.29565,-1.85619 0.5583,-0.77911 0.7233,-1.04903 0.67312,-1.10118 -0.0366,-0.038 -0.46315,-0.24034 -0.94799,-0.44966 -4.4522,-1.92208 -8.93262,-4.29665 -13.42538,-7.11526 -0.52386,-0.32865 -0.96312,-0.58691 -0.97613,-0.57391 -0.0334,0.0334 0.88492,0.91679 3.54731,3.41258 4.61124,4.32267 9.14569,8.51209 9.21079,8.50993 0.0366,-0.002 0.3168,-0.37305 0.62263,-0.82631 z m 12.1186,-2.0981 c 2.0902,-2.80158 4.5476,-5.86367 10.24024,-12.76004 11.41257,-13.8258 17.18526,-21.64848 21.96639,-29.76716 6.18967,-10.51042 9.32226,-19.38192 9.81613,-27.79931 0.069,-1.17658 0.0715,-3.46212 0.004,-3.62901 -0.0538,-0.13274 -0.0686,-0.0699 -0.1804,0.76093 -0.38821,2.88649 -1.21204,6.41995 -2.31997,9.95048 -3.38956,10.80107 -10.437,23.9017 -20.29353,37.72404 -6.36416,8.92481 -13.30371,17.56754 -19.87271,24.75011 -0.59902,0.65498 -1.0973,1.21285 -1.10728,1.23972 -0.01,0.0268 0.12997,0.0955 0.311,0.15259 0.18101,0.0571 0.38673,0.16184 0.45712,0.23285 0.0704,0.071 0.15739,0.12492 0.1933,0.11983 0.0359,-0.005 0.38953,-0.44385 0.78584,-0.97503 z m -2.56723,-0.95235 c 9.2663,-9.88223 20.29488,-24.26026 27.73407,-36.15711 5.65767,-9.04782 10.19909,-18.27013 12.62472,-25.63713 2.04217,-6.20238 3.05376,-12.08708 2.92297,-17.00362 -0.0206,-0.77263 -0.0743,-1.77353 -0.11957,-2.22423 -0.0719,-0.7168 -0.11865,-0.9221 -0.37332,-1.6389 -0.60222,-1.69507 -1.24028,-3.17105 -1.9863,-4.59478 -3.37139,-6.43403 -7.83729,-10.99584 -12.86402,-13.1403 -1.12862,-0.48148 -3.36362,-1.16308 -3.46881,-1.05786 -0.0217,0.0217 0.0518,0.11057 0.16353,0.19739 1.00186,0.77879 2.68533,2.43677 3.63708,3.58203 1.11667,1.34369 2.20157,2.88614 3.19064,4.53625 4.63874,7.73901 6.60994,16.31848 5.72225,24.90548 -0.47492,4.59413 -1.99403,9.9186 -4.31713,15.13145 -2.196,4.92767 -5.05353,9.82395 -9.10317,15.59798 -3.78999,5.40379 -8.117,10.86584 -15.69594,19.81317 -6.24843,7.37661 -8.84047,10.48304 -10.91573,13.08196 -1.91454,2.39766 -2.83951,3.605 -2.83951,3.70636 0,0.0867 0.8734,0.44278 2.72175,1.10949 0.57948,0.20901 1.23796,0.44687 1.46331,0.52859 0.22535,0.0817 0.46718,0.1506 0.5374,0.15309 0.0918,0.003 0.36289,-0.24633 0.96578,-0.88931 z m -5.60944,-2.3844 c 2.35,-3.07112 4.67307,-5.89467 10.97955,-13.34495 4.43191,-5.23573 7.04508,-8.35417 8.73062,-10.41874 12.36033,-15.13982 18.84497,-26.30566 21.35698,-36.77436 1.53576,-6.40024 1.52462,-12.63744 -0.0337,-18.86055 -1.08189,-4.32053 -2.8905,-8.43085 -5.31844,-12.08691 -1.38275,-2.08223 -2.45423,-3.41941 -3.8933,-4.85882 -0.98644,-0.98667 -1.54929,-1.47819 -2.55587,-2.23199 -1.14567,-0.85795 -1.14233,-0.8565 -2.15709,-0.93379 -2.7644,-0.21052 -6.13777,0.28324 -9.42301,1.37927 -3.64519,1.21611 -7.01112,3.00013 -10.7114,5.67728 -4.02903,2.91497 -7.98898,6.62186 -11.26036,10.5407 -0.79985,0.95816 -1.13786,1.50284 -2.05584,3.31295 l -0.52378,1.03283 0.23089,0.56746 c 0.6998,1.71991 1.17652,3.5949 1.3449,5.28957 0.11782,1.18599 0.0528,3.32233 -0.12178,4.00226 -0.0867,0.33767 -0.45201,0.45777 -0.66764,0.21949 -0.0994,-0.10987 -0.10211,-0.16776 -0.0386,-0.83408 0.20185,-2.11932 0.10293,-3.61968 -0.36783,-5.57936 -0.23146,-0.96352 -0.75809,-2.54099 -0.84829,-2.54099 -0.0689,0 -0.72949,1.69019 -1.09071,2.79062 -0.57277,1.7449 -0.95051,3.3556 -1.19868,5.11124 -0.11442,0.80956 -0.12112,0.97728 -0.0622,1.55764 0.085,0.83648 0.0824,1.24541 -0.009,1.42575 -0.11765,0.2325 -0.43421,0.41148 -0.7278,0.41148 -0.47589,0 -0.62328,-0.18177 -0.6882,-0.84872 -0.022,-0.22535 -0.076,-0.52825 -0.12025,-0.67312 -0.0442,-0.14487 -0.0786,-0.44777 -0.0765,-0.67312 0.004,-0.40195 -0.36077,-2.36748 -0.56835,-3.06408 -0.0928,-0.31147 -0.0943,-0.31286 -0.29108,-0.27595 -0.25636,0.048 -0.54498,-0.0734 -0.74812,-0.31477 -0.23752,-0.28228 -0.22049,-0.62134 0.0578,-1.15199 l 0.21867,-0.41687 -0.2577,-0.60744 c -1.57939,-3.72285 -4.42069,-8.17614 -7.81919,-12.25537 -3.21748,-3.86195 -6.86433,-7.18894 -10.57136,-9.64418 -4.46327,-2.95612 -8.92724,-4.70051 -13.00163,-5.08068 -0.93588,-0.0873 -3.0104,-0.0395 -3.81647,0.0881 -3.50692,0.5548 -7.04073,2.53911 -9.39329,5.27456 -1.60472,1.86588 -2.69537,3.98659 -3.45403,6.71614 -0.63743,2.29331 -1.00252,5.37233 -0.92109,7.76766 0.10402,3.05895 2.25822,10.16135 5.00638,16.50611 5.06735,11.69905 13.96566,26.47715 25.63993,42.58221 3.48223,4.80386 5.57829,7.58115 5.98971,7.93641 0.44813,0.38698 2.01105,1.58836 3.26705,2.51132 6.39077,4.69625 13.01015,8.53012 19.72537,11.4247 0.65994,0.28447 1.23849,0.51021 1.28566,0.50166 0.0471,-0.009 0.47864,-0.52902 0.95882,-1.15655 z m -30.28821,-18.56558 c -0.0751,-0.10648 -0.52024,-0.72039 -0.98913,-1.36425 -9.20276,-12.6367 -16.56195,-24.21328 -22.13922,-34.82669 -2.8946,-5.50834 -5.15522,-10.67008 -6.86918,-15.68461 -0.2857,-0.83588 -0.52745,-1.47836 -0.5372,-1.4277 -0.0247,0.12819 0.33832,1.76812 0.72369,3.26943 2.56267,9.98348 7.00481,20.4017 13.5018,31.66595 0.8524,1.47785 0.84106,1.46116 1.64896,2.42909 1.98814,2.38196 4.86982,5.65841 7.49033,8.51644 2.55327,2.7847 7.22765,7.69485 7.27771,7.64478 0.0158,-0.0159 -0.0326,-0.11596 -0.10776,-0.22244 z m -22.1227,-25.86836 c -2.36864,-4.7296 -4.89324,-10.58834 -6.59201,-15.29782 -2.32984,-6.459 -3.5795,-11.65 -4.12401,-17.1308 -0.11099,-1.11716 -0.13028,-1.67222 -0.13297,-3.82375 -0.002,-1.72867 0.0205,-2.7002 0.0723,-3.10222 0.0415,-0.32192 0.0995,-1.11666 0.12898,-1.76609 0.17953,-3.95657 1.05008,-6.89233 2.84908,-9.60799 0.24145,-0.36448 0.42464,-0.67705 0.40709,-0.6946 -0.0447,-0.0447 -1.22856,0.85442 -1.99857,1.51787 -0.80272,0.69163 -2.01734,1.9405 -2.63395,2.70824 -4.2028,5.23276 -5.08694,12.19656 -2.63448,20.74992 1.78377,6.2212 5.10868,12.84885 10.52649,20.98283 1.99266,2.99167 4.50615,6.52728 4.58456,6.44887 0.0148,-0.0149 -0.18873,-0.45788 -0.45246,-0.98446 z m 42.15155,-28.26542 c 0.15426,-0.5297 0.3221,-1.07914 0.37297,-1.22098 0.0509,-0.14184 0.0816,-0.2688 0.0683,-0.28214 -0.0596,-0.0595 -1.03059,1.54172 -1.03059,1.69947 0,0.19357 0.19612,0.80431 0.25227,0.78559 0.0312,-0.0104 0.18284,-0.45225 0.3371,-0.98194 z m -0.85088,-2.39713 c 0.18879,-0.30583 0.54701,-0.86216 0.79603,-1.23629 0.39359,-0.59134 0.47292,-0.75579 0.607,-1.25844 0.0848,-0.31802 0.27499,-0.98068 0.42256,-1.47259 0.2456,-0.81866 0.26136,-0.90766 0.1862,-1.0512 -0.19551,-0.37338 -1.48782,-2.27846 -2.05516,-3.02967 -3.80209,-5.03421 -9.52244,-9.96795 -15.58663,-13.44329 -4.57348,-2.62102 -9.83115,-4.60734 -13.9033,-5.2526 -0.88428,-0.14012 -1.56284,-0.20962 -1.51117,-0.15479 0.0209,0.0222 0.38528,0.11676 0.80967,0.2101 3.75807,0.82665 7.52031,2.48502 11.20192,4.93772 2.63189,1.75337 4.85009,3.60569 7.50106,6.26378 4.28201,4.29353 7.39973,8.51096 9.71273,13.13876 0.41006,0.82042 1.00577,2.12922 1.20218,2.64118 0.099,0.25806 0.18315,0.36943 0.23407,0.30977 0.0217,-0.0255 0.19406,-0.2966 0.38284,-0.60244 z m 3.60638,-5.224 c 0.20074,-0.26559 0.66173,-0.85668 1.02443,-1.31353 0.3627,-0.45686 0.83534,-1.11535 1.05031,-1.46331 5.20182,-8.41956 13.19616,-15.42994 21.1833,-18.57601 0.51509,-0.20289 0.96286,-0.39365 0.99505,-0.42393 0.15776,-0.14838 -2.02858,0.19127 -3.31611,0.51518 -5.91917,1.48905 -11.87527,5.70092 -16.22296,11.47208 -1.78323,2.36708 -3.22679,4.86229 -4.39686,7.59999 -0.84676,1.98125 -1.04492,2.67242 -0.7662,2.67242 0.0462,0 0.2483,-0.2173 0.44904,-0.48289 z m 13.35814,-13.23159 c 1.66136,-1.20715 3.90753,-2.61716 5.68558,-3.56909 4.10881,-2.19978 8.63557,-3.60363 12.51284,-3.88052 0.31475,-0.0225 0.5849,-0.0613 0.60034,-0.0863 0.0291,-0.0471 -0.90665,-0.37235 -1.66895,-0.57997 -0.56242,-0.15319 -0.80475,-0.1501 -1.82796,0.0232 -4.2165,0.71429 -8.72083,2.80369 -13.06967,6.06253 -1.10502,0.82807 -2.68291,2.13415 -3.04368,2.5194 l -0.23414,0.25001 0.20487,-0.13863 c 0.11268,-0.0763 0.49103,-0.34656 0.84077,-0.60068 z m 25.98993,-6.7723 c -0.0854,-0.0854 -1.63517,-0.65932 -2.42274,-0.89723 -1.25247,-0.37835 -3.31511,-0.71336 -4.13245,-0.67119 l -0.34527,0.0178 0.84871,0.37137 c 1.03404,0.45246 1.05218,0.45704 2.10717,0.53295 1.01992,0.0734 2.0226,0.23667 3.06298,0.49882 0.86172,0.21713 0.96924,0.23511 0.8816,0.14748 z"
       style="fill:#9a7a85" />
    <path
       inkscape:connector-curvature="0"
       id="path3006"
       d="m 938.45861,701.69099 c -0.0833,-0.0885 -0.79361,-0.97748 -1.57843,-1.97546 -2.57836,-3.27865 -2.93615,-3.71985 -2.99961,-3.69906 -0.0346,0.0113 -0.17341,0.21608 -0.30863,0.45505 -0.13523,0.23896 -0.31152,0.48458 -0.39175,0.54581 -0.13745,0.10495 -0.15447,0.10573 -0.29464,0.0139 -0.19393,-0.12709 -0.25337,-0.36628 -0.14008,-0.56372 0.048,-0.0838 0.21162,-0.38016 0.3634,-0.6586 l 0.27596,-0.50627 -2.31876,-2.88588 c -7.0592,-8.78561 -9.64849,-12.04588 -12.33302,-15.5288 -1.23261,-1.5992 -1.30199,-1.67654 -2.86411,-3.19267 -0.8805,-0.85458 -1.87749,-1.7751 -2.21551,-2.04561 -4.25323,-3.40369 -10.2768,-9.08453 -13.37506,-12.61406 -2.21995,-2.52896 -3.41119,-4.1698 -5.73671,-7.90185 -0.88009,-1.41239 -1.14428,-1.77948 -2.48543,-3.45341 -3.9388,-4.91614 -6.67162,-8.60141 -9.28859,-12.52592 -9.39945,-14.09576 -13.19144,-25.33329 -11.60375,-34.38768 0.41759,-2.38144 1.22249,-4.62632 2.34335,-6.53563 1.56612,-2.66777 3.94816,-5.11611 6.92455,-7.11725 3.12941,-2.10404 6.49631,-3.6734 9.39663,-4.3799 0.40372,-0.0983 1.15547,-0.28135 1.67056,-0.40668 3.27171,-0.79606 6.42525,-0.87956 9.65505,-0.25562 5.05306,0.97616 10.34782,3.1889 15.36749,6.42225 4.45912,2.87229 8.88426,6.69093 12.08548,10.42906 1.19809,1.39905 1.81748,2.20629 2.73794,3.56833 0.34888,0.51625 0.66254,0.93866 0.69702,0.93866 0.0345,0 0.23876,-0.4346 0.45394,-0.96579 1.0155,-2.50669 2.0608,-4.47493 3.60597,-6.78973 1.51333,-2.2671 2.77818,-3.80899 4.70786,-5.7391 1.753,-1.75332 3.05045,-2.83195 4.89012,-4.06533 3.46306,-2.32174 6.89856,-3.66753 10.76993,-4.21889 0.50267,-0.0716 1.21709,-0.10599 2.51257,-0.12097 1.5019,-0.0174 1.91558,-0.0409 2.42909,-0.13797 4.97695,-0.94113 9.73997,0.0276 15.25735,3.10316 2.80827,1.56541 5.02489,3.23551 7.07938,5.33395 1.90067,1.94132 3.29349,3.85136 4.45441,6.10853 1.27219,2.47354 2.02933,4.82405 2.51292,7.8013 0.0822,0.50601 0.22556,1.18341 0.31861,1.50534 1.29499,4.48053 1.67851,8.98847 1.19511,14.04774 -1.15235,12.06041 -7.76618,25.66826 -20.76742,42.72856 -3.29319,4.32132 -6.70141,8.56112 -12.56296,15.62811 -4.4512,5.36663 -8.04046,9.92083 -10.66506,13.53228 -0.32692,0.44985 -0.42854,0.54932 -0.61963,0.60657 -0.19746,0.0592 -0.265,0.0524 -0.49658,-0.0501 -0.53941,-0.23861 -0.5874,-0.70269 -0.13555,-1.31075 0.14792,-0.19904 0.26893,-0.39335 0.26893,-0.43181 0,-0.0385 -0.22927,-0.14138 -0.50949,-0.22876 -0.91767,-0.28611 -0.60099,-0.48558 -2.80306,1.76551 -1.06537,1.08909 -2.43977,2.46065 -3.05422,3.04792 -1.08287,1.03501 -1.12463,1.06777 -1.36099,1.06777 -0.14985,0 -0.30708,-0.045 -0.40793,-0.11684 -0.0903,-0.0642 -0.8317,-0.73593 -1.64765,-1.49257 -0.81596,-0.75665 -1.51421,-1.37571 -1.55166,-1.37571 -0.0854,0 -1.60063,2.4303 -1.60063,2.56725 0,0.0353 0.79741,1.07235 1.77201,2.30437 3.09353,3.91061 2.96718,3.74248 2.96819,3.94881 6.5e-4,0.12745 -0.0404,0.21585 -0.12918,0.27802 -0.18557,0.12998 -0.29508,0.11361 -0.46773,-0.0699 z m -4.44914,-7.42329 c 0.0877,-0.14727 0.41621,-0.68067 0.72995,-1.18528 0.31373,-0.50465 0.57054,-0.9452 0.57068,-0.979 0,-0.0675 0.0315,-0.0382 -3.65799,-3.42054 -2.63998,-2.42013 -5.99772,-5.55543 -8.48003,-7.91822 -0.77003,-0.73296 -1.41403,-1.31869 -1.43111,-1.30162 -0.017,0.0171 0.0314,0.11632 0.10763,0.22055 0.32598,0.4455 3.13798,3.98506 5.83189,7.34079 1.59773,1.99026 3.60591,4.49394 4.46261,5.56374 0.8567,1.06979 1.59121,1.9456 1.63224,1.9462 0.041,0 0.14639,-0.11939 0.23413,-0.26662 z m 7.91322,-2.81137 c 1.94803,-1.96522 2.34212,-2.38957 2.27634,-2.45104 -0.0437,-0.0409 -0.50099,-0.22409 -1.01607,-0.40712 -0.51509,-0.18302 -1.52655,-0.55967 -2.24771,-0.83699 l -1.31118,-0.50424 -0.13227,0.15377 c -0.46329,0.53862 -2.72977,3.83945 -2.70536,3.94001 0.028,0.11527 2.58594,2.47645 2.68614,2.47945 0.0518,0 1.15437,-1.06665 2.45011,-2.37384 z m -5.22901,-1.41325 c 0.28099,-0.41046 0.86548,-1.24523 1.29888,-1.85504 0.43339,-0.60982 0.79079,-1.14715 0.79423,-1.19407 0.004,-0.057 -0.40162,-0.26323 -1.22293,-0.62153 -4.53986,-1.98054 -8.80628,-4.25122 -13.24687,-7.0503 -0.52531,-0.33111 -0.97308,-0.58333 -0.99505,-0.56048 -0.022,0.0229 0.14801,0.21642 0.37773,0.43016 0.22973,0.21374 1.66524,1.56146 3.19001,2.99492 1.52478,1.43346 4.07613,3.81507 5.66967,5.29245 1.59355,1.47738 3.04684,2.82655 3.22957,2.99816 0.18271,0.17161 0.34608,0.31201 0.36303,0.31201 0.017,0 0.26073,-0.33583 0.54173,-0.74628 z m 12.02693,-1.9901 c 1.75399,-2.35556 4.61276,-5.93929 8.53294,-10.69676 5.12832,-6.22372 5.87445,-7.13566 7.60039,-9.28947 5.72694,-7.14671 9.40562,-12.10074 12.74768,-17.16712 7.48194,-11.34222 11.71175,-21.07332 12.96277,-29.82219 0.28165,-1.96967 0.36123,-2.99962 0.39421,-5.10179 0.0273,-1.74129 0.005,-2.45734 -0.0744,-2.37798 -0.0134,0.0133 -0.0784,0.40457 -0.14442,0.86933 -1.32498,9.32184 -5.18973,19.38196 -12.07364,31.42812 -2.10571,3.68478 -4.77205,7.9588 -7.23004,11.58938 -6.94647,10.2603 -16.0345,21.81249 -23.47645,29.84195 -0.45763,0.49375 -0.8225,0.92636 -0.81084,0.96136 0.0116,0.035 0.16454,0.11231 0.33973,0.17184 0.17519,0.0595 0.38378,0.17348 0.46353,0.2532 0.0797,0.0797 0.15047,0.14494 0.15715,0.14494 0.007,0 0.28184,-0.36216 0.61145,-0.80481 z m -2.34,-1.22918 c 6.97262,-7.53244 13.53153,-15.6381 20.16478,-24.92011 6.252,-8.74853 10.84951,-16.23678 14.69813,-23.93969 3.98364,-7.97322 6.37609,-14.60752 7.59034,-21.04825 0.59891,-3.17677 0.83223,-5.80593 0.77607,-8.74467 -0.0515,-2.69476 -0.0925,-2.96563 -0.69573,-4.59479 -1.29806,-3.50579 -3.30054,-7.04487 -5.64254,-9.97238 -3.39561,-4.24451 -7.34537,-6.9705 -11.71581,-8.08585 -0.9489,-0.24218 -0.96367,-0.20666 -0.18524,0.44517 2.13284,1.78597 4.00655,3.97772 5.7751,6.75532 5.18982,8.15098 7.37425,17.37224 6.27425,26.48585 -0.50925,4.21923 -1.8645,9.0084 -3.87587,13.69655 -3.55972,8.29717 -9.4075,17.17344 -19.08801,28.97348 -1.8761,2.28686 -3.39368,4.09839 -7.64944,9.13103 -6.65724,7.87254 -9.3058,11.08801 -11.49085,13.95046 -0.63142,0.82716 -0.73938,0.99783 -0.67175,1.06202 0.12207,0.11588 4.55644,1.77523 4.76682,1.78376 0.0342,0.002 0.4706,-0.43866 0.96975,-0.9779 z m -5.59637,-2.41445 c 2.42564,-3.1553 4.98644,-6.26295 11.50339,-13.95995 5.54066,-6.54392 7.90403,-9.38916 10.3073,-12.40884 9.93131,-12.47856 15.69444,-22.27032 18.46536,-31.37329 2.05159,-6.73986 2.42349,-13.23391 1.12904,-19.71546 -1.01232,-5.06889 -2.93885,-9.75304 -5.75766,-13.99912 -1.43202,-2.15713 -2.34313,-3.28715 -3.91943,-4.86119 -1.15476,-1.15309 -2.19953,-2.03554 -3.19347,-2.69732 l -0.57437,-0.38241 -0.66455,-0.0594 c -0.85595,-0.0764 -3.13974,-0.0242 -4.11793,0.0941 -7.71992,0.93437 -15.57999,5.32732 -23.62394,13.20332 -0.9967,0.97588 -2.66171,2.79467 -3.91094,4.27213 -0.7741,0.91553 -1.2069,1.61405 -2.12374,3.42759 l -0.47483,0.93924 0.29681,0.75819 c 0.60225,1.53834 0.957,2.84389 1.19988,4.41572 0.0964,0.62406 0.12319,1.08111 0.12687,2.16643 0.006,1.67042 -0.0861,2.52513 -0.29321,2.73229 -0.16362,0.16362 -0.31699,0.17246 -0.49476,0.0285 l -0.13249,-0.10728 0.0821,-0.66827 c 0.12882,-1.04855 0.1005,-3.04766 -0.0579,-4.08616 -0.22108,-1.44951 -0.97427,-4.07424 -1.16914,-4.07424 -0.10418,0 -0.61518,1.26102 -1.09109,2.69248 -0.59111,1.77799 -1.08193,3.90703 -1.26461,5.48554 -0.0586,0.50618 -0.0578,0.80215 0.004,1.53224 0.0733,0.86327 0.0716,0.91492 -0.0366,1.12324 -0.22443,0.43248 -0.80117,0.57078 -1.13526,0.27226 -0.16354,-0.14613 -0.18621,-0.20959 -0.23516,-0.65849 -0.0298,-0.27324 -0.08,-0.57637 -0.11156,-0.67366 -0.0315,-0.0973 -0.0683,-0.41336 -0.0817,-0.7024 -0.0234,-0.5062 -0.33128,-2.16723 -0.54764,-2.95458 l -0.10454,-0.38047 -0.32394,-0.0292 c -0.38812,-0.0351 -0.58979,-0.15525 -0.71961,-0.42883 -0.1461,-0.30788 -0.11924,-0.54366 0.10832,-0.95056 0.11268,-0.20148 0.20486,-0.41739 0.20486,-0.47978 -3e-5,-0.3626 -1.58184,-3.55655 -2.60135,-5.25251 -5.20653,-8.66112 -12.42811,-15.76287 -19.81654,-19.48772 -5.4144,-2.72964 -10.15748,-3.54778 -14.41186,-2.48591 -3.45057,0.86125 -6.88537,3.22906 -8.95024,6.16993 -1.80912,2.57664 -2.92371,5.92829 -3.3382,10.03828 -0.0409,0.40658 -0.0747,1.52485 -0.076,2.51689 l -0.002,1.78523 0.22433,1.08285 c 1.56358,7.54753 5.14725,16.36096 10.85283,26.69071 5.84651,10.58489 12.94316,21.41153 22.63638,34.53403 2.59912,3.51864 2.57154,3.48663 3.86417,4.48391 7.20704,5.56024 14.41886,9.87204 21.97838,13.14042 0.72407,0.31305 1.34647,0.55169 1.38312,0.5303 0.0366,-0.0214 0.4817,-0.57884 0.98903,-1.2388 z M 910.6074,666.14288 c -0.0358,-0.0668 -0.45265,-0.65286 -0.92644,-1.30235 -9.96043,-13.65419 -18.00723,-26.44394 -23.44628,-37.26601 -2.57997,-5.13335 -4.29772,-9.17129 -5.86393,-13.78435 -0.28418,-0.83701 -0.52609,-1.4747 -0.53757,-1.41707 -0.0295,0.1478 0.22737,1.3402 0.66663,3.09506 2.32279,9.27958 6.36768,19.11045 12.11952,29.4558 1.90931,3.43411 2.2651,4.00682 3.14427,5.06125 3.68587,4.42066 9.08334,10.36616 13.8354,15.24018 0.55712,0.57143 1.02655,1.03896 1.04317,1.03896 0.0167,0 0.002,-0.0547 -0.0348,-0.12147 z m -22.38174,-26.32612 c -1.94563,-3.8879 -4.00569,-8.5632 -5.62636,-12.76904 -3.16844,-8.22248 -4.76982,-14.89864 -5.12399,-21.36206 -0.0817,-1.4917 -0.0444,-3.80148 0.0833,-5.15305 0.0502,-0.53118 0.11963,-1.49257 0.15429,-2.13642 0.19594,-3.63886 1.10555,-6.5432 2.87349,-9.17493 0.25411,-0.37827 0.43319,-0.68776 0.39794,-0.68776 -0.0813,0 -0.48539,0.29214 -1.33819,0.96741 -2.7965,2.21431 -4.81593,4.83345 -6.00103,7.78318 -1.65298,4.11429 -1.8114,9.05457 -0.46767,14.58314 1.60407,6.59966 4.79939,13.29066 10.52879,22.04726 1.85579,2.83632 5.06256,7.35245 5.1131,7.20083 0.0123,-0.037 -0.25483,-0.62138 -0.59372,-1.29856 z m 42.03916,-27.31896 c 0.0943,-0.35118 0.62989,-2.11543 0.69164,-2.27809 0.11469,-0.30213 -0.181,0.0947 -0.65082,0.87339 l -0.50354,0.83458 0.13217,0.44924 c 0.0727,0.24708 0.15941,0.44016 0.19271,0.42905 0.0332,-0.0111 0.0953,-0.14977 0.13784,-0.30817 z m -0.82251,-2.8386 c 0.12084,-0.19561 0.49794,-0.78465 0.83801,-1.30901 0.57971,-0.89382 0.62855,-0.99269 0.78217,-1.58315 0.0901,-0.3464 0.26623,-0.96907 0.39137,-1.38375 0.12513,-0.41466 0.22751,-0.80285 0.22751,-0.86264 0,-0.12447 -0.75041,-1.33827 -1.36185,-2.20281 -3.98771,-5.63835 -10.39261,-11.20836 -17.15901,-14.92228 -4.92057,-2.70078 -10.51291,-4.6143 -14.53523,-4.97348 -0.54444,-0.0486 -0.44233,0.0455 0.17559,0.16185 7.60605,1.43228 15.62178,6.70403 22.50313,14.79978 3.18331,3.74509 5.76645,7.81158 7.38547,11.62657 0.18666,0.43983 0.3559,0.84579 0.3761,0.90212 0.0623,0.17404 0.14863,0.11605 0.37674,-0.2532 z m 4.32559,-6.18673 c 0.51034,-0.65267 1.05958,-1.38526 1.22054,-1.62794 0.16097,-0.24271 0.65187,-0.98617 1.09091,-1.65216 2.04213,-3.09774 4.08813,-5.57917 6.78977,-8.23473 4.19233,-4.12082 8.96469,-7.32863 13.60066,-9.14188 0.54729,-0.21404 1.02139,-0.4145 1.05359,-0.44543 0.0929,-0.0893 -0.89659,-0.002 -1.81765,0.16034 -2.12573,0.37472 -4.13737,1.04074 -6.20128,2.05312 -4.41209,2.16421 -8.43346,5.55892 -11.64724,9.8322 -1.3308,1.76954 -2.49357,3.65406 -3.45481,5.59927 -0.81521,1.64971 -1.79685,4.03253 -1.79849,4.36567 -6.5e-4,0.13939 0.1189,0.32263 0.19237,0.29479 0.0241,-0.009 0.4613,-0.55059 0.97163,-1.20325 z m 12.69286,-12.45103 c 6.26159,-4.55052 12.42218,-7.0722 18.45506,-7.55412 0.30455,-0.0243 0.47786,-0.0622 0.46474,-0.10156 -0.0254,-0.0763 -0.97622,-0.4017 -1.75209,-0.59966 -0.50765,-0.12953 -0.61271,-0.13848 -0.99505,-0.0848 -4.82759,0.67835 -9.76431,2.96801 -14.62155,6.78152 -0.90617,0.71146 -2.28754,1.89288 -2.54615,2.17761 l -0.1756,0.19334 0.1756,-0.10843 c 0.0966,-0.0596 0.54434,-0.37641 0.99504,-0.70395 z m -65.25872,-1.1417 c 0.30436,-0.43817 0.86081,-1.14897 1.43194,-1.82913 0.36343,-0.43281 0.11632,-0.20881 -0.35514,0.32193 -0.46897,0.52793 -1.12981,1.41689 -1.40327,1.88766 -0.19598,0.33737 -0.0709,0.19163 0.32647,-0.38046 z m 91.68604,-5.58864 c 0,-0.0883 -1.57575,-0.70878 -2.60331,-1.02508 -0.68449,-0.2107 -1.73389,-0.44664 -2.47222,-0.55585 -0.84643,-0.1252 -2.08004,-0.21427 -2.13981,-0.1545 -0.0296,0.0296 0.14306,0.13135 0.40656,0.23954 0.25191,0.10344 0.68192,0.2884 0.95555,0.411 0.44422,0.19904 0.56652,0.22707 1.14138,0.26162 1.22288,0.0735 2.83132,0.34527 4.15579,0.70225 0.28974,0.0781 0.53339,0.14359 0.54142,0.14554 0.008,0.002 0.0146,-0.009 0.0146,-0.0245 z"
       style="fill:#896c76" />
    <path
       inkscape:connector-curvature="0"
       id="path3004"
       d="m 937.37937,700.31548 c -2.38218,-3.03614 -3.41764,-4.31676 -3.49038,-4.31676 -0.0412,0 -0.20574,0.23049 -0.36569,0.51215 -0.30955,0.54514 -0.45371,0.64138 -0.69573,0.4644 -0.18898,-0.13819 -0.13463,-0.38665 0.2246,-1.02668 0.18522,-0.32999 0.32454,-0.63181 0.3096,-0.67072 -0.015,-0.0389 -1.03279,-1.32156 -2.26191,-2.85033 -6.8785,-8.55536 -9.43553,-11.77237 -11.90963,-14.98353 -1.42784,-1.85321 -1.59152,-2.0422 -2.98235,-3.44333 -1.08015,-1.08814 -1.79662,-1.74898 -2.69349,-2.48434 -3.2955,-2.70204 -6.06538,-5.20946 -9.4224,-8.5296 -2.62831,-2.59942 -4.20228,-4.32428 -5.76867,-6.32169 -1.19987,-1.53003 -2.05602,-2.79363 -3.9214,-5.78766 -0.73595,-1.18124 -1.07019,-1.64246 -2.29559,-3.16777 -7.51164,-9.35001 -12.43788,-16.75197 -16.1469,-24.26162 -2.95991,-5.99294 -4.56712,-11.16855 -5.03484,-16.21344 -0.0803,-0.86602 -0.08,-3.61959 3.4e-4,-4.50032 0.61847,-6.76666 3.79062,-11.8507 9.89297,-15.85555 2.42016,-1.5883 5.43202,-3.06218 7.66647,-3.75166 0.98146,-0.30286 3.64337,-0.94726 4.61058,-1.11615 2.53136,-0.44202 5.20693,-0.43125 7.79825,0.0315 5.2648,0.94 11.04686,3.40922 16.47683,7.03642 5.67514,3.79096 11.03861,8.97829 14.1123,13.64886 0.47581,0.723 0.55188,0.81499 0.61526,0.74385 0.0203,-0.0228 0.23028,-0.52875 0.46659,-1.12432 0.48767,-1.22904 1.56964,-3.43701 2.28027,-4.65332 3.81379,-6.52775 9.39244,-11.71838 15.32961,-14.26339 3.12647,-1.34019 6.16973,-1.95979 9.39774,-1.91336 1.05915,0.0153 1.32229,6.6e-4 1.90229,-0.10794 1.81913,-0.33951 4.10063,-0.43061 5.73617,-0.22905 3.05249,0.37617 6.18135,1.49333 9.65782,3.44834 6.41621,3.60817 10.85484,8.79175 12.86673,15.02623 0.40368,1.25091 0.74442,2.71915 1.00524,4.33141 0.0651,0.40239 0.22339,1.09915 0.35176,1.54834 1.33324,4.66486 1.65121,9.66475 0.96244,15.13334 -1.31347,10.42854 -6.81446,22.24621 -16.93343,36.3778 -3.69412,5.15903 -8.13067,10.79797 -15.51933,19.72538 -5.3215,6.42973 -8.4809,10.4165 -11.02602,13.91342 -0.34455,0.4734 -0.69493,0.91458 -0.77861,0.98041 -0.10007,0.0787 -0.23894,0.11969 -0.40563,0.11969 -0.46694,0 -0.83016,-0.47879 -0.67427,-0.88882 0.0326,-0.0858 0.18023,-0.32022 0.32805,-0.52101 0.17558,-0.23853 0.24885,-0.38498 0.21136,-0.42248 -0.0518,-0.0518 -0.84028,-0.32428 -1.19895,-0.4143 -0.12876,-0.0323 -0.44038,0.26194 -2.91419,2.75176 -1.5235,1.53336 -2.92283,2.9162 -3.10961,3.07296 -0.37635,0.31584 -0.59651,0.36207 -0.86802,0.18219 -0.0847,-0.0561 -0.82918,-0.7276 -1.65433,-1.49216 -0.82517,-0.76459 -1.53963,-1.39015 -1.58769,-1.39015 -0.0928,0 -0.28657,0.28611 -1.10078,1.625 -0.27922,0.45914 -0.50729,0.88057 -0.50683,0.93651 6.6e-4,0.056 0.34606,0.53632 0.76799,1.06747 2.79895,3.52369 3.97228,5.05213 3.97228,5.17449 0,0.17278 -0.17284,0.32755 -0.36577,0.32755 -0.1286,0 -0.32813,-0.22485 -1.31129,-1.47794 z m -3.32609,-6.08733 c 0.12257,-0.20123 0.45555,-0.73942 0.73997,-1.19602 0.28441,-0.45656 0.51712,-0.87006 0.51712,-0.91885 0,-0.0804 -0.9179,-0.94111 -5.08319,-4.7667 -1.71893,-1.57873 -4.78441,-4.44984 -6.81945,-6.38706 -1.54329,-1.46911 -1.7165,-1.62234 -1.77159,-1.56725 -0.0426,0.0426 3.59477,4.632 8.38338,10.57765 0.73895,0.91748 1.87663,2.33323 2.52821,3.14611 0.65157,0.81286 1.20672,1.47795 1.23368,1.47795 0.027,0 0.1493,-0.16464 0.27187,-0.36583 z m 7.85844,-2.7182 c 1.38499,-1.40102 2.35065,-2.4219 2.34054,-2.47443 -0.0112,-0.0579 -0.34691,-0.20513 -0.95299,-0.41784 -0.51467,-0.18063 -1.52645,-0.55609 -2.24842,-0.83435 -0.72197,-0.27825 -1.35807,-0.5059 -1.41359,-0.5059 -0.0636,0 -0.35914,0.3618 -0.80064,0.98042 -1.26779,1.77634 -2.06295,2.95562 -2.06295,3.0595 0,0.106 2.60141,2.57289 2.71639,2.57593 0.0352,0 1.12489,-1.07156 2.42166,-2.38333 z m -5.18382,-1.46687 c 0.27625,-0.41046 0.86051,-1.25043 1.29834,-1.8666 0.43783,-0.61618 0.79607,-1.15853 0.79607,-1.20521 0,-0.0521 -0.23137,-0.18262 -0.59995,-0.33834 -4.47799,-1.89175 -9.81859,-4.71473 -14.05659,-7.43015 -0.78863,-0.50531 -0.97033,-0.60888 -1.00582,-0.57338 -0.0359,0.0359 1.12622,1.1574 3.72177,3.59214 4.42037,4.1465 9.20666,8.56782 9.27507,8.56782 0.0379,0 0.29486,-0.33583 0.57111,-0.74628 z m 12.27936,-2.32666 c 2.26599,-2.9977 4.78686,-6.14417 9.21475,-11.50159 10.19372,-12.33361 15.3199,-19.04102 19.79466,-25.90053 8.05899,-12.3539 12.17962,-22.6405 12.90753,-32.222 0.1226,-1.61376 0.0964,-4.80665 -0.0384,-4.67189 -0.0135,0.0135 -0.1059,0.58947 -0.20538,1.27998 -0.77576,5.38424 -2.50943,11.28335 -5.13389,17.46891 -3.88722,9.16181 -10.09825,19.83667 -17.74327,30.49531 -6.42014,8.95094 -13.15689,17.32549 -19.58075,24.34113 -0.61484,0.67148 -1.1179,1.25095 -1.1179,1.2877 0,0.0368 0.15005,0.11433 0.33342,0.17238 0.18338,0.0581 0.39409,0.16996 0.46826,0.2487 0.0742,0.0787 0.16307,0.13661 0.19758,0.12859 0.0345,-0.008 0.44103,-0.51503 0.90339,-1.12669 z m -3.0669,-0.39509 c 1.78003,-1.84402 5.60062,-6.16789 8.13288,-9.2042 6.9924,-8.38426 14.05525,-17.99932 19.36948,-26.36879 6.08213,-9.57889 10.87129,-19.23997 13.398,-27.02756 2.0416,-6.29241 3.03793,-12.44477 2.79475,-17.25766 -0.0989,-1.95832 -0.14882,-2.30991 -0.45428,-3.2024 -0.92431,-2.70061 -2.46048,-5.76485 -4.17387,-8.32572 -3.76114,-5.62151 -8.32323,-9.14296 -13.56388,-10.46988 -0.97841,-0.24773 -0.99346,-0.21813 -0.2089,0.41108 0.7624,0.61143 2.21561,2.04106 3.02836,2.97923 2.94866,3.40363 5.67033,8.28078 7.28991,13.06328 1.02468,3.02582 1.63638,5.85875 1.96298,9.09118 0.12721,1.25897 0.17604,4.61043 0.087,5.9731 -0.31722,4.85691 -1.56389,9.84308 -3.82626,15.30338 -3.43031,8.27916 -9.31692,17.31612 -18.96845,29.1198 -2.1439,2.62195 -3.36816,4.08233 -10.12711,12.0803 -4.22885,5.00406 -6.72842,8.04224 -8.71667,10.59498 -1.28917,1.65518 -1.409,1.82315 -1.37048,1.92133 0.0445,0.11351 4.50853,1.79039 4.78831,1.79871 0.0507,0.002 0.3018,-0.21457 0.55819,-0.48016 z m -5.93277,-1.87303 c 0.10894,-0.13682 0.65568,-0.84141 1.21498,-1.56574 2.25189,-2.91636 4.43048,-5.55597 10.78046,-13.06167 6.79836,-8.03569 8.57662,-10.18038 11.20348,-13.51198 12.5859,-15.96251 18.43739,-27.66658 19.6065,-39.21661 0.12488,-1.23378 0.17561,-4.55125 0.0895,-5.85324 -0.51813,-7.83434 -3.17912,-15.07205 -7.80637,-21.23286 -1.59264,-2.12045 -3.51081,-4.02924 -5.42367,-5.39717 -0.3682,-0.26331 -0.73987,-0.51516 -0.82595,-0.55967 -0.10044,-0.052 -0.54276,-0.10286 -1.2346,-0.14213 -3.94591,-0.22395 -8.45127,0.77034 -12.89182,2.84514 -6.09438,2.84751 -12.79596,8.23194 -18.20137,14.62402 -0.56746,0.67103 -0.91211,1.14391 -1.21585,1.66816 -0.59756,1.0314 -1.45582,2.71133 -1.45582,2.84957 0,0.0639 0.10549,0.37547 0.23441,0.69233 0.60986,1.49883 1.04362,3.14957 1.26102,4.79895 0.15232,1.15561 0.11714,3.4146 -0.0673,4.31736 -0.045,0.22061 -0.17464,0.33595 -0.37745,0.33595 -0.26613,0 -0.35934,-0.19119 -0.28636,-0.58734 0.0324,-0.17595 0.0744,-0.92572 0.0933,-1.66615 0.0379,-1.48584 -0.0309,-2.3047 -0.30657,-3.6458 -0.2709,-1.31812 -0.8587,-3.14394 -1.01215,-3.14394 -0.18895,0 -1.34131,3.24268 -1.75765,4.94597 -0.2771,1.13362 -0.49627,2.29637 -0.61763,3.27663 -0.0765,0.61804 -0.0767,0.8041 -0.002,1.55022 0.0911,0.90663 0.0728,1.05464 -0.16181,1.30507 -0.27426,0.29277 -0.87504,0.28761 -1.06951,-0.009 -0.0467,-0.0713 -0.10992,-0.37038 -0.14034,-0.66444 -0.0305,-0.29406 -0.0834,-0.58717 -0.11777,-0.65134 -0.0343,-0.0642 -0.0624,-0.29818 -0.0624,-0.52002 0,-0.44693 -0.14676,-1.33157 -0.4199,-2.53096 -0.22916,-1.0063 -0.22851,-1.00507 -0.51002,-0.96006 -0.39061,0.0625 -0.78198,-0.23814 -0.86143,-0.66167 -0.0319,-0.1701 0.004,-0.28765 0.21053,-0.68942 l 0.24901,-0.48435 -0.33374,-0.78257 c -0.76569,-1.79553 -2.08461,-4.19394 -3.47207,-6.31388 -5.68602,-8.6879 -12.99063,-15.28638 -20.52986,-18.54528 -4.78812,-2.06972 -9.21031,-2.58239 -12.96157,-1.50267 -3.57847,1.02999 -6.84887,3.43572 -8.88404,6.53515 -1.51498,2.30723 -2.59071,5.57339 -2.97081,9.02009 -0.13992,1.26876 -0.21151,3.24435 -0.15112,4.17077 0.11414,1.7514 1.01135,5.43157 2.14726,8.80763 2.34771,6.97771 5.6403,13.9766 10.82242,23.00466 5.70702,9.94254 13.01266,20.86546 21.86438,32.69027 1.51633,2.02561 1.56404,2.07753 2.77756,3.02256 6.06576,4.72362 13.01974,9.00896 19.54978,12.04741 1.30232,0.60597 3.66316,1.63582 3.75679,1.6388 0.0381,0.002 0.15837,-0.10975 0.26732,-0.24657 z m -29.27414,-19.17155 c -0.0308,-0.0575 -0.56242,-0.80167 -1.18139,-1.65354 -10.19022,-14.02495 -18.02399,-26.50734 -23.45988,-37.38117 -2.6271,-5.25518 -4.28904,-9.23359 -6.07175,-14.53471 -0.63944,-1.90146 0.0914,1.59152 1.05933,5.06304 2.43123,8.7196 6.25081,17.70184 11.64856,27.3931 1.85913,3.33792 2.15302,3.80797 3.05193,4.88124 3.79594,4.53226 10.0879,11.45093 14.1782,15.59042 0.70261,0.71106 0.89933,0.87392 0.775,0.64162 z M 887.9418,639.17912 c -4.27597,-8.69451 -7.49539,-17.23227 -9.07731,-24.07257 -1.2524,-5.41552 -1.70116,-10.81327 -1.2384,-14.89586 0.0474,-0.4185 0.087,-1.05066 0.088,-1.40478 0.003,-1.23136 0.25475,-3.05065 0.61382,-4.44247 0.51416,-1.99307 1.24607,-3.62592 2.33772,-5.21535 0.24322,-0.35412 0.41613,-0.65268 0.38425,-0.66345 -0.199,-0.0673 -2.39312,1.744 -3.54184,2.92384 -3.12719,3.2119 -4.75044,6.79638 -5.17895,11.43615 -0.0817,0.88431 -0.0826,3.11456 -0.002,4.03873 0.40639,4.64163 1.88765,9.59851 4.53895,15.18913 2.37783,5.01398 6.31737,11.43648 10.82488,17.64748 0.93141,1.28341 1.20347,1.62871 1.24803,1.58415 0.0176,-0.0176 -0.43132,-0.9738 -0.99748,-2.125 z m 42.49202,-27.17823 c 0.1375,-0.46457 0.32621,-1.08173 0.41938,-1.37147 0.0932,-0.28972 0.1573,-0.53995 0.14254,-0.55605 -0.0147,-0.0161 -0.0778,0.0335 -0.14002,0.11035 -0.18614,0.22961 -1.04737,1.68585 -1.04757,1.77133 -6.6e-4,0.18197 0.25742,0.92993 0.31407,0.91105 0.0339,-0.0113 0.1741,-0.40064 0.3116,-0.86521 z m -0.36816,-3.27218 c 0.8473,-1.31992 0.86637,-1.35682 1.03603,-2.00474 0.0951,-0.36302 0.27876,-1.01127 0.40821,-1.44053 l 0.23536,-0.78048 -0.15791,-0.2731 c -0.34093,-0.58961 -1.28675,-1.99442 -1.85265,-2.75168 -2.54017,-3.39913 -6.16943,-6.967 -10.08171,-9.91118 -5.19637,-3.91051 -10.914,-6.773 -16.70252,-8.36198 -1.56805,-0.43045 -3.78951,-0.81989 -4.65249,-0.81563 -0.47239,0.002 -0.3396,0.0735 0.37119,0.19896 3.73283,0.65879 7.84437,2.40299 11.73572,4.97852 2.77111,1.83409 4.91358,3.61339 7.64116,6.34588 3.90609,3.91313 6.83567,7.77167 9.15818,12.06216 0.61847,1.14254 1.57351,3.19287 1.86134,3.99603 0.0202,0.0564 0.0592,0.10243 0.0868,0.10243 0.0275,0 0.43854,-0.6051 0.91328,-1.34466 z m 3.05818,-4.40613 c 0.15327,-0.20121 0.61232,-0.78726 1.02014,-1.30234 0.40781,-0.5151 0.99882,-1.34479 1.31337,-1.84377 3.49835,-5.54981 8.0066,-10.35411 13.13985,-14.00269 2.76195,-1.96312 5.87655,-3.62554 8.79446,-4.69404 0.29949,-0.10967 0.3647,-0.20919 0.13707,-0.20919 -0.30286,0 -1.62756,0.19305 -2.43955,0.35554 -6.2147,1.24354 -12.62444,5.61927 -17.25311,11.77818 -1.94685,2.59046 -3.51923,5.40092 -4.71347,8.42475 -0.59052,1.49516 -0.60151,1.5322 -0.50702,1.70873 0.0444,0.0829 0.11414,0.15065 0.1551,0.15065 0.041,0 0.19989,-0.16462 0.35316,-0.36582 z m 13.03039,-13.05004 c 5.49031,-4.05634 11.03669,-6.59546 16.33557,-7.47834 0.55212,-0.092 1.34627,-0.19699 1.76478,-0.23333 1.05848,-0.0919 1.25844,-0.11972 1.25844,-0.17501 0,-0.0631 -0.62272,-0.29196 -1.46331,-0.5379 -0.80946,-0.23685 -1.20625,-0.24664 -2.28276,-0.0565 -5.1442,0.90914 -10.66619,3.8158 -15.71592,8.27255 -1.32042,1.16536 -1.28603,1.23482 0.1032,0.20843 z m -65.47972,-0.52945 c 0.77005,-1.22212 1.43377,-2.07496 2.39581,-3.07844 0.7821,-0.81578 0.60853,-0.76309 -0.22488,0.0683 -0.68496,0.68328 -1.14672,1.23842 -1.68835,2.02975 -0.34887,0.50971 -0.86704,1.39728 -0.86704,1.48514 0,0.0882 0.0631,0.005 0.38446,-0.50472 z m 92.20489,-6.51253 c -0.37999,-0.19791 -1.33277,-0.57248 -2.14446,-0.84308 -1.42702,-0.47571 -3.06595,-0.78746 -4.52515,-0.86076 -0.63979,-0.0322 -0.71561,-0.0262 -0.63824,0.0498 0.0483,0.0474 0.24583,0.14723 0.43899,0.22185 0.19316,0.0747 0.60347,0.2477 0.91181,0.38459 0.5242,0.23275 0.61353,0.25322 1.3755,0.31525 1.43549,0.11687 2.70366,0.33794 4.00491,0.69821 0.76391,0.2115 0.93673,0.22174 0.57664,0.0342 z"
       style="fill:#65545a" />
    <path
       inkscape:connector-curvature="0"
       id="path3002"
       d="m 938.57573,701.72026 c -0.0514,-0.0403 -0.83241,-1.01426 -1.73567,-2.1645 -2.63746,-3.35863 -2.84156,-3.60901 -2.94469,-3.61238 -0.0636,-0.004 -0.20398,0.18193 -0.39949,0.52359 -0.24536,0.42875 -0.32711,0.5268 -0.43922,0.5268 -0.15987,0 -0.32171,-0.14115 -0.32171,-0.28058 0,-0.0531 0.16009,-0.38253 0.35575,-0.73192 0.19566,-0.34939 0.34381,-0.66641 0.32921,-0.70445 -0.0253,-0.0658 -1.0447,-1.34152 -5.67728,-7.10446 -3.99648,-4.97164 -6.89911,-8.64439 -8.96451,-11.34294 -0.85934,-1.12278 -1.18505,-1.48897 -2.54297,-2.85901 -1.01699,-1.02607 -1.85819,-1.81475 -2.42424,-2.27289 -5.13021,-4.15221 -11.17354,-9.929 -14.37892,-13.74475 -1.66377,-1.98059 -2.72891,-3.47961 -4.55414,-6.40929 -0.40113,-0.64385 -0.85778,-1.37537 -1.01476,-1.62558 -0.15699,-0.25023 -0.92615,-1.25113 -1.70925,-2.22423 -6.84291,-8.50329 -11.47614,-15.33067 -15.20251,-22.40191 -5.72281,-10.8597 -7.40012,-19.974 -5.02708,-27.31653 1.081,-3.34473 2.95128,-6.15053 5.79037,-8.68669 2.69907,-2.41108 7.0916,-4.92025 10.5794,-6.04333 1.39477,-0.44911 4.16461,-1.10425 5.45844,-1.29105 1.78777,-0.25812 4.45853,-0.27632 6.04173,-0.0412 6.56668,0.97535 13.55502,4.10605 20.03439,8.97519 4.82049,3.62252 8.94589,7.83646 11.60494,11.85401 0.30363,0.45876 0.57257,0.8341 0.59765,0.8341 0.0826,0 0.15881,-0.1401 0.35035,-0.64386 2.14865,-5.65083 6.08322,-11.15818 10.77217,-15.07817 3.67322,-3.07083 7.9368,-5.16314 12.08692,-5.93153 1.43199,-0.26513 2.0008,-0.31417 3.83385,-0.33052 0.98188,-0.009 1.90377,-0.0426 2.04863,-0.075 1.53807,-0.34518 4.29952,-0.49127 5.8825,-0.31117 3.17163,0.3608 6.46851,1.53667 10.04332,3.58202 4.34662,2.48696 7.73049,5.64643 10.11333,9.44271 1.78069,2.83698 2.89265,5.87789 3.49356,9.55397 0.0839,0.51312 0.21745,1.15685 0.29685,1.43048 1.49528,5.15411 1.79732,10.49949 0.92408,16.35419 -1.56539,10.49547 -7.22538,22.27135 -17.51551,36.44191 -3.64829,5.02407 -7.4764,9.87082 -14.70133,18.61327 -5.70067,6.89802 -8.49871,10.43215 -11.34529,14.32993 -0.53976,0.73907 -0.71884,0.86721 -1.07471,0.76894 -0.27183,-0.075 -0.46046,-0.28887 -0.49626,-0.56249 -0.0242,-0.18534 0.003,-0.27191 0.15428,-0.48864 0.45604,-0.65376 0.48732,-0.70859 0.43446,-0.76144 -0.0834,-0.0834 -1.37953,-0.46822 -1.44364,-0.4286 -0.031,0.0192 -1.2584,1.24675 -2.72739,2.72787 -1.46896,1.48114 -2.84934,2.84727 -3.06746,3.03591 -0.43593,0.37698 -0.6417,0.43026 -0.92739,0.24015 -0.0843,-0.0561 -0.81918,-0.721 -1.63296,-1.47753 -0.81378,-0.75653 -1.53548,-1.38328 -1.60381,-1.39276 -0.10449,-0.0145 -0.24712,0.18267 -0.89856,1.24211 -0.42591,0.69263 -0.77437,1.30621 -0.77437,1.36354 0,0.0573 0.7407,1.03921 1.64601,2.18202 2.68905,3.39458 3.0951,3.92894 3.0951,4.07351 0,0.0737 -0.0585,0.17512 -0.13009,0.22524 -0.15706,0.11002 -0.17334,0.11099 -0.29208,0.0181 z m -3.95246,-8.32391 c 0.41338,-0.67028 0.74368,-1.26304 0.73399,-1.31726 -0.01,-0.0542 -0.88683,-0.8974 -1.94919,-1.87375 -5.31886,-4.88826 -6.73768,-6.2093 -10.08965,-9.39434 -0.88136,-0.83747 -1.6535,-1.55841 -1.71585,-1.60208 -0.14992,-0.10501 -0.20953,-0.0362 -0.10869,0.12542 0.13436,0.21538 2.29616,2.93932 6.02512,7.59189 6.80248,8.48735 6.19374,7.74177 6.29366,7.70846 0.0324,-0.0109 0.39721,-0.56806 0.81061,-1.23834 z m 7.31587,-1.84612 c 1.44656,-1.45777 2.3852,-2.44707 2.3852,-2.51395 0,-0.0765 -0.0762,-0.13803 -0.24877,-0.2009 -0.13682,-0.0498 -0.72694,-0.26228 -1.31139,-0.47208 -0.58444,-0.20981 -1.50501,-0.55426 -2.04569,-0.76547 -0.5407,-0.21121 -1.03708,-0.37628 -1.10307,-0.36684 -0.20889,0.0299 -2.92807,3.90806 -2.89098,4.12317 0.0221,0.1277 2.63995,2.5948 2.75664,2.59784 0.04,0 1.14621,-1.07978 2.45806,-2.40177 z m -5.06913,-1.62422 c 0.34675,-0.50703 0.92817,-1.33901 1.29204,-1.84885 0.7921,-1.10985 0.7978,-1.1196 0.70063,-1.20024 -0.0409,-0.0339 -0.46829,-0.23047 -0.94992,-0.43687 -4.72026,-2.02284 -9.23898,-4.44124 -14.33241,-7.6706 -0.55148,-0.34966 -0.62029,-0.37754 -0.62029,-0.25138 0,0.15533 13.02906,12.32983 13.1953,12.32983 0.0463,0 0.3679,-0.41485 0.71465,-0.92189 z m 11.90514,-1.8145 c 2.14004,-2.86082 4.78541,-6.16681 9.68334,-12.10154 4.96847,-6.02021 7.28608,-8.88864 10.09694,-12.49664 7.48028,-9.60163 12.52329,-17.32548 16.29938,-24.964 3.8843,-7.85746 5.83131,-14.64376 6.17987,-21.53988 0.0667,-1.31997 0.0217,-3.61527 -0.0744,-3.79932 -0.0961,-0.18395 -0.1381,-0.0248 -0.27676,1.0483 -0.61443,4.75503 -2.17218,10.39487 -4.44184,16.08162 -3.75225,9.40144 -10.07942,20.50384 -18.08794,31.73924 -6.55666,9.19855 -13.57686,17.93361 -20.25048,25.19716 -0.48754,0.53065 -0.88645,0.99497 -0.88645,1.03185 0,0.0672 0.13987,0.13398 0.53282,0.25423 0.11599,0.0355 0.27203,0.12962 0.34676,0.20916 0.0747,0.0796 0.16756,0.14464 0.20629,0.14464 0.0387,0 0.34133,-0.36217 0.67246,-0.80482 z m -3.00669,-0.50515 c 0.12323,-0.141 0.76726,-0.84558 1.43117,-1.56573 10.59211,-11.48912 22.26278,-27.13262 29.54019,-39.59592 4.53419,-7.76528 8.14889,-15.50476 10.1938,-21.82607 2.00155,-6.18733 2.99261,-12.35809 2.75795,-17.1722 -0.10779,-2.21146 -0.13442,-2.35436 -0.74881,-4.01648 -0.4069,-1.10085 -0.85813,-2.13084 -1.45852,-3.32929 -2.45474,-4.89994 -5.63593,-8.85421 -9.22734,-11.46971 -2.08552,-1.51881 -4.40079,-2.61455 -6.81346,-3.22459 -0.67742,-0.17128 -0.91457,-0.19019 -0.88631,-0.0706 0.0104,0.044 0.32183,0.32486 0.69205,0.62411 0.82006,0.66287 2.46503,2.30296 3.2271,3.21752 2.86393,3.43705 5.42378,8.07482 6.99451,12.67224 1.06278,3.11066 1.70517,6.12297 2.02211,9.48222 0.12135,1.28611 0.10354,5.52141 -0.0287,6.81901 -0.8096,7.94567 -3.98402,16.30718 -9.64684,25.41001 -3.26252,5.24442 -7.56871,11.11306 -13.24458,18.0502 -1.49137,1.82276 -4.43973,5.3471 -7.44289,8.8969 -5.72033,6.76153 -7.68366,9.11649 -9.6621,11.58939 -1.91163,2.38939 -2.94806,3.75588 -2.94806,3.88687 0,0.0674 0.009,0.12259 0.0199,0.12259 0.011,0 0.50479,0.18745 1.09748,0.41658 1.51781,0.58673 3.62919,1.33327 3.78017,1.33659 0.0792,0.002 0.21162,-0.0939 0.3512,-0.25359 z m -5.01028,-3.03554 c 2.30426,-3.02346 4.85258,-6.11599 11.99815,-14.5604 5.49196,-6.49021 7.08752,-8.40782 9.39963,-11.29674 10.69088,-13.35797 16.63001,-23.55525 19.30092,-33.139 0.71006,-2.54781 1.14579,-4.87778 1.42121,-7.59945 0.13098,-1.29429 0.14885,-5.24429 0.0297,-6.55562 -0.62621,-6.89001 -2.79353,-13.09992 -6.52685,-18.70106 -1.92542,-2.88872 -4.09767,-5.24435 -6.42308,-6.96533 -1.16723,-0.86384 -1.08708,-0.83294 -2.33987,-0.90221 -4.30564,-0.23811 -9.14997,0.92876 -13.95772,3.36204 -5.85744,2.96456 -12.25377,8.24761 -17.3394,14.32151 -0.50677,0.60524 -0.82508,1.05557 -1.15008,1.62705 -0.61069,1.07385 -1.38222,2.60202 -1.38222,2.73777 0,0.061 0.10548,0.37021 0.23441,0.68707 0.62302,1.53119 1.05518,3.18126 1.26454,4.82821 0.17332,1.36357 0.0933,4.08006 -0.13059,4.43383 -0.10349,0.1635 -0.40135,0.18096 -0.48306,0.0283 -0.0359,-0.0669 -0.027,-0.32997 0.0252,-0.74629 0.10886,-0.86792 0.10618,-2.63532 -0.005,-3.542 -0.16728,-1.36002 -0.57162,-3.01889 -1.02321,-4.19794 -0.27546,-0.71917 -0.31182,-0.6941 -0.80628,0.55605 -0.96022,2.42772 -1.60503,4.88253 -1.91264,7.28142 -0.0776,0.60557 -0.0776,0.77543 6.6e-4,1.51707 0.066,0.627 0.072,0.88351 0.0239,1.02917 -0.11352,0.34396 -0.54743,0.5479 -0.91067,0.42803 -0.26256,-0.0867 -0.31297,-0.19662 -0.37793,-0.82448 -0.03,-0.28985 -0.0809,-0.5763 -0.11315,-0.63655 -0.0322,-0.0602 -0.0586,-0.29313 -0.0586,-0.5175 0,-0.46865 -0.21202,-1.6846 -0.48644,-2.78976 l -0.18894,-0.76092 -0.29153,0.016 c -0.36203,0.0199 -0.6427,-0.13644 -0.76333,-0.42513 -0.12297,-0.29434 -0.1109,-0.36223 0.15726,-0.88396 l 0.24344,-0.47363 -0.30991,-0.72628 c -0.66911,-1.56784 -1.75023,-3.60526 -2.84956,-5.36996 -3.70353,-5.94503 -8.53064,-11.31871 -13.54747,-15.08143 -3.23196,-2.42404 -6.69557,-4.3027 -9.97132,-5.40845 -3.87817,-1.30911 -7.55178,-1.52165 -10.68964,-0.61848 -4.17446,1.20154 -7.85689,4.23342 -9.76787,8.04225 -1.37088,2.73235 -2.12219,5.91073 -2.28023,9.6464 -0.0686,1.62107 -0.008,2.64199 0.23089,3.84906 0.90426,4.58184 2.85622,10.30144 5.54323,16.24271 4.24696,9.39048 11.30004,21.37964 19.85113,33.74385 3.96049,5.72656 10.27991,14.36704 10.94331,14.96268 0.66016,0.59275 3.63005,2.82368 5.45916,4.10086 5.13084,3.58263 10.21361,6.52448 15.50745,8.97554 1.2215,0.56555 3.35977,1.4859 3.45771,1.48825 0.0524,0.002 0.48158,-0.50883 0.99504,-1.18256 z m -29.73871,-17.92986 c 0,-0.0801 -0.18777,-0.35213 -1.22118,-1.76915 -8.52519,-11.6897 -15.38869,-22.31602 -20.8011,-32.20498 -4.09794,-7.48733 -6.91749,-13.80181 -8.90083,-19.93377 -0.35795,-1.10667 -0.3839,-1.169 -0.45649,-1.09641 -0.0823,0.0823 0.30629,1.9766 0.82367,4.01542 2.51445,9.90867 6.79975,20.0712 13.16,31.20883 1.25459,2.19695 1.24653,2.18472 2.14175,3.24854 4.17062,4.95607 9.22818,10.51471 14.07356,15.4679 0.95568,0.97694 1.18062,1.1796 1.18062,1.06362 z m -21.92466,-25.20893 c -0.0228,-0.0724 -0.42836,-0.90871 -0.90119,-1.8584 -3.79414,-7.62039 -7.05955,-15.95795 -8.74557,-22.33006 -1.66417,-6.28957 -2.29008,-12.35611 -1.76225,-17.08049 0.0474,-0.42452 0.0868,-1.04841 0.0874,-1.38644 6.5e-4,-0.33801 0.0403,-0.98334 0.0881,-1.43403 0.34124,-3.21595 1.28736,-5.92202 2.86073,-8.1822 0.19698,-0.28296 0.39694,-0.57778 0.44437,-0.65517 0.25369,-0.41387 -0.26625,-0.10393 -1.54954,0.9237 -4.51045,3.61191 -6.84075,7.86696 -7.3444,13.41063 -0.0808,0.88951 -0.0808,3.05828 -3e-5,4.04182 0.33671,4.09827 1.6305,8.71305 3.83229,13.66926 2.54496,5.7287 6.71738,12.60212 12.22276,20.1351 0.59392,0.81265 0.874,1.08508 0.76727,0.74628 z m 41.18342,-28.68081 c 0.13628,-0.52408 0.48181,-1.67341 0.63789,-2.1218 0.23493,-0.67484 0.25765,-0.79018 0.15574,-0.79018 -0.11582,0 -1.32205,1.94213 -1.32205,2.12863 0,0.0493 0.067,0.30163 0.14887,0.56083 0.17037,0.53929 0.28041,0.60382 0.37955,0.22252 z m -0.79182,-3.02039 c 0.12877,-0.20054 0.51269,-0.79505 0.85318,-1.32115 0.56998,-0.88075 0.63179,-1.00463 0.78003,-1.56336 0.0886,-0.33374 0.27856,-0.9986 0.42225,-1.47746 l 0.26124,-0.87063 -0.24654,-0.41707 c -0.42001,-0.71051 -1.27172,-1.96114 -1.89843,-2.78763 -4.81457,-6.34923 -12.25669,-12.2219 -19.84349,-15.65874 -3.42216,-1.55025 -7.21615,-2.74363 -10.03336,-3.15596 -0.86605,-0.12675 -2.13949,-0.23087 -2.25966,-0.18474 -0.20078,0.077 0.0199,0.15393 0.85812,0.29894 7.64419,1.32253 15.60433,6.43268 22.56529,14.48618 2.5067,2.90014 4.66559,6.01649 6.30538,9.10177 0.52873,0.99482 1.31843,2.67743 1.62076,3.4534 0.2399,0.61568 0.27797,0.62164 0.61523,0.0965 z m 3.92378,-5.68628 c 0.28063,-0.37021 0.75227,-0.97603 1.04807,-1.34624 0.29581,-0.37022 0.69286,-0.92335 0.88231,-1.22918 1.38547,-2.23643 2.95162,-4.36132 4.85342,-6.58488 0.91152,-1.06573 3.74874,-3.90556 4.83274,-4.83718 4.03623,-3.46883 8.19421,-5.99724 12.314,-7.48796 0.82568,-0.29876 0.72424,-0.40378 -0.2881,-0.29825 -2.44717,0.25509 -5.07498,1.02914 -7.48965,2.20618 -7.46093,3.63682 -13.64148,10.66187 -16.77251,19.06427 -0.15917,0.42715 -0.28946,0.81918 -0.28952,0.87118 0,0.15073 0.23158,0.41024 0.32103,0.35945 0.0429,-0.0244 0.30756,-0.34718 0.58821,-0.71739 z m -53.09452,-12.55518 c 0.50939,-0.90533 1.13694,-1.8462 1.69825,-2.54614 0.46647,-0.58168 1.61421,-1.77801 2.09362,-2.18226 0.29888,-0.25201 0.39084,-0.45573 0.14806,-0.32798 -0.42921,0.22586 -1.82165,1.56907 -2.5127,2.42384 -0.5304,0.65606 -1.19614,1.69733 -1.57088,2.45695 -0.36175,0.7333 -0.50163,1.13366 -0.33743,0.96578 0.0472,-0.0483 0.26372,-0.40387 0.48108,-0.79019 z m 65.06225,0.42673 c 6.76297,-5.11615 13.08141,-7.8305 19.46046,-8.36008 0.41769,-0.0346 0.76993,-0.0736 0.78279,-0.0864 0.12314,-0.12314 -0.83653,-0.49901 -2.03972,-0.79887 -0.5773,-0.14388 -0.88231,-0.12008 -2.42909,0.18956 -5.17096,1.03515 -10.63967,4.07063 -15.84907,8.79722 -0.84873,0.77009 -0.80444,0.92359 0.0747,0.25858 z m 28.21254,-7.36679 c 0,-0.14986 -2.37933,-1.10949 -3.59973,-1.45183 -1.2572,-0.35267 -2.5903,-0.5724 -3.83971,-0.63288 -0.48268,-0.0234 -0.75042,-0.0148 -0.77491,0.0248 -0.0527,0.0853 0.0455,0.1455 0.54664,0.33513 0.24144,0.0914 0.69193,0.27885 1.00109,0.41662 0.52828,0.23544 0.61108,0.25438 1.37551,0.31482 1.64183,0.12982 3.10152,0.40898 4.73506,0.90555 0.55202,0.1678 0.55605,0.16843 0.55605,0.0878 z"
       style="fill:#231e20" />
    <text
       xml:space="preserve"
       style="font-size:56.06227112px;font-style:normal;font-weight:normal;text-align:center;line-height:571.00000381%;letter-spacing:0px;word-spacing:0px;text-anchor:middle;fill:#000000;fill-opacity:1;stroke:#ff6de8;stroke-width:2.29999995;stroke-linecap:round;stroke-linejoin:round;stroke-miterlimit:4;stroke-opacity:1;stroke-dasharray:none;font-family:Sans"
       id="text4428"
       sodipodi:linespacing="571%"
       transform="scale(0.94643248,1.0565994)"
       x="529.85693"
       y="747.086"><tspan
         style="font-size:50px;font-style:normal;font-variant:normal;font-weight:normal;font-stretch:normal;line-height:571.99997902%;stroke:#ff6de8;stroke-width:2.29999995;stroke-linecap:round;stroke-linejoin:round;stroke-miterlimit:4;stroke-opacity:1;stroke-dasharray:none;font-family:SP Sutsakhorn;-inkscape-font-specification:SP Sutsakhorn"
         id="tspan4684">  </tspan></text>
    <text
       xml:space="preserve"
       style="font-size:56.06227112px;font-style:normal;font-weight:normal;text-align:center;line-height:125%;letter-spacing:0px;word-spacing:0px;text-anchor:middle;fill:#000000;fill-opacity:1;stroke:#ff6de8;stroke-width:2.29999995;stroke-linecap:round;stroke-linejoin:round;stroke-miterlimit:4;stroke-opacity:1;stroke-dasharray:none;font-family:Sans"
       sodipodi:linespacing="125%"
       transform="scale(0.94643248,1.0565994)"
       x="517.78149"
       y="842.54059"
       id="text4678"><tspan
         style="font-size:50px;font-style:normal;font-variant:normal;font-weight:normal;font-stretch:normal;stroke:#ff6de8;stroke-width:2.29999995;stroke-linecap:round;stroke-linejoin:round;stroke-miterlimit:4;stroke-opacity:1;stroke-dasharray:none;font-family:SP Sutsakhorn;-inkscape-font-specification:SP Sutsakhorn"
         id="tspan4696"></tspan></text>
    <text
       xml:space="preserve"
       style="font-size:56.06227112px;font-style:normal;font-weight:normal;text-align:center;line-height:125%;letter-spacing:0px;word-spacing:0px;text-anchor:middle;fill:#000000;fill-opacity:1;stroke:#ff6de8;stroke-width:2.29999995;stroke-linecap:round;stroke-linejoin:round;stroke-miterlimit:4;stroke-opacity:1;stroke-dasharray:none;font-family:Sans"
       sodipodi:linespacing="125%"
       transform="scale(0.94643248,1.0565994)"
       x="178.99933"
       y="605.25525"
       id="text4678-7"><tspan
         style="font-size:40px;font-style:normal;font-variant:normal;font-weight:normal;font-stretch:normal;stroke:#ff6de8;stroke-width:2.29999995;stroke-linecap:round;stroke-linejoin:round;stroke-miterlimit:4;stroke-opacity:1;stroke-dasharray:none;font-family:SP Sutsakhorn;-inkscape-font-specification:SP Sutsakhorn"
         id="tspan4696-8">...</tspan></text>
    <path
       inkscape:connector-curvature="0"
       id="path4737"
       d="m 106.39092,898.50504 792.36666,0 z"
       style="fill:none;stroke:#808080;stroke-width:2.15621066;stroke-linecap:butt;stroke-linejoin:miter;stroke-miterlimit:4;stroke-opacity:1;stroke-dasharray:2.15621078, 12.93726455;stroke-dashoffset:0" />
    <text
       xml:space="preserve"
       style="font-size:28.04718018px;font-style:normal;font-weight:normal;text-align:center;line-height:571.00000381%;letter-spacing:0px;word-spacing:0px;text-anchor:middle;fill:#000000;fill-opacity:1;stroke:#ff6de8;stroke-width:1.15065825;stroke-linecap:round;stroke-linejoin:round;stroke-miterlimit:4;stroke-opacity:1;stroke-dasharray:none;font-family:Sans"
       id="text4428-6"
       sodipodi:linespacing="571%"
       transform="scale(0.94643248,1.0565994)"
       x="541.92206"
       y="967.21039"><tspan
         style="font-size:25.01430893px;font-style:normal;font-variant:normal;font-weight:normal;font-stretch:normal;line-height:571.99997902%;stroke:#ff6de8;stroke-width:1.15065825;stroke-linecap:round;stroke-linejoin:round;stroke-miterlimit:4;stroke-opacity:1;stroke-dasharray:none;font-family:SP Sutsakhorn;-inkscape-font-specification:SP Sutsakhorn"
         id="tspan4684-0">***   ***</tspan></text>
  </g>
</svg>
