<?xml version="1.0" encoding="UTF-8" standalone="no"?>
<!-- Created with Inkscape (http://www.inkscape.org/) -->

<svg
   xmlns:dc="http://purl.org/dc/elements/1.1/"
   xmlns:cc="http://creativecommons.org/ns#"
   xmlns:rdf="http://www.w3.org/1999/02/22-rdf-syntax-ns#"
   xmlns:svg="http://www.w3.org/2000/svg"
   xmlns="http://www.w3.org/2000/svg"
   xmlns:sodipodi="http://sodipodi.sourceforge.net/DTD/sodipodi-0.dtd"
   xmlns:inkscape="http://www.inkscape.org/namespaces/inkscape"
   width="720"
   height="1280"
   id="svg2"
   version="1.1"
   inkscape:version="0.48.3.1 r9886"
   sodipodi:docname="New document 1">
  <defs
     id="defs4">
    <linearGradient
       id="linearGradient3798">
      <stop
         style="stop-color:#27569f;stop-opacity:1;"
         offset="0"
         id="stop3800" />
      <stop
         style="stop-color:#27569f;stop-opacity:0.77692306;"
         offset="1"
         id="stop3802" />
    </linearGradient>
  </defs>
  <sodipodi:namedview
     id="base"
     pagecolor="#ffffff"
     bordercolor="#666666"
     borderopacity="1.0"
     inkscape:pageopacity="1"
     inkscape:pageshadow="2"
     inkscape:zoom="0.49497475"
     inkscape:cx="288.412"
     inkscape:cy="666.39728"
     inkscape:document-units="px"
     inkscape:current-layer="layer1"
     showgrid="false"
     inkscape:window-width="1600"
     inkscape:window-height="871"
     inkscape:window-x="0"
     inkscape:window-y="0"
     inkscape:window-maximized="1" />
  <metadata
     id="metadata7">
    <rdf:RDF>
      <cc:Work
         rdf:about="">
        <dc:format>image/svg+xml</dc:format>
        <dc:type
           rdf:resource="http://purl.org/dc/dcmitype/StillImage" />
        <dc:title></dc:title>
      </cc:Work>
    </rdf:RDF>
  </metadata>
  <g
     inkscape:label="Layer 1"
     inkscape:groupmode="layer"
     id="layer1"
     transform="translate(0,227.63782)">
    <g
       style="font-size:201.98495483px;font-style:normal;font-variant:normal;font-weight:normal;font-stretch:normal;text-align:start;line-height:125%;letter-spacing:0px;word-spacing:0px;writing-mode:lr-tb;text-anchor:start;fill:#ffffff;fill-opacity:1;stroke:none;font-family:IPAPMincho;-inkscape-font-specification:IPAPMincho"
       id="text3024"
       transform="matrix(0.95049888,0,0,0.95049888,314.19743,-63.92152)" />
    <path
       style="fill:#777663;fill-opacity:1"
       d="m 193.00927,332.09035 c -9.08027,-3.95355 -9.28134,-19.56585 -0.31173,-24.20421 1.20288,-0.62204 4.02109,-1.13097 6.26271,-1.13097 6.77624,0 10.99729,4.01706 12.09048,11.50618 l 0.413,2.8294 -10.13836,0 c -9.60849,0 -10.13837,0.0782 -10.13837,1.4971 0,0.82341 0.99091,2.60592 2.20202,3.96114 1.89157,2.11665 2.67609,2.45416 5.5645,2.39393 2.16264,-0.0451 4.19183,-0.66065 5.68662,-1.72505 1.98682,-1.41474 2.54802,-1.5151 3.8668,-0.69151 0.84846,0.52987 1.54266,1.16208 1.54266,1.40489 0,0.6633 -3.16955,3.41773 -5.0433,4.38277 -2.23282,1.14997 -9.1378,1.02124 -11.99703,-0.22367 z m 13.26781,-15.80213 c 0,-1.84211 -2.98153,-4.87811 -5.28811,-5.38473 -2.89447,-0.63572 -7.21517,0.79382 -8.66787,2.86783 -2.24621,3.20691 -1.63167,3.54691 6.41094,3.54691 5.87244,0 7.54504,-0.22834 7.54504,-1.03001 z m 14.16592,15.69847 c -2.60606,-1.41427 -3.60287,-3.28305 -3.60287,-6.75461 0,-5.12477 6.02974,-8.66836 14.74997,-8.66836 2.06795,0 2.60363,-0.29921 2.60363,-1.45425 0,-1.86081 -3.43538,-4.58178 -5.78476,-4.58178 -0.99481,0 -3.04087,0.51482 -4.5468,1.14404 -3.17679,1.32734 -5.51302,0.85571 -5.51302,-1.11296 0,-1.89217 5.05383,-3.80645 10.01244,-3.79248 8.49865,0.024 10.35628,2.97405 10.35799,16.44945 l 0.002,9.29279 -2.07489,-0.23874 c -1.16699,-0.13427 -1.99235,-0.65142 -1.88627,-1.18187 0.25345,-1.26723 -0.10956,-1.19909 -2.99976,0.56306 -2.94339,1.79458 -8.33391,1.95448 -11.31684,0.33571 z m 11.09336,-4.29404 c 1.17499,-1.02093 2.13339,-2.82546 2.4043,-4.52702 l 0.4505,-2.82939 -2.9281,0.005 c -7.63006,0.011 -11.64672,3.17533 -9.05377,7.13267 1.68202,2.56709 6.2975,2.67811 9.12707,0.21953 z m 22.27485,4.66359 c -4.77534,-2.00821 -7.761,-6.78479 -7.761,-12.41642 0,-5.3878 2.56695,-9.73624 7.15728,-12.12458 3.09634,-1.61103 9.38396,-1.35213 12.39772,0.51048 l 2.54119,1.57054 0,-9.11558 0,-9.11559 2.26352,0 2.26351,0 0,20.37161 0,20.3716 -2.26351,0 c -1.77164,0 -2.26352,-0.33283 -2.26352,-1.53159 0,-1.51115 -0.0299,-1.50948 -2.24014,0.12461 -2.56006,1.89273 -9.0795,2.62306 -12.09505,1.35492 z m 11.00121,-4.96174 c 3.48467,-2.28325 4.40888,-8.68142 1.85825,-12.86457 -2.86494,-4.69863 -11.17597,-5.01003 -14.11222,-0.52875 -1.90254,2.90363 -2.08801,7.79981 -0.41147,10.86209 2.335,4.26496 8.22339,5.44177 12.66544,2.53123 z m 18.23544,4.95337 c -1.51569,-0.88281 -1.74921,-3.73597 -0.41498,-5.07019 1.42327,-1.42328 4.23687,-1.06641 5.15771,0.65419 0.64927,1.2132 0.56752,1.96734 -0.36811,3.39528 -1.29992,1.98394 -2.31445,2.22066 -4.37462,1.02072 z m 40.94333,-0.83973 c -4.27644,-2.90361 -6.15551,-6.91071 -5.85424,-12.48415 0.42034,-7.77673 5.04588,-12.26882 12.63329,-12.26882 7.11463,0 12.06806,4.7127 12.07089,11.48429 l 0.002,2.80749 -9.99717,0.21052 c -9.51819,0.20044 -9.98551,0.28284 -9.7535,1.71953 0.13403,0.82996 1.24417,2.5276 2.467,3.77252 1.83009,1.86316 2.80457,2.25112 5.50946,2.1934 2.12716,-0.0454 4.14164,-0.6793 5.71184,-1.79738 l 2.42571,-1.72726 1.51442,1.51443 1.51441,1.51441 -2.81945,2.15051 c -2.30221,1.75597 -3.73449,2.20052 -7.807,2.42311 -4.2694,0.23337 -5.36612,0.0155 -7.61681,-1.5126 z m 13.90533,-15.88755 c -0.73657,-2.40264 -1.57917,-3.29081 -4.12072,-4.34355 -4.15605,-1.7215 -9.31447,0.53503 -10.79175,4.7208 -0.42473,1.20346 0.23802,1.32039 7.48345,1.32039 7.89508,0 7.9459,-0.0116 7.42902,-1.69764 z m 14.58467,16.3661 c -2.64099,-1.43321 -3.60287,-3.28665 -3.60287,-6.9423 0,-4.8942 3.92914,-7.57407 12.11052,-8.25997 5.89741,-0.49442 6.49116,-1.30472 3.29678,-4.49909 -1.71777,-1.71777 -2.35428,-1.89037 -5.42113,-1.47002 -1.91117,0.26196 -4.19942,0.95104 -5.085,1.5313 -1.42812,0.93574 -1.71087,0.89371 -2.50115,-0.37172 -1.22949,-1.96871 -1.20195,-2.03429 1.56113,-3.71898 3.05518,-1.86277 10.17817,-2.03115 13.48936,-0.31887 3.51335,1.81683 4.43011,5.00225 4.43011,15.39298 l 0,9.07828 -2.26351,0 c -1.49906,0 -2.26352,-0.37848 -2.26352,-1.12066 0,-0.91442 -0.4513,-0.8455 -2.45213,0.37443 -2.92515,1.78349 -8.32446,1.93862 -11.29859,0.32462 z m 11.09337,-4.29404 c 1.20428,-1.04639 2.13381,-2.82732 2.42303,-4.64246 l 0.46924,-2.94484 -4.67145,0.4236 c -5.5177,0.50032 -8.39003,2.10464 -8.39003,4.68618 0,3.98911 6.58353,5.59306 10.16921,2.47752 z m 68.45011,4.56476 c -0.49797,-0.49798 -0.9054,-1.61842 -0.9054,-2.48987 0,-3.38567 4.50379,-4.74923 6.06312,-1.83567 1.67575,3.13114 -2.69041,6.79282 -5.15772,4.32554 z m 83.59942,0.0577 c -2.46678,-0.98363 -5.14957,-3.52656 -6.53921,-6.19826 -1.25874,-2.41991 -1.47724,-8.97576 -0.39392,-11.81669 0.90269,-2.36703 4.49239,-6.00223 6.79325,-6.87923 3.17842,-1.21154 9.39448,-0.76769 12.06678,0.86161 2.82305,1.72114 5.38452,6.62471 5.40972,10.35602 l 0.0166,2.45218 -10.1858,0 c -6.60878,0 -10.1858,0.27812 -10.1858,0.79196 0,1.99519 2.4393,5.15553 4.86926,6.30861 3.21374,1.52503 7.05967,1.01565 9.50049,-1.2583 1.26032,-1.17415 1.97537,-1.36909 2.89466,-0.78918 3.76603,2.37553 -1.96669,7.02088 -8.58762,6.95873 -2.07489,-0.0195 -4.62111,-0.37381 -5.6584,-0.78741 z m 12.28792,-16.51488 c -0.21827,-0.83488 -1.44313,-2.39829 -2.72186,-3.47426 -3.1564,-2.65596 -7.51667,-2.16432 -10.50957,1.185 -1.14118,1.27711 -2.07488,2.65617 -2.07488,3.06461 0,0.43956 3.20415,0.7426 7.85166,0.7426 7.49562,0 7.83364,-0.0688 7.45465,-1.51795 z m 13.17621,16.54763 c -1.51572,-0.88281 -1.74923,-3.73597 -0.41497,-5.07019 2.93049,-2.9305 7.5347,1.30283 4.75616,4.37305 -1.5256,1.68579 -2.40211,1.82654 -4.34119,0.69714 z M 167.67505,320.14762 c -0.15803,-7.60029 0.0318,-12.47543 0.49958,-12.82563 1.34222,-1.00498 3.01168,-0.21863 3.26183,1.53642 l 0.2438,1.71056 2.26622,-1.9069 c 1.59513,-1.34221 3.15763,-1.9069 5.27646,-1.9069 2.83878,0 2.99665,0.11818 2.7715,2.07489 -0.20964,1.82202 -0.63285,2.12748 -3.4728,2.50651 -5.28598,0.70547 -5.78312,1.69146 -6.0718,12.04256 l -0.25182,9.02917 -2.13402,0 -2.13404,0 -0.25492,-12.26068 z m 138.19655,-8.11092 0,-20.37161 2.26351,0 2.26351,0 0,20.37161 0,20.3716 -2.26351,0 -2.26351,0 0,-20.3716 z m 73.35727,7.73366 0.20686,-12.63794 1.85225,0 c 1.3328,0 1.99938,0.52898 2.37694,1.88627 0.28857,1.03743 0.55852,1.47056 0.59988,0.9625 0.112,-1.37559 4.17009,-3.22602 7.07485,-3.22602 2.40145,0 2.52851,0.12982 2.21535,2.26352 -0.28885,1.96808 -0.64379,2.2635 -2.71945,2.2635 -5.40242,0 -7.23892,3.68126 -7.24583,14.52421 l -0.005,6.6019 -2.28176,0 -2.28175,0 0.20687,-12.63794 z m 20.3716,0 0.20687,-12.63794 1.88626,0 c 1.38846,0 1.95061,0.45347 2.13007,1.71827 l 0.2438,1.71828 2.26623,-1.9069 c 1.78807,-1.50459 3.09411,-1.9069 6.19022,-1.9069 7.77237,0 9.54131,3.00048 9.54131,16.18437 l 0,9.46876 -2.26352,0 -2.26351,0 0,-9.08833 c 0,-8.75742 -0.0709,-9.15906 -1.94171,-11.03004 -1.61653,-1.61656 -2.40619,-1.86777 -4.71565,-1.50019 -1.64701,0.26214 -3.46363,1.23524 -4.47159,2.39531 -1.5478,1.78137 -1.69763,2.71592 -1.69763,10.58853 l 0,8.63472 -2.65901,0 -2.65901,0 0.20687,-12.63794 z m 54.90842,-7.73366 0,-20.46721 2.45214,0.23643 2.45214,0.23643 0,19.99435 0,19.99435 -2.45214,0.23644 -2.45214,0.23643 0,-20.46722 z m 14.50595,7.73366 0.20688,-12.63794 1.88627,0 1.88625,0 0.20688,12.63794 0.20689,12.63794 -2.30002,0 -2.30004,0 0.20689,-12.63794 z m 15.41489,0.45872 c -2.94944,-7.18157 -4.75466,-12.53423 -4.36028,-12.92862 0.37016,-0.37018 1.47611,-0.55942 2.45772,-0.42054 1.51618,0.21451 2.33957,1.64297 5.4734,9.49518 2.02878,5.08347 3.91618,9.24267 4.19422,9.24267 0.27795,0 2.01278,-4.08904 3.85513,-9.08675 2.76194,-7.49203 3.65761,-9.164 5.10377,-9.52696 0.96463,-0.24212 2.0521,-0.14208 2.41645,0.22229 0.38034,0.38034 -1.37811,5.80376 -4.12857,12.7336 l -4.79103,12.0711 -2.59368,0.2268 -2.59376,0.22681 -5.03337,-12.25558 z M 469.0331,300.21945 c -1.32401,-0.53425 -1.1771,-4.40289 0.21095,-5.55488 1.70579,-1.41564 4.88195,0.20581 4.88195,2.49223 0,2.90087 -2.2061,4.22751 -5.0929,3.06265 z m -198.09874,-42.9886 c -0.28844,-0.28843 -0.52444,-2.2532 -0.52444,-4.36613 0,-3.21905 -0.49683,-4.60206 -3.06546,-8.53323 -2.83587,-4.34017 -7.62975,-8.95968 -13.15638,-12.67783 -4.86681,-3.27426 -14.69592,-7.18726 -21.88612,-8.71294 -6.48158,-1.37532 -9.12762,-1.54079 -18.85709,-1.17913 -12.2297,0.45459 -19.85614,1.85317 -32.06642,5.88053 -3.94228,1.3003 -8.8143,3.18846 -10.82671,4.1959 -2.0124,1.00745 -3.82388,1.66676 -4.02551,1.46512 -0.20163,-0.20162 0.88921,-4.89294 2.4241,-10.42515 1.53489,-5.53221 3.11262,-11.2469 3.50608,-12.69932 0.6228,-2.29904 1.31959,-2.89971 5.38458,-4.64181 6.01533,-2.57794 16.06844,-5.59042 22.77731,-6.82539 8.27759,-1.52374 28.89528,-1.28051 36.21619,0.42725 7.62498,1.77869 18.35575,6.84992 23.8656,11.27858 7.76633,6.24238 15.65387,18.72329 16.94832,26.81838 0.49203,3.07698 1.80681,4.37591 1.82477,1.80276 0.0148,-2.10605 4.71462,-12.30183 7.74845,-16.80912 7.97029,-11.84122 17.27274,-17.94559 33.59914,-22.04811 5.50972,-1.38448 8.65837,-1.6447 19.75802,-1.63285 18.01213,0.0192 28.51632,2.14962 44.96038,9.1186 l 6.10343,2.58662 1.95431,13.72255 c 1.07487,7.5474 1.84965,13.82719 1.72176,13.95509 -0.12791,0.12791 -3.14738,-0.97405 -6.70994,-2.44878 -21.92875,-9.07743 -36.52389,-12.21129 -53.56463,-11.50138 -11.45289,0.47711 -16.55771,1.68106 -25.06706,5.91195 -7.3383,3.64864 -11.93887,7.45135 -15.80377,13.06302 -2.43359,3.53346 -2.9641,5.01284 -3.33174,9.29089 l -0.43726,5.08824 -9.47273,0.21008 c -5.21001,0.11553 -9.70874,-0.026 -9.99718,-0.31439 z M 132.96257,176.20852 c -24.84367,-4.19237 -43.253424,-22.95828 -47.35462,-48.27078 -4.13718,-25.53455 5.5576,-50.416203 24.61787,-63.181745 9.22859,-6.180821 16.34704,-8.124948 29.65491,-8.099098 9.69712,0.01884 10.4754,0.136369 16.22183,2.449609 3.31983,1.336405 7.56391,3.650853 9.43131,5.143224 l 3.39526,2.713399 0.22628,-4.21988 0.22628,-4.219877 11.65716,0 11.65716,0 0,20.404757 0,20.404762 -9.80722,-0.111524 -9.80722,-0.111515 -2.39505,-3.128279 C 161.46145,83.932338 153.73688,79.76593 142.23525,80.635798 c -7.06785,0.534543 -15.31514,4.335267 -19.16379,8.831551 -10.42467,12.178871 -12.32985,31.380821 -4.62157,46.579791 4.68687,9.24144 12.05507,14.54646 22.44787,16.16219 4.74654,0.73793 6.3196,0.67353 10.75933,-0.44045 7.73436,-1.94065 16.71189,-7.6084 24.23787,-15.30199 1.34135,-1.37122 2.69946,-2.47979 3.01802,-2.46349 0.31857,0.0163 4.46075,3.70561 9.20485,8.19847 l 8.62563,8.16885 -4.85312,4.72401 c -8.70162,8.47013 -17.22954,14.29537 -25.96246,17.73444 -9.33192,3.67495 -22.94432,5.07039 -32.96531,3.37935 z m 135.56108,0.27711 c -22.77799,-2.70459 -39.58326,-13.86265 -48.60796,-32.27385 -4.19841,-8.56514 -5.36878,-13.63376 -5.84838,-25.32809 -0.35879,-8.74909 -0.19018,-11.14362 1.19546,-16.97634 5.18055,-21.807069 20.50081,-37.41301 42.69783,-43.494043 8.88977,-2.435417 27.63353,-2.460302 36.06691,-0.04789 26.06202,7.455158 42.1345,27.068601 44.02785,53.727723 1.7752,24.9955 -10.21058,46.96724 -31.50839,57.75966 -10.719,5.43173 -25.87407,8.07539 -38.02332,6.63282 z m 14.79848,-24.40775 c 13.03783,-2.43326 22.12452,-12.0548 25.13105,-26.61033 2.9535,-14.29882 -0.47227,-27.31336 -9.54169,-36.24896 -6.77878,-6.678749 -11.61855,-8.437354 -23.22005,-8.437354 -7.61285,0 -9.23773,0.236688 -13.25148,1.930247 -5.89042,2.485404 -9.4514,5.351833 -13.11072,10.553528 -8.14934,11.584239 -9.08261,30.149349 -2.1678,43.122869 2.55534,4.79432 8.66569,10.91614 12.9023,12.92654 6.80304,3.22827 15.33568,4.24208 23.25839,2.76346 z m 124.03025,23.83372 c -21.21271,-4.90886 -36.80089,-20.50331 -42.74037,-42.75756 -2.00423,-7.50955 -2.37547,-23.02522 -0.72955,-30.49219 7.01849,-31.840617 35.84996,-51.815652 65.20161,-45.173009 8.65107,1.957855 19.75767,8.031337 23.72719,12.974953 0.75881,0.945032 0.94313,-4.087835 0.94313,-25.754535 l 0,-26.929109 -8.29955,0 -8.29954,0 0,-12.07206 0,-12.07206 23.01237,0 23.01238,0 0,78.468411 0,78.468409 8.29954,0 8.29954,0 0,12.08401 0,12.084 -20.93748,-0.20057 -20.93748,-0.20056 -0.21783,-7.04587 -0.21783,-7.04587 -4.10752,3.50915 c -10.06003,8.59456 -19.98439,12.45714 -33.18203,12.91447 -5.39221,0.18685 -9.88543,-0.0794 -12.82658,-0.76001 z m 23.7973,-23.83551 c 15.20974,-2.88446 25.2497,-15.52384 26.20151,-32.98514 1.04913,-19.248226 -7.43285,-32.960152 -23.07115,-37.296521 -13.15908,-3.648902 -26.97434,0.314153 -34.57448,9.918061 -5.12867,6.480843 -7.21525,12.46065 -7.64144,21.8991 -0.75149,16.64325 5.65957,29.6571 17.47257,35.46759 7.14288,3.51341 13.92829,4.45429 21.61299,2.99691 z m 133.77453,23.84102 c -20.02702,-3.83019 -35.29841,-14.7258 -43.47693,-31.01932 -5.15199,-10.26385 -7.43345,-24.03998 -5.963,-36.00547 3.41587,-27.795226 22.04103,-47.009816 50.34571,-51.938858 7.46484,-1.299946 23.45316,-0.491513 30.52564,1.543493 22.3577,6.433111 36.82825,24.341851 41.13775,50.911985 0.60964,3.75869 1.1098,8.78626 1.11146,11.17238 l 0,4.3384 -46.81342,0 -46.81343,0 0.51299,2.82939 c 1.96435,10.83474 8.97807,18.797 19.76537,22.43849 14.45901,4.88098 29.09812,2.24038 38.03589,-6.86093 l 3.24618,-3.30552 14.57505,-0.006 14.57506,-0.006 -0.50084,1.69763 c -4.43444,15.03045 -19.78196,28.22162 -38.45782,33.05438 -7.85228,2.03194 -24.13311,2.62326 -31.80867,1.15529 z m 44.13486,-73.82114 c -2.124,-9.495611 -11.18182,-17.127207 -24.36814,-20.531144 -5.68964,-1.468733 -10.22111,-1.469947 -15.84828,-0.0045 -11.13309,2.899792 -20.11077,11.269122 -23.0384,21.477294 l -0.64955,2.26502 32.3108,0 32.3108,0 -0.71723,-3.20664 z"
       id="path3903"
       inkscape:connector-curvature="0"
       inkscape:export-filename="/home/xavier/Desktop/logo.png"
       inkscape:export-xdpi="81.126556"
       inkscape:export-ydpi="81.126556" />
    <path
       style="fill:#58bed4;fill-opacity:1;stroke:#58bed4;stroke-opacity:1"
       d="m 271.63601,257.23085 c -0.28844,-0.28845 -0.52444,-2.25321 -0.52444,-4.36614 0,-3.21906 -0.49683,-4.60206 -3.06546,-8.53323 -2.83587,-4.34017 -7.62975,-8.95968 -13.15638,-12.67783 -4.86681,-3.27426 -14.69592,-7.18726 -21.88612,-8.71294 -6.48158,-1.37532 -9.12762,-1.54079 -18.85709,-1.17913 -12.2297,0.45459 -19.85614,1.85317 -32.06642,5.88053 -3.94228,1.3003 -8.8143,3.18847 -10.82671,4.1959 -2.0124,1.00745 -3.82388,1.66676 -4.02551,1.46512 -0.20163,-0.20162 0.88921,-4.89294 2.4241,-10.42515 1.53489,-5.53221 3.11262,-11.2469 3.50608,-12.69932 0.6228,-2.29903 1.31959,-2.89971 5.38458,-4.64181 6.01533,-2.57794 16.06844,-5.59042 22.77731,-6.82539 8.27759,-1.52375 28.89528,-1.28051 36.21619,0.42725 7.62498,1.77869 18.35575,6.84992 23.8656,11.27858 7.76633,6.24239 15.65387,18.72329 16.94832,26.81838 0.49203,3.07698 1.80681,4.37592 1.82477,1.80276 0.0148,-2.10605 4.71462,-12.30182 7.74845,-16.80912 7.97029,-11.84122 17.27274,-17.94558 33.59914,-22.04811 5.50972,-1.38449 8.65837,-1.6447 19.75802,-1.63285 18.01213,0.0192 28.51632,2.14963 44.96038,9.1186 l 6.10343,2.58662 1.95431,13.72255 c 1.07487,7.5474 1.84965,13.82719 1.72176,13.95509 -0.12791,0.12791 -3.14738,-0.97404 -6.70994,-2.44878 -21.92875,-9.07743 -36.52389,-12.21129 -53.56463,-11.50138 -11.45289,0.47712 -16.55771,1.68107 -25.06706,5.91195 -7.3383,3.64864 -11.93887,7.45135 -15.80377,13.06302 -2.43359,3.53346 -2.9641,5.01284 -3.33174,9.29089 l -0.43726,5.08825 -9.47273,0.21006 c -5.21001,0.11554 -9.70874,-0.026 -9.99718,-0.31437 z m -2.41071,-80.74523 c -22.77799,-2.70459 -39.58326,-13.86265 -48.60796,-32.27386 -4.19841,-8.56514 -5.36878,-13.63376 -5.84838,-25.32809 -0.35879,-8.74908 -0.19018,-11.14362 1.19546,-16.97634 5.18055,-21.807065 20.50081,-37.413005 42.69783,-43.494032 8.88977,-2.435417 27.63353,-2.460311 36.06691,-0.04789 26.06202,7.455162 42.1345,27.068606 44.02785,53.727732 1.7752,24.99549 -10.21058,46.96724 -31.50839,57.75966 -10.719,5.43172 -25.87407,8.07539 -38.02332,6.63282 z m 14.79848,-24.40775 c 13.03783,-2.43326 22.12452,-12.05481 25.13105,-26.61034 2.9535,-14.29881 -0.47227,-27.313358 -9.54169,-36.248956 -6.77878,-6.678748 -11.61855,-8.437354 -23.22005,-8.437354 -7.61285,0 -9.23773,0.236688 -13.25148,1.930248 -5.89042,2.485404 -9.4514,5.351832 -13.11072,10.553527 -8.14934,11.584235 -9.08261,30.149355 -2.1678,43.122865 2.55534,4.79432 8.66569,10.91614 12.9023,12.92655 6.80304,3.22826 15.33568,4.24207 23.25839,2.76346 z"
       id="path3903-2"
       inkscape:connector-curvature="0"
       sodipodi:nodetypes="ssssssssssssssssssssscscssssscsscsssssssccsssssssss"
       inkscape:export-filename="/home/xavier/Desktop/logo.png"
       inkscape:export-xdpi="81.126556"
       inkscape:export-ydpi="81.126556" />
    <rect
       style="fill:#58bed4;fill-opacity:1;stroke:none"
       id="rect3925"
       width="326.73215"
       height="101.0356"
       x="185.14987"
       y="447.63998"
       rx="21.691763"
       ry="20.725252"
       transform="matrix(1,0,0.02633434,0.99965319,0,0)" />
    <text
       xml:space="preserve"
       style="font-size:40px;font-style:normal;font-weight:normal;line-height:125%;letter-spacing:0px;word-spacing:0px;fill:#ffffff;fill-opacity:1;stroke:none;font-family:Sans"
       x="290.43344"
       y="509.0202"
       id="text3927"
       sodipodi:linespacing="125%"><tspan
         sodipodi:role="line"
         id="tspan3929"
         x="290.43344"
         y="509.0202">SignUp</tspan></text>
  </g>
</svg>
